<svg xmlns="http://www.w3.org/2000/svg" width="104.164" height="104.839" viewBox="0 0 104.164 104.839">
    <path d="M262.957,134.526h-4.634a1.269,1.269,0,0,1-1.2-.867,24.164,24.164,0,0,0-1.593-3.836,1.266,1.266,0,0,1,.215-1.5l3.247-3.247a6.306,6.306,0,0,0-.1-8.776l-10.213-10.325a6.236,6.236,0,0,0-4.334-1.728,6.327,6.327,0,0,0-4.44,1.834l-.015.015-3.258,3.144a1.263,1.263,0,0,1-1.365.26q-2.023-.845-4.043-1.684a1.267,1.267,0,0,1-.779-1.169v-4.606a6.154,6.154,0,0,0-6.147-6.147h-14.6a6.229,6.229,0,0,0-6.147,6.147v4.606a1.266,1.266,0,0,1-.893,1.209,25.722,25.722,0,0,0-3.963,1.606,1.253,1.253,0,0,1-.566.135,1.268,1.268,0,0,1-.895-.371l-3.144-3.144c-.013-.013-.025-.025-.036-.038A5.834,5.834,0,0,0,189.7,104.2a6.161,6.161,0,0,0-4.495,1.876L174.882,116.4a6.151,6.151,0,0,0,.1,8.664l3.258,3.256a1.264,1.264,0,0,1,.272,1.382c-.547,1.313-1.112,2.669-1.671,4.123a1.267,1.267,0,0,1-1.182.81h-4.6a6.066,6.066,0,0,0-4.36,1.825,6.3,6.3,0,0,0-1.787,4.435v14.488a6.256,6.256,0,0,0,1.825,4.429,6.048,6.048,0,0,0,4.322,1.829h4.6a1.265,1.265,0,0,1,1.182.81c.547,1.42,1.106,2.76,1.644,4.056l.03.068a1.268,1.268,0,0,1-.291,1.4L175.089,171a6.062,6.062,0,0,0,.008,8.761l10.219,10.219a6.329,6.329,0,0,0,8.768,0l5.391-5.391a2.939,2.939,0,0,0,0-4.049,2.943,2.943,0,0,0-4.051,0l-4.828,4.83a1.271,1.271,0,0,1-1.791,0l-9.209-9.211a1.265,1.265,0,0,1,0-1.792l4.828-4.828a2.85,2.85,0,0,0,.471-3.418,39.338,39.338,0,0,1-3.482-8.346,2.821,2.821,0,0,0-2.72-2.024h-6.852a1.266,1.266,0,0,1-1.266-1.266V141.572a1.266,1.266,0,0,1,1.266-1.266h6.852a2.8,2.8,0,0,0,2.7-2.074l.006-.023a38.277,38.277,0,0,1,3.368-8.362l.013-.023a2.851,2.851,0,0,0-.471-3.418l-4.83-4.828a1.271,1.271,0,0,1,0-1.792l9.211-9.209a1.266,1.266,0,0,1,1.791,0l4.828,4.828a2.834,2.834,0,0,0,3.418.471,36.13,36.13,0,0,1,8.386-3.38l.023-.006a2.8,2.8,0,0,0,2.072-2.7v-6.852a1.266,1.266,0,0,1,1.266-1.266h12.916a1.266,1.266,0,0,1,1.266,1.266v6.852a2.8,2.8,0,0,0,2.074,2.7.074.074,0,0,1,.021,0,38.233,38.233,0,0,1,8.362,3.368l.023.013a2.9,2.9,0,0,0,1.435.371,2.625,2.625,0,0,0,1.946-.8l.038-.04,4.828-4.828a1.266,1.266,0,0,1,1.792,0l9.211,9.209a1.268,1.268,0,0,1,0,1.792l-4.83,4.828a2.853,2.853,0,0,0-.471,3.42,37.566,37.566,0,0,1,3.49,8.373.159.159,0,0,1,.008.034,2.8,2.8,0,0,0,2.7,2.074h6.852a1.264,1.264,0,0,1,1.266,1.266v12.914a1.264,1.264,0,0,1-1.266,1.266H255.4a2.8,2.8,0,0,0-2.7,2.074.2.2,0,0,1-.008.034,37.677,37.677,0,0,1-3.486,8.369,2.848,2.848,0,0,0,.466,3.423l4.83,4.83a1.266,1.266,0,0,1,0,1.789l-9.211,9.211a1.272,1.272,0,0,1-.895.371h-.008a1.262,1.262,0,0,1-.9-.382l-4.712-4.824a2.789,2.789,0,0,0-1.979-.8,3.085,3.085,0,0,0-2.081.825,2.926,2.926,0,0,0,.036,4.056l5.364,5.478a6.171,6.171,0,0,0,4.277,1.726,6.258,6.258,0,0,0,4.383-1.834L259,179.873a6.321,6.321,0,0,0,1.876-4.495,5.584,5.584,0,0,0-1.84-4.237c-.013-.011-.023-.023-.036-.036l-3.256-3.256a1.265,1.265,0,0,1-.238-1.46,25.737,25.737,0,0,0,1.608-3.963,1.266,1.266,0,0,1,1.209-.893h4.606a6.048,6.048,0,0,0,4.322-1.829,6.256,6.256,0,0,0,1.825-4.429v-14.6A6.23,6.23,0,0,0,262.957,134.526Z" transform="translate(-164.91 -95.89)" fill="currentColor"/>
    <path d="M367.635,273.187a2.744,2.744,0,0,0-4.216-.116L353.783,284a2.744,2.744,0,1,0,4.111,3.636l4.549-5.14h.017V336.98a2.809,2.809,0,0,0,5.617,0V282.6l4.307,5.436a2.754,2.754,0,0,0,4.317-3.421Z" transform="translate(-313.384 -234.949)" fill="currentColor"/>
</svg>
