<svg xmlns="http://www.w3.org/2000/svg" width="125.574" height="116.298" viewBox="0 0 125.574 116.298">
    <g id="fiberlean_mproves_product_quality" transform="translate(-59.998 -94.221)">
        <path id="Path_1359" data-name="Path 1359" d="M96.575,153.978a4.221,4.221,0,0,1-3.765-2.308l-2.47-4.872c-.311.007-.622.007-.931,0l-2.475,4.875a4.22,4.22,0,0,1-5.366,1.981l-6.723-2.784a4.222,4.222,0,0,1-2.388-5.195l1.7-5.2c-.222-.215-.441-.435-.654-.659l-5.2,1.7A4.23,4.23,0,0,1,63.1,139.13l-2.788-6.73a4.223,4.223,0,0,1,1.988-5.366l4.872-2.47c-.007-.311-.007-.622,0-.931L62.3,121.16a4.23,4.23,0,0,1-1.981-5.371l2.784-6.723a4.232,4.232,0,0,1,5.195-2.388l5.195,1.7c.215-.222.435-.441.659-.657l-1.7-5.2a4.224,4.224,0,0,1,2.381-5.193l6.737-2.791a4.229,4.229,0,0,1,5.364,1.99l2.475,4.872c.311-.007.62-.007.929,0l2.475-4.875a4.226,4.226,0,0,1,5.357-1.988l6.734,2.788a4.234,4.234,0,0,1,2.388,5.195l-1.7,5.2c.224.215.441.435.657.659l5.2-1.7a4.229,4.229,0,0,1,5.193,2.381l2.786,6.732a4.227,4.227,0,0,1-1.976,5.366l-4.881,2.477c.007.311.007.622,0,.931l4.875,2.473a4.229,4.229,0,0,1,1.988,5.355l-2.791,6.737a4.228,4.228,0,0,1-5.195,2.39l-5.2-1.7c-.213.222-.435.439-.659.657l1.7,5.2a4.223,4.223,0,0,1-2.393,5.195l-6.725,2.786a4.128,4.128,0,0,1-1.6.32Zm-14.946-4.994v0Zm16.486,0v0Zm-2.214-.817h0Zm-12.06,0h0ZM78.607,146l3.751,1.553,2.251-4.438a4.221,4.221,0,0,1,4.063-2.292,16.825,16.825,0,0,0,2.377,0,4.228,4.228,0,0,1,4.079,2.278l2.26,4.456L101.138,146l-1.549-4.74a4.215,4.215,0,0,1,1.263-4.5,16.548,16.548,0,0,0,1.679-1.67,4.225,4.225,0,0,1,4.509-1.26l4.726,1.544,1.555-3.754-4.44-2.253a4.215,4.215,0,0,1-2.29-4.081,16.6,16.6,0,0,0,0-2.361,4.215,4.215,0,0,1,2.292-4.081l4.445-2.253-1.553-3.754-4.74,1.549a4.23,4.23,0,0,1-4.5-1.265,17.3,17.3,0,0,0-1.67-1.681,4.214,4.214,0,0,1-1.258-4.5l1.544-4.73-3.751-1.553-2.253,4.44a4.226,4.226,0,0,1-4.063,2.292,16.824,16.824,0,0,0-2.377,0,4.208,4.208,0,0,1-4.081-2.294l-2.258-4.445L78.609,102.2l1.549,4.742a4.214,4.214,0,0,1-1.263,4.5,16.3,16.3,0,0,0-1.679,1.67,4.228,4.228,0,0,1-4.493,1.265l-4.742-1.551-1.553,3.754,4.442,2.253a4.215,4.215,0,0,1,2.29,4.081,16.6,16.6,0,0,0,0,2.361,4.211,4.211,0,0,1-2.292,4.081l-4.445,2.253,1.555,3.754,4.742-1.549a4.212,4.212,0,0,1,4.5,1.265,16.8,16.8,0,0,0,1.672,1.679,4.215,4.215,0,0,1,1.256,4.5l-1.544,4.726Zm-.5,1.528Zm24.519-2.146h0Zm-25.515,0h0Zm-2.125-4.127a.007.007,0,0,1,0,0A.007.007,0,0,1,74.988,141.251Zm30.2-1.775a.011.011,0,0,1,.007,0h-.007Zm-30.611-.007h0Zm-.075-.055s0,.007,0,.009v-.009Zm40.262-7.071h0Zm-49.764,0h0Zm47.531-6.643v0Zm-45.3-3.2v0Zm46.717-4.415Zm-48.129-.014v0Zm8.688-9.273v0ZM89.921,102.4v0Zm-11.813-1.734v0Zm3.525-1.45a.008.008,0,0,0,0,.007Zm16.49-.007v0Z" transform="translate(0 0)" fill="currentColor"/>
        <path id="Path_1360" data-name="Path 1360" d="M297.233,322.789a4.766,4.766,0,0,1-4.246-2.594l-3.914-7.716c-.961.046-1.926.048-2.882.007l-3.912,7.711a4.76,4.76,0,0,1-6.048,2.233l-9.633-3.989a4.767,4.767,0,0,1-2.695-5.847l2.69-8.223c-.7-.641-1.379-1.324-2.034-2.043l-8.226,2.69a4.774,4.774,0,0,1-5.851-2.685l-3.994-9.646a4.762,4.762,0,0,1,2.237-6.041l7.716-3.916c-.046-.961-.048-1.926-.007-2.882l-7.711-3.909a4.766,4.766,0,0,1-2.239-6.039l3.994-9.639a4.766,4.766,0,0,1,5.858-2.692l8.217,2.685c.641-.7,1.324-1.384,2.043-2.034l-2.69-8.223a4.773,4.773,0,0,1,2.692-5.856l9.637-3.992a4.765,4.765,0,0,1,6.041,2.235l3.916,7.718c.972-.046,1.935-.048,2.882-.007l3.909-7.711a4.767,4.767,0,0,1,6.039-2.237l9.639,3.994a4.76,4.76,0,0,1,2.692,5.854l-2.685,8.219c.7.638,1.382,1.322,2.034,2.043l8.221-2.69a4.757,4.757,0,0,1,5.856,2.7l3.989,9.633v0a4.763,4.763,0,0,1-2.242,6.041l-7.711,3.912c.046.972.048,1.937.007,2.882l7.709,3.912a4.761,4.761,0,0,1,2.237,6.041l-3.992,9.637a4.768,4.768,0,0,1-5.849,2.695l-8.224-2.69q-.971,1.06-2.043,2.034l2.688,8.223a4.756,4.756,0,0,1-2.7,5.854l-9.633,3.989a4.7,4.7,0,0,1-1.8.359Zm-27.324-9.418,7.572,3.136,3.765-7.421a4.761,4.761,0,0,1,4.6-2.58,25.147,25.147,0,0,0,3.571-.007,4.767,4.767,0,0,1,4.609,2.58l3.767,7.427,7.572-3.136-2.589-7.917a4.766,4.766,0,0,1,1.432-5.078,25.58,25.58,0,0,0,2.532-2.521,4.76,4.76,0,0,1,5.076-1.423l7.906,2.585,3.136-7.574-7.418-3.765a4.76,4.76,0,0,1-2.58-4.6,24.858,24.858,0,0,0-.009-3.573,4.75,4.75,0,0,1,2.583-4.6l7.425-3.767-3.136-7.572-7.917,2.589a4.769,4.769,0,0,1-5.08-1.432,25.073,25.073,0,0,0-2.521-2.53,4.772,4.772,0,0,1-1.425-5.078l2.583-7.905-7.574-3.136-3.763,7.418a4.763,4.763,0,0,1-4.6,2.58,25.188,25.188,0,0,0-3.573.009,4.745,4.745,0,0,1-4.6-2.58l-3.77-7.425-7.574,3.136,2.589,7.917a4.754,4.754,0,0,1-1.43,5.078,24.867,24.867,0,0,0-2.532,2.521,4.759,4.759,0,0,1-5.078,1.425l-7.905-2.583-3.136,7.572,7.423,3.763a4.764,4.764,0,0,1,2.58,4.6,25.074,25.074,0,0,0,.007,3.566,4.762,4.762,0,0,1-2.58,4.609l-7.427,3.77,3.136,7.574,7.919-2.589a4.754,4.754,0,0,1,5.078,1.43,24.85,24.85,0,0,0,2.519,2.532,4.76,4.76,0,0,1,1.427,5.081l-2.585,7.9Zm53.941-21.425h0Zm-5.071-12.876v0Zm5.071-8.443h0Zm-4.559-8.1v0h0Zm-33.864-12.391h0Z" transform="translate(-143.556 -112.271)" fill="currentColor"/>
        <path id="Path_1361" data-name="Path 1361" d="M156.59,195.5a10.084,10.084,0,1,1,9.3-13.942h0a10.088,10.088,0,0,1-9.305,13.942Zm-.018-14.219a4.137,4.137,0,1,0,3.827,2.555h0a4.141,4.141,0,0,0-3.827-2.553Z" transform="translate(-66.706 -62.556)" fill="currentColor"/>
        <path id="Path_1362" data-name="Path 1362" d="M374.623,383.926a15.708,15.708,0,1,1,14.489-21.717h0a15.709,15.709,0,0,1-14.491,21.72Zm-.021-25.476a9.765,9.765,0,1,0,9.015,6.032h0a9.781,9.781,0,0,0-9.015-6.03Z" transform="translate(-230.523 -199.2)" fill="currentColor"/>
    </g>
</svg>
