<svg xmlns="http://www.w3.org/2000/svg" width="101.303" height="101.303" viewBox="0 0 101.303 101.303">
    <path d="M131.1,84.74a50.651,50.651,0,1,0,50.651,50.651A50.652,50.652,0,0,0,131.1,84.74ZM99.123,137.784a32.263,32.263,0,0,1,20.934-32.7,3.5,3.5,0,0,1,3.244-5.677l.143.026a3.43,3.43,0,0,1,.742.239l8.334,3.694a3.5,3.5,0,0,1,1.994,3.92l-.009.042a3.529,3.529,0,0,1-.353.928l-.009.015-1.343-.746h0l1.336.759-.011.02c-.028.05-.059.1-.09.143-.013.022-.028.042-.04.062l-.033.048c-.018.024-.035.05-.053.074s-.035.05-.053.072l-.057.07c-.022.026-.044.051-.068.077l-.044.061-.085.079c-.037.039-.074.075-.112.112l-.088.079-6.654,6.167a3.492,3.492,0,0,1-5.859-2.709,3.83,3.83,0,0,1,.037-.384,25.284,25.284,0,0,0-14.834,25A3.5,3.5,0,0,1,102.883,141c-.1.007-.193.011-.287.011a3.493,3.493,0,0,1-3.473-3.223Zm54.31,20.9a32.24,32.24,0,0,1-44.414-.077,3.485,3.485,0,0,1-3.256,2.31h-.039a3.495,3.495,0,0,1-3.49-3.462l-.09-9.034-.022-.2.026-.1a3.572,3.572,0,0,1,.05-.419c.011-.064.024-.127.039-.189a3.515,3.515,0,0,1,.18-.562l.015-.037c.037-.085.079-.167.123-.25s.1-.187.162-.272a3.553,3.553,0,0,1,.366-.467c.028-.029.057-.061.086-.09l.018-.018a3.439,3.439,0,0,1,.572-.456s.006,0,.007-.006l.051-.035c.048-.031.1-.062.145-.092l.1-.061.108-.044c.039-.017.079-.031.118-.046.07-.029.143-.057.217-.081a3.435,3.435,0,0,1,.6-.145c.029-.005.059-.009.09-.013l.026,0a3.558,3.558,0,0,1,.8,0c.066,0,.132.011.2.02l.134.017.129.04c.02.006.04.013.061.02l.042.013c.048.015.1.029.143.048a3.365,3.365,0,0,1,.379.147l8.323,3.471a3.493,3.493,0,0,1,.081,6.41,25.259,25.259,0,0,0,33.116-1.4,3.492,3.492,0,1,1,4.8,5.07Zm13.349-14.729-7.1,5.778a3.644,3.644,0,0,1-.469.312l-.011.007-.1.053a3.5,3.5,0,0,1-1.307.377l-.035.007-.154.006-.116,0a3.493,3.493,0,0,1-3.354-2.52l-2.507-8.821a3.494,3.494,0,0,1,2.395-4.317,3.521,3.521,0,0,1,2.479.217,25.221,25.221,0,0,0-16.642-23.488,3.522,3.522,0,0,1-1.977-1.8,3.488,3.488,0,0,1,3.084-4.973l.061-.029.463.059a3.329,3.329,0,0,1,.463.092H142l.254.092a32.238,32.238,0,0,1,21.128,32.96,3.491,3.491,0,0,1,3.4,5.987Z" transform="translate(-80.45 -84.74)" fill="currentColor"/>
</svg>
