<svg xmlns="http://www.w3.org/2000/svg" width="47.512" height="47.51" viewBox="0 0 47.512 47.51">
    <path id="fiberlean_facebook" d="M98.962,75.231A23.754,23.754,0,1,1,75.23,98.981a23.74,23.74,0,0,1,23.732-23.75Zm6.31,23.659c.181-1.745.354-3.421.536-5.177h-4.656c0-.942,0-1.81,0-2.677a4.54,4.54,0,0,1,.049-.744,1.132,1.132,0,0,1,1.214-1.035c.73-.016,1.459-.005,2.189-.006h1.09V84.284c-1.946,0-3.87-.106-5.776.032a4.857,4.857,0,0,0-3.951,2.5,7.093,7.093,0,0,0-.916,3.629c-.01,1.066,0,2.132,0,3.266H92.2v5.2h2.859V113.52h6.111V98.891h4.107Z" transform="translate(-75.23 -75.23)" fill="currentColor"/>
</svg>
