<svg xmlns="http://www.w3.org/2000/svg" width="112" height="107.774" viewBox="0 0 112 107.774">
    <path d="M170.757,87.474a2.893,2.893,0,0,0-1.238.243L155.458,93.87a2.89,2.89,0,1,0,2.307,5.3l6.628-2.885c-24.452,55.688-70.7,62.382-70.7,62.382a2.9,2.9,0,0,0,.86,5.728s49.6-7.809,75.119-65.747l1.753,7.342a2.9,2.9,0,0,0,5.644-1.348L173.492,89.7a2.9,2.9,0,0,0-2.738-2.228h0Zm5.735,27.371a2.9,2.9,0,0,0-2.89,2.906v71.7h-4.231V140.925a2.9,2.9,0,0,0-2.885-2.906H152.91a2.9,2.9,0,0,0-2.885,2.906v48.523h-4.237V164.076a2.9,2.9,0,0,0-2.885-2.885H129.327a2.9,2.9,0,0,0-2.885,2.885v25.373H122.2V176.027a2.9,2.9,0,0,0-2.885-2.885H105.743a2.9,2.9,0,0,0-2.885,2.885v13.421h-7.4a2.9,2.9,0,0,0,0,5.8H200.341a2.9,2.9,0,0,0,0-5.8h-7.4v-71.7a2.9,2.9,0,0,0-2.885-2.906H176.481Zm2.906,5.792h7.76v68.811H179.4V120.637Zm-23.581,23.174h7.76v45.64h-7.76Zm-23.581,23.174H140V189.45h-7.76Zm-23.581,11.951h7.76V189.45h-7.76Z" transform="translate(-91.227 -87.47)" fill="currentColor" fill-rule="evenodd"/>
</svg>
