<svg xmlns="http://www.w3.org/2000/svg" width="148.334" height="118.741" viewBox="0 0 148.334 118.741">
    <g id="fiberlean_reduced_raw_materials" transform="translate(-100.96 -122.44)">
        <path id="Path_1354" data-name="Path 1354" d="M246.574,331.413c-6.3-5.776-21.049-3.032-36.7,6.831a3.334,3.334,0,0,0-.962,4.967,4.293,4.293,0,0,0,5.554.861c8.5-5.359,14.845-7.352,18.667-8.081,4.779-.91,7.148-.134,7.734.4a1.1,1.1,0,0,1,.454,1.05c-.141,1.669-2.409,6.862-20.378,19.006-20.9,14.123-31.192,17.706-36.145,18.224-7.09.74-13.288.058-22.1-2.432-3.117-.88-6.051-1.768-8.724-2.64a.135.135,0,0,1-.031-.011c-.08-.027-.159-.055-.242-.08l-.123-.041-.046-.016-.061-.019c-.245-.079-.493-.162-.736-.244l-.1-.033c-6.618-2.067-14.462-2.251-21.72-1.966l-3.684-22.654c2.587-.973,5.284-2.083,8.175-3.375,4.822-2.149,10.652-4.361,17.346-4.444,3.783-.052,7.491,1.582,11.792,3.468,4.371,1.916,9.321,4.09,15.112,4.611,5.214.469,17.781,2.064,21.821,6.711a3.254,3.254,0,0,1,.944,2.8,2.042,2.042,0,0,1-.9,1.6c-1.189.757-4.346,1.368-12.638-.022-1.864-.312-3.663-.633-5.4-.943-8.736-1.56-16.283-2.906-26.79-2.294a3.727,3.727,0,0,0-3.718,3.788,3.86,3.86,0,0,0,4.236,3.325c9.459-.551,16.528.713,24.712,2.174,1.763.315,3.586.639,5.5.959a59.229,59.229,0,0,0,9.616.951c3.963,0,6.866-.7,9.11-2.13a8.987,8.987,0,0,0,4.16-6.354,9.812,9.812,0,0,0-2.535-8.224c-4.362-5.014-13.551-8.186-27.314-9.427-4.365-.392-8.267-2.105-12.4-3.917-4.782-2.1-9.729-4.271-15.412-4.2-8.344.1-15.495,2.829-20.791,5.192-2.461,1.1-4.766,2.056-6.973,2.9a9.85,9.85,0,0,0-8.653-3.106l-7.3.951a9.5,9.5,0,0,0-6.112,3.254,7.618,7.618,0,0,0-1.747,6.165l4.868,29.911a8.163,8.163,0,0,0,3.638,5.466,9.957,9.957,0,0,0,5.536,1.653,10.709,10.709,0,0,0,1.355-.088l7.3-.951a9.486,9.486,0,0,0,6.112-3.257,7.879,7.879,0,0,0,1.677-3.385c6.366-.238,13.085-.079,18.413,1.574l.769.255.04.014.2.066c.049.016.1.03.144.047.083.03.169.058.251.082,2.75.894,5.757,1.8,8.935,2.7a69.2,69.2,0,0,0,19.289,3.043,58.954,58.954,0,0,0,6.134-.329c8.757-.916,21.852-7.333,40.026-19.617,15.755-10.647,23.011-18.1,23.52-24.157a7.8,7.8,0,0,0-2.7-6.563ZM122.616,373.884h0l-7.3.951a1.421,1.421,0,0,1-.981-.222,1.163,1.163,0,0,1-.518-.779l-4.868-29.913a1.094,1.094,0,0,1,.248-.877,1.359,1.359,0,0,1,.871-.463l7.3-.951a1.5,1.5,0,0,1,.19-.011,1.286,1.286,0,0,1,1.306,1.012l4.868,29.913A1.21,1.21,0,0,1,122.616,373.884Z" transform="translate(0 -140.902)" fill="currentColor"/>
        <path id="Path_1355" data-name="Path 1355" d="M139.685,389.184a3.564,3.564,0,0,0-7.053,1.028l.1.669a3.563,3.563,0,0,0,3.523,3.048,3.321,3.321,0,0,0,.518-.038,3.568,3.568,0,0,0,3.013-4.041l-.1-.669Z" transform="translate(-22.962 -185.324)" fill="currentColor"/>
        <path id="Path_1356" data-name="Path 1356" d="M217.242,148.792c.332.844.674,1.716,1.039,2.577,1.689,4,3.926,8.586,7.717,12.33a20.357,20.357,0,0,0,13.953,6.083c.332,0,.661-.011.987-.03a14.372,14.372,0,0,0,8.621-3.476,20.627,20.627,0,0,1,5.05,10.384,40.125,40.125,0,0,0-.052,5.11,3.56,3.56,0,0,0,3.276,3.3c.1.008.189.011.282.011a3.565,3.565,0,0,0,3.47-2.758,18.167,18.167,0,0,0,.189-5.683,49.9,49.9,0,0,1,1.261-7.917,44.544,44.544,0,0,1,3.4-9.389,14.219,14.219,0,0,0,6,1.321,15.288,15.288,0,0,0,2.379-.189,20.08,20.08,0,0,0,13.276-9.148c2.892-4.482,4.082-9.447,4.863-13.715.167-.918.315-1.845.455-2.741a31.134,31.134,0,0,1,1.776-7.443,3.564,3.564,0,0,0-3.248-4.981h-.293a48.225,48.225,0,0,0-20.842,4.553c-6.226,3.051-10.664,7.695-12.495,13.076a15.562,15.562,0,0,0,2.421,14.762,49.956,49.956,0,0,0-3.843,9.271,33.613,33.613,0,0,0-3.048-3.7,15.609,15.609,0,0,0-1.2-14.145c-2.952-4.855-8.293-8.427-15.031-10.058a48.258,48.258,0,0,0-21.621.137,3.565,3.565,0,0,0-2.094,5.568,31.245,31.245,0,0,1,3.347,6.881Zm47.809-6.42c1.639-4.822,6.269-7.689,8.882-8.972a39.122,39.122,0,0,1,13.12-3.594c-.277,1.327-.485,2.651-.691,3.956-.14.891-.274,1.735-.425,2.563-.655,3.577-1.626,7.7-3.841,11.133a13.064,13.064,0,0,1-8.394,5.971,7.4,7.4,0,0,1-3.44-.241,36.589,36.589,0,0,1,6.209-6.352,3.563,3.563,0,1,0-4.452-5.565,43.764,43.764,0,0,0-6.93,6.946,8.725,8.725,0,0,1-.038-5.847Zm-29.118.765c2.829.685,7.969,2.481,10.614,6.831a8.765,8.765,0,0,1,1.277,5.241,59.92,59.92,0,0,0-10.4-5.927,3.564,3.564,0,0,0-2.925,6.5,51.661,51.661,0,0,1,9.743,5.606,7.385,7.385,0,0,1-3.745,1.256,13.082,13.082,0,0,1-9.49-4.011c-2.906-2.87-4.745-6.683-6.16-10.033-.329-.779-.639-1.571-.97-2.412-.482-1.228-.973-2.475-1.53-3.712a39.193,39.193,0,0,1,13.589.663Z" transform="translate(-65.808 0)" fill="currentColor"/>
    </g>
</svg>
