<svg xmlns="http://www.w3.org/2000/svg" width="94.756" height="116.924" viewBox="0 0 94.756 116.924">
    <path d="M242.267,117.1a6.885,6.885,0,0,0-4.715-1.861c-.174,0-.336,0-.493.019l-7.851.547c-.153.012-.315.016-.5.016-6.355,0-16.842-6.669-21.961-11.2l-4.929-4.649a6.912,6.912,0,0,0-9.484,0l-4.837,4.567a63.108,63.108,0,0,1-10.576,7.37c-4.567,2.521-8.643,3.907-11.476,3.907-.176,0-.338,0-.5-.016l-7.846-.545c-.157-.012-.319-.019-.493-.019a6.916,6.916,0,0,0-6.914,6.918v43.468c0,11.22,4.738,21.427,12.674,27.3,5.953,4.41,22.059,15.1,26.854,18.272l4.043,2.671a6.9,6.9,0,0,0,7.612,0l4.081-2.7c2.065-1.365,20.365-13.468,26.821-18.246,7.933-5.878,12.672-16.083,12.672-27.3v-43.47a6.936,6.936,0,0,0-2.2-5.058Zm-3.911,48.528c0,9.294-3.813,17.664-10.2,22.4-6.326,4.684-24.5,16.7-26.553,18.059l-4.081,2.695a.793.793,0,0,1-.879,0L192.6,206.1c-4.762-3.15-20.755-13.766-26.589-18.087-6.388-4.729-10.2-13.1-10.2-22.4V122.153a.822.822,0,0,1,.261-.6.792.792,0,0,1,.545-.214h.059l7.853.547c.3.021.6.031.926.031,3.961,0,8.814-1.569,14.427-4.668a68.713,68.713,0,0,0,11.713-8.178l.07-.063,4.87-4.6a.8.8,0,0,1,.552-.221.784.784,0,0,1,.55.218l4.962,4.68c.024.021.047.042.068.063,4,3.55,16.487,12.766,26.048,12.766.327,0,.63-.009.926-.031l7.858-.547h.056a.805.805,0,0,1,.8.81v43.468Z" transform="translate(-149.7 -98.09)" fill="currentColor"/>
    <path d="M258.726,234.03h-.244a41.336,41.336,0,0,0-17.878,3.907c-5.337,2.617-9.141,6.6-10.708,11.211a13.356,13.356,0,0,0,1.905,12.437,44.415,44.415,0,0,0-4.163,9.745,33.969,33.969,0,0,0-2.866-4.177,13.249,13.249,0,0,0-.909-12.378c-2.54-4.146-7.13-7.2-12.923-8.584a41.819,41.819,0,0,0-18.587.115,3.054,3.054,0,0,0-1.79,4.781,26.4,26.4,0,0,1,2.883,5.88c.284.716.578,1.459.888,2.187a32.058,32.058,0,0,0,6.644,10.536,17.546,17.546,0,0,0,11.988,5.189c.287,0,.571-.009.855-.026a12.394,12.394,0,0,0,7.1-2.718,27.485,27.485,0,0,1,4.816,11.913,35.108,35.108,0,0,0,.265,5.258,3.054,3.054,0,0,0,3.019,2.6h.075a3.055,3.055,0,0,0,2.965-2.746,25.639,25.639,0,0,0-.2-5.457,42.347,42.347,0,0,1,1.057-8.4,38.765,38.765,0,0,1,3.658-9.785,12.2,12.2,0,0,0,5.441,1.276,13.155,13.155,0,0,0,2.041-.162,17.206,17.206,0,0,0,11.38-7.844,32.275,32.275,0,0,0,4.17-11.758c.143-.78.265-1.569.385-2.333a26.747,26.747,0,0,1,1.527-6.4,3.052,3.052,0,0,0-2.786-4.266Zm-45.288,34.726a11.313,11.313,0,0,1-8.187-3.43,26.015,26.015,0,0,1-5.3-8.563c-.282-.66-.547-1.334-.832-2.049-.413-1.045-.834-2.107-1.311-3.157a33.91,33.91,0,0,1,11.7.569c2.436.585,6.864,2.119,9.139,5.835a7.454,7.454,0,0,1,1.137,4.1,43.365,43.365,0,0,0-10.175-6.3,3.054,3.054,0,1,0-2.507,5.57,36.791,36.791,0,0,1,9.726,6.228,6.378,6.378,0,0,1-3.4,1.191Zm40.512-25.008c-.12.759-.233,1.475-.362,2.182a26.236,26.236,0,0,1-3.3,9.545,11.2,11.2,0,0,1-7.2,5.121,6.343,6.343,0,0,1-3.122-.263,38.934,38.934,0,0,1,8.652-8.011,3.054,3.054,0,0,0-3.451-5.039,44.966,44.966,0,0,0-9.517,8.706,7.494,7.494,0,0,1,.019-4.877c1.4-4.132,5.373-6.594,7.614-7.691a33.526,33.526,0,0,1,11.253-3.082c-.24,1.144-.418,2.286-.594,3.411Z" transform="translate(-180.514 -202.095)" fill="currentColor"/>
</svg>
