<svg xmlns="http://www.w3.org/2000/svg" width="47.816" height="47.805" viewBox="0 0 47.816 47.805">
    <path id="fiberlean_linkedin" d="M97.1,73.512h.654c.113.019.227.047.341.055.682.05,1.365.086,2.046.146a19.122,19.122,0,0,1,2.822.486,23.864,23.864,0,0,1,18.3,22.139c.038.83,0,1.664-.027,2.5a20.218,20.218,0,0,1-.375,3.1,23.285,23.285,0,0,1-1.791,5.557,23.969,23.969,0,0,1-13.728,12.469,23.482,23.482,0,0,1-6.463,1.3,18.193,18.193,0,0,1-2.215.031c-.807-.049-1.614-.077-2.413-.2-.743-.118-1.49-.228-2.222-.4a23.248,23.248,0,0,1-6.243-2.408,23.924,23.924,0,0,1-11.678-15.651,22.8,22.8,0,0,1-.431-2.62c-.061-.587-.074-1.179-.119-1.768a3.27,3.27,0,0,0-.093-.45v-.7c.032-.174.08-.347.094-.522.054-.65.085-1.3.15-1.952a21.377,21.377,0,0,1,.69-3.565A23.937,23.937,0,0,1,91.3,74.341a22.864,22.864,0,0,1,3.618-.662c.618-.063,1.242-.075,1.862-.115a3.133,3.133,0,0,0,.318-.054Zm15.623,37.883v-.329q0-5.943,0-11.887c0-.435-.02-.871-.05-1.3a8.386,8.386,0,0,0-.575-2.537,6.057,6.057,0,0,0-3.1-3.371,7.256,7.256,0,0,0-2.3-.637,8.086,8.086,0,0,0-2.39.049,6.775,6.775,0,0,0-4.356,2.733c-.048.066-.1.131-.178.237v-2.1c0-.062,0-.124,0-.187-.01-.176-.033-.2-.209-.206-.039,0-.078,0-.117,0H94.237c-.062,0-.124,0-.187,0a.129.129,0,0,0-.142.146c0,.047,0,.093,0,.14v18.986c0,.083.01.166.015.242.206.051,5.572.058,5.83.007.007-.105.021-.22.021-.333q0-3.339,0-6.679c0-1.222-.005-2.444.012-3.667a4.973,4.973,0,0,1,.369-1.819,3.086,3.086,0,0,1,2.133-1.928,4.434,4.434,0,0,1,1.482-.115,2.68,2.68,0,0,1,2.061,1.076,3.585,3.585,0,0,1,.551,1.127,6.885,6.885,0,0,1,.273,2.027c.008,3.332,0,6.663,0,10,0,.106.01.213.016.333h6.051Zm-22.625.016c.006-.136.015-.234.015-.334V92.193a.3.3,0,0,0-.348-.341H84.352c-.047,0-.093,0-.14,0-.176.01-.195.029-.2.209,0,.039,0,.078,0,.117v18.908c0,.323,0,.324.318.324H90.1ZM87.029,82.123A3.627,3.627,0,1,0,90.642,85.7,3.637,3.637,0,0,0,87.029,82.123Z" transform="translate(-73.47 -73.51)" fill="currentColor"/>
</svg>
