<svg xmlns="http://www.w3.org/2000/svg" width="36" height="36" viewBox="0 0 36 36">
    <g transform="translate(-58.8 -758)">
        <path d="M35.4,3H6.6A3.611,3.611,0,0,0,3,6.6V39l7.2-7.2H35.4A3.611,3.611,0,0,0,39,28.2V6.6A3.611,3.611,0,0,0,35.4,3Zm0,25.2H10.2L6.6,31.8V6.6H35.4Z" transform="translate(55.8 755)" fill="currentColor"/>
        <path d="M3.806.352A1.944,1.944,0,0,0,6.028-1.672c0-1.254-.836-1.958-2.222-1.958-1.342,0-2.2.7-2.2,1.958A1.947,1.947,0,0,0,3.806.352Zm6.446,0a1.944,1.944,0,0,0,2.222-2.024c0-1.254-.836-1.958-2.222-1.958-1.342,0-2.2.7-2.2,1.958A1.947,1.947,0,0,0,10.252.352Zm6.446,0a1.937,1.937,0,0,0,2.2-2.024c0-1.254-.836-1.958-2.2-1.958-1.342,0-2.2.7-2.2,1.958A1.947,1.947,0,0,0,16.7.352Z" transform="translate(66 774)" fill="curentColor"/>
    </g>
</svg>
