<svg xmlns="http://www.w3.org/2000/svg" width="101.592" height="119" viewBox="0 0 101.592 119">
    <g id="fiberlean_reduce_cost" transform="translate(-125.086 -92.063)">
        <path id="Path_1357" data-name="Path 1357" d="M224.445,164.817l-1.75-4.685-.014-.034A95.8,95.8,0,0,0,193.5,121a7.518,7.518,0,0,0-2.657-7.408L194.2,99.969a5.152,5.152,0,0,0-6.539-6.143l-7.852,2.508-.1.034a7.723,7.723,0,0,1-2.875.507c-3.244,0-6.942-1.564-10.222-2.952-1.455-.618-2.665-1.125-3.789-1.511l-.068-.031-.08-.019a5.173,5.173,0,0,0-6.693,6.365l4.7,15.027a7.613,7.613,0,0,0-2.3,3.546,7.72,7.72,0,0,0-.075,4.2,80.233,80.233,0,0,0-14.072,13.83,114.117,114.117,0,0,0-16.927,29.55,32.392,32.392,0,0,0,3.717,30.516,35.1,35.1,0,0,0,29,15.66h32.985c.188,0,.367,0,.545,0A32.411,32.411,0,0,0,220.5,196.916a34.809,34.809,0,0,0,5.87-15.117,35.231,35.231,0,0,0-1.921-16.975Zm-38.491-43.446h-20.2a1.826,1.826,0,1,1,0-3.652h20.176a1.828,1.828,0,0,1,.027,3.654Zm30.477,73.064.2.14v0l-.2-.145Zm-.854-.587h0a27.335,27.335,0,0,1-22.121,11.318c-.147,0-.29,0-.461,0H160.039a29.207,29.207,0,0,1-24.117-13.06l-.027-.039a26.458,26.458,0,0,1-3.106-25.008,108.39,108.39,0,0,1,16-27.994A73.9,73.9,0,0,1,161.859,126.2a7.608,7.608,0,0,0,3.891,1.062h20.207a7.668,7.668,0,0,0,4.275-1.332,89.6,89.6,0,0,1,28.65,40.825l.014.039a29.492,29.492,0,0,1-3.316,27.055Zm-51.925-94.76.224.092c4.067,1.687,8.677,3.6,13.1,3.6a12.4,12.4,0,0,0,4.62-.83l6.536-1.96-2.918,11.839h-3.758l3.188-4.646a2.945,2.945,0,0,0-2.957-4.576,2.921,2.921,0,0,0-1.892,1.233l-4.357,6.343-2.836-5.95a2.942,2.942,0,0,0-3.922-1.385,2.946,2.946,0,0,0-1.4,3.925l2.406,5.042c-1.093,0-2.575.007-3.413.014l-4.026-13.314q.681.275,1.4.572Z" transform="translate(0 0)" fill="currentColor"/>
        <path id="Path_1358" data-name="Path 1358" d="M292.86,292.626A6.919,6.919,0,0,1,292.5,278.8l.183-.014h.154a6.931,6.931,0,0,1,6.92,6.922,3.308,3.308,0,0,0,6.616,0A13.539,13.539,0,0,0,296.145,272.6v-4.786a3.308,3.308,0,0,0-6.616.01V272.6a13.528,13.528,0,0,0,3.3,26.647,6.921,6.921,0,1,1-6.915,6.92,3.308,3.308,0,1,0-6.616,0,13.541,13.541,0,0,0,10.227,13.106v4.786a3.308,3.308,0,0,0,6.616-.01v-4.777a13.527,13.527,0,0,0-3.285-26.644Z" transform="translate(-116.989 -130.862)" fill="currentColor"/>
    </g>
</svg>
