<svg xmlns="http://www.w3.org/2000/svg" xmlns:xlink="http://www.w3.org/1999/xlink" width="1400" height="40" viewBox="0 0 1400 40">
    <defs>
        <clipPath id="clip-path">
            <rect id="Rectangle_263" data-name="Rectangle 263" width="1400" height="40" transform="translate(-15647 -837)" fill="#fff" stroke="#707070" stroke-width="1"/>
        </clipPath>
    </defs>
    <g id="Texture" transform="translate(15647 837)" clip-path="url(#clip-path)">
        <g id="Group_232" data-name="Group 232" transform="translate(-14252.125 -1423.236) rotate(90)">
            <g id="Layer_1" data-name="Layer 1" transform="translate(-9.782 -5.89)">
                <rect id="Rectangle_262" data-name="Rectangle 262" width="1000.237" height="1400.765" fill="#215860"/>
            </g>
            <g id="Layer_2" data-name="Layer 2" transform="translate(-9.782 -8.997)">
                <g id="Group_227" data-name="Group 227" transform="translate(0 0.177)">
                    <path id="Path_1390" data-name="Path 1390" d="M235.342,201.911,343.294,359.594s-96.11-31.382-115.995-37.818-62.1-15.155-77.1-30.723a50.733,50.733,0,0,0-34.008-15.4L95.109,321.278l47.914-.42c28.086-.244,39.7,5.438,63.71,11.011s100.212,28.041,121.755,35.29,8.369,12.32,8.369,12.32l-10.43,35.616-29.5,27.52s-13.239-2.363-37.017,18.5-111.8,63.766-130.738,71.368S30.29,562.258,30.29,562.258l-2.842,52.9S41.592,626.6,59.949,647.1s62.039,103.556,79.625,130.668,30.28,61.7,30.28,61.7,1.673,2.464,9.123,4.051,29.452-33.3,29.452-33.3,5.56-25.659,11.19-43.059S256.123,690,256.123,690l.625-23.137s19.689-15.869,41.915-25.152,25.56-6.008,25.56-6.008l2.271,71.031,28.147,6.364s-8.491-26.363-13.889-76.713S331.6,534.844,330.614,515.851s6.994-50.458,6.994-50.458L448.98,447.071l-2.607-14.847-126.358,5.233,14.553-36.478,17.219-15.021,25.559-6.006s40.328-17.7,61.721-27.8,50.29-12.005,50.29-12.005l-4.339-23.921s-5.044-9.868-10.762-2.384-35.321,23.441-54.234,33.521-63.544,7.99-63.544,7.99l-100.5-156.095Zm-9.559,513.963c-4.806,17.391-23.374,67.124-37.325,77.985s-27.427-18.762-58.375-62.28-81.235-125.7-81.235-125.7l168.2,55.538,15.847,17.212A287.689,287.689,0,0,1,225.783,715.874Zm99.7-124.8c.122,14.045,1.846,22.29-1.437,24.8s-85.584,38.751-85.584,38.751l-75.32-15.868L50.42,596.782l4.017-13.254s55.914-30.23,97.082-46.286,92.086-51.2,110.275-49.706,41.412,12.03,47.31,25.2S325.361,577.032,325.487,591.077Z" transform="translate(33.149 139.644)" fill="#032f33"/>
                    <path id="Path_1391" data-name="Path 1391" d="M306.684-8.5,303.966.47S248.052,30.7,206.883,46.757,114.8,97.957,96.609,96.463,55.2,84.433,49.3,71.264,33.041,6.966,32.917-7.079q-.007-.759-.02-1.5L21.922-8.962C25,25.07,27.087,54.69,27.79,68.147c.993,18.994-7,50.458-7,50.458l-29.462,4.847.026,25.036,47.029-1.947L23.835,183.019,6.616,198.042-8.6,201.618l-.335,26.856c6.533-.024,10.863.177,10.863.177l100.5,156.095,20.632-2.658L15.109,224.4s96.108,31.382,115.993,37.818,62.1,15.155,77.1,30.722a50.734,50.734,0,0,0,34.006,15.4l21.081-45.626s-19.825.174-47.913.418-39.7-5.436-63.712-11.009S51.457,224.089,29.914,216.839s-8.369-12.32-8.369-12.32L31.974,168.9l29.5-27.522s13.238,2.363,37.016-18.5S210.3,59.119,229.23,51.517,328.112,21.74,328.112,21.74l1.606-29.891Z" transform="translate(10.313 8.962)" fill="#032f33"/>
                    <g id="Group_226" data-name="Group 226" transform="translate(0 457.282)">
                        <path id="Path_1392" data-name="Path 1392" d="M20.649,346.445l-30.431,1.26v19.022l33.039-5.435Z" transform="translate(9.782 -225.256)" fill="#032f33"/>
                        <path id="Path_1393" data-name="Path 1393" d="M-9.782,455.036V497.9l7.291-37.482Z" transform="translate(9.782 -157.101)" fill="#032f33"/>
                        <path id="Path_1394" data-name="Path 1394" d="M75.813,612.137c-9.307,1.447-41.719-7.516-62.348-13.327-7.1-2-15.409-7.153-23.247-13.049v17.925c11.6,4.144,24.294,8.618,33.681,11.76,22.432,7.51,44.615,26.132,44.615,26.132L81.933,621.3S85.12,610.69,75.813,612.137Z" transform="translate(9.782 -75.054)" fill="#032f33"/>
                        <path id="Path_1395" data-name="Path 1395" d="M59.293,277.175s-5.042-9.868-10.76-2.384S13.212,298.232-5.7,308.31a37.722,37.722,0,0,1-4.08,1.843v13.57c8.348-3.768,16.613-7.547,23.124-10.62C34.732,303,63.632,301.1,63.632,301.1Z" transform="translate(9.782 -271.988)" fill="#032f33"/>
                    </g>
                    <path id="Path_1396" data-name="Path 1396" d="M193.953,1015.535c-2.832-3.218-5.866-6.664-9.061-10.292-18.563-21.081-21.866-33.585-33.358-55.387s-44.359-94.132-52.973-115.168S102.4,820.3,102.4,820.3l33.759-15.414,40.116,4.305s6.873,11.558,38.207,15.891,121.374,42.833,139.511,52.178,87.215,55.3,87.215,55.3l41.866-32.463s-.6-18.182,2.889-45.473,37.725-114.672,46.721-145.709,26.848-63.269,26.848-63.269.77-2.878-2.9-9.549-44.457-.483-44.457-.483S489.13,648.2,472.287,655.321s-82.231,22.871-82.231,22.871l-17.906,14.665s-24.885-4.507-46.444-15.243-21.267-15.4-21.267-15.4l52.232-48.191-13.6-25.45s-14.38,23.671-48.927,60.694S223.335,722.622,209.62,735.8s-42.735,27.724-42.735,27.724L80.16,691.282l-9.522,11.686L157.269,795.1l-37.108,12.862-22.627-3.193-21.263-15.4S36.5,770.454,14.861,760.885A123.38,123.38,0,0,1-8.417,746.768v19.779C2.509,770.29,14.352,774.82,23.7,778.422c20,7.712,47.62,42.829,47.62,42.829L19.025,999.385l15.508,13.864L83.153,828.442s39.148,93.216,47.291,112.464c7.534,17.81,26.093,51.35,27.281,73.323ZM441.5,900.378s-59.446-22.507-98.524-43.135S244,821.1,233.234,806.37s-18-39.19-11.9-52.268,37.991-54.363,48.529-63.645,15.65-15.982,19.694-15.138,85.3,39.371,85.3,39.371l37.281,67.342,42.006,112.715Zm62.47-154.073c-12.661,51.878-41.907,143.674-41.907,143.674L394.014,726.442l2.648-23.246a287.535,287.535,0,0,1,32.815-18.988c16.3-7.744,66.056-26.241,83.4-22.8S516.63,694.43,503.967,746.305Z" transform="translate(10.639 383.994)" fill="#032f33"/>
                </g>
                <g id="Group_228" data-name="Group 228" transform="translate(0)">
                    <path id="Path_1397" data-name="Path 1397" d="M293.273-9.071c1,3.709.243,5.575-10.292,5.666-14.042.122-136.169,16.887-136.169,16.887s-7.422,1.716-15.791-10.6a110.9,110.9,0,0,1-7.066-11.844l-24.03.855c-.106,2.367-.233,4.242-.345,5.482-.755,8.268-2.248,26.457-33.606,30.861C41.381,31.686,7.632,33.695-9.782,32.84V92.677C5.365,109.936,27.852,135.76,30.6,140.072c4.19,6.574.972,16.516-1.444,23.973S12.048,191.456-4.461,193.255a25.329,25.329,0,0,1-5.321-.031V241.9c1.48-2.985,2.4-4.834,2.4-4.834a13.8,13.8,0,0,1,16.5-2.624c9.956,4.872,27.383,13.806,30.717,17.084s23.3,18.8,25.817,23.732,3.428,14.014,3.428,14.014S12.917,300.182-9.782,302.747v22.294C-5,319.782,9.824,315.4,9.824,315.4l171.757-9.763s11.568-.1,19.891,7.262,5.088,14.828.993,18.994-21.285,22.492-21.285,22.492-22.08,25.8-65.851,27.839-70.211,1.437-89.315-9.963C9.331,362.309-6.138,347.3-9.782,343.661v21.633c9.273,8.848,18.926,17.94,27.032,25.017-11.958.519-24.743,2.713-26.231,2.726-.256,0-.524-.007-.8-.026v32.623C-6.257,419.492-3.83,415.3-3.83,415.3s22.284-2.674,33.023-2.767,5.819,4.079,12.528,15.588,21.115,52.691,22.891,66.72,1.759,12.378,1.831,20.638-28.6,36.6-34.366,38.3-10.724,1.748-17.377-3.153c-3.1-2.285-13.625-10.257-24.483-19.2v22.58c1.646,1.419,3.224,2.834,4.722,4.227,15.825,14.735,21.716,27.077,19.325,37.009C12.705,601.717-.658,621.616-9.782,634.7V795.408c3.473-6.524,5.856-12.505,5.82-16.594-.047-5.357-.994-15.643-2.041-27.453,28.521,25.3,44.923,42.818,50.38,62.646,5.9,21.446,6.071,46.573,6.071,46.573s-4.959,10.083-11.328,12.027-22.4-6.343-22.4-6.343l-26.5-22.66v23.1c14.766,9.889,30.012,20.4,36.049,25.57,13.2,11.293,20.238,12.251,15.707,17.063s-9.839,3.218-12.705,5.057c-1.839,1.178-23.632,9.194-39.05,14.8v18.413a51.263,51.263,0,0,1,8.924-4.845c7.5-3.146,63.705-19.44,63.705-19.44S80.786,936.815,88.6,944.178s1.377,6.971-1.742,19.924c-1.177,4.888-4.489,13.589-8.61,23.138-2.1-.9-3.792-1.621-4.948-2.127-12.529-5.479-35.256-16.288-50.339-18.417C11.906,965.135-.981,977.615-9.782,990.671v32.785a45.42,45.42,0,0,0,10.088,5.018s17.3,12.705,24.061,20.637c-13.141,1.112-28.287.659-31.418-.962a28.916,28.916,0,0,1-2.731-1.59v42.685c1.7-1.9,2.852-3.192,3.805-4.217,22.935,2.827,25.531,8.555,39.639,15.086,14.224,6.589,13.2,11.294,15.036,14.16s-7.225,12.49-14.658,17.972c-6.118,4.513-24.65,4.248-43.822.814v14.525c13.109,4.395,30.28,9.864,42.257,10.423,11.063.519,22.632-12.88,30.181-26.583.2,14.39-.277,28.591-2.547,33.721-4.785,10.817-16.27,16.527-24.034,18.962-4.78,1.5-28.4,6.235-45.857,9.657v19.724c.036-.032.057-.062.094-.094,4.961-4.367,10.1-2.287,13.124-3.849s55.987-15.173,55.987-15.173A13.8,13.8,0,0,1,72.2,1205.134c2.83,10.716,7.476,29.742,7.178,34.406s1.027,29.918-1.055,35.053-8.356,11.761-8.356,11.761-53.523-42.033-65.608-54.508c-6.665-6.88-11.747-10.449-14.142-13.006v31.346c6.751-.819,21.221,8.451,21.221,8.451L131.2,1382.144a34.676,34.676,0,0,1,4.8,7.773h21.921c-8.2-9.728-31.29-38.378-31.054-50.191.269-13.448-1.914-15.926,6-20.692s42.911-21.273,53.082-24.724,29.668-6.312,32.619-6.709,8.014,2.852,9.032,5.257-1.362,12.205-1.362,12.205l-26.04,84.853h23.788c.689-22.365,15.134-66.474,15.134-66.474s12.5-30.816,22.342-38.384,42.818-1.377,42.818-1.377l115.635,22.567s13.991.889,18.36,5.848-.047,9.948-6.646,12.455c-4.714,1.792-90.446,42.344-139.04,65.365h39.379c42.823-19.639,88.629-39.14,88.629-39.14s23.886-16.628,55.46-34.524,21.675-27.889,40.147-60.667,48.671-93.489,64.07-114.756,3.731-49.516-1.235-72.659c-3.136-33.565.529-54.4.529-54.4A52.038,52.038,0,0,0,557.9,995.416c-14.789-6.794-41.734-24.895-72.578-46.169s-45.129-17.5-58.474-10.155-36.684,24.6-42.19,28.342-4.886,3.2-10.643,1.665-7.717-7.513-18.238-16.963c-5.207-4.676-16.95-5.75-27.486-5.646,9.235-7.109,12.207-15.2,14.048-23.845,3.174-14.9,5.4-43.835,6.17-50.45s.775-5.791,5.7-9.139,10.731-.92,24.761-2.694,34.408-33.347,34.408-33.347,31.872-39.936,31.744-54.806-7.2-67.683-4.056-85.887,13.054-19.115,13.054-19.115,72.386-36.158,84.728-42.048,35.385-16.006,46.864-26.019,5.436-39.7-2.135-55.336-29.761-2.218-29.761-2.218-26.384,6.014-34.66,4.434-.086-9.914-.086-9.914,18.885-13.384,17.842-38.16-27.982-82.373-33.025-92.243-9.211-13.965-18.348-19.668-42.956.376-45.435.4-5.789-.776-13.262-4.842-64.164-63.056-78.266-69.542c-11.346-5.218-53.084-1.079-85.3,3.462,1.419-1.276,2.843-2.607,4.269-4.009,23.755-23.339,25.214-45.658,34.739-90.355S347.206,66.259,347.206,66.259s3.052-28.943,10.176-64.531A105.081,105.081,0,0,0,359-8.85Zm118.9,976.5c8.607-6.478,23.09-22.533,38.969-14.5s46.158,21.2,48.332,22.386c16.971,9.274,16.008,24.432,16.008,24.432-2.953.4-110.223-6.418-110.223-6.418s-11.807,1.592-11.289-6.571S403.566,973.9,412.173,967.427Zm-77.61-4c9.976,8.828,17.87,22.793,23.8,30.78s4.585,38.58,4.585,38.58,7.746,16.3-4.7,37.162-40.821,43.65-47.566,48.49-21.478,15.609-45.326-5.223-55.658-54.461-58.639-62.844-11.538-11.856,1.7-26.819,42.608-44.122,47.493-47.323c3.555-2.328,7.188-5.885,10.967-8.2,4.574-1.242,9.313-2.508,14.18-3.792C298.179,961.027,326.5,956.286,334.563,963.425ZM107.609,934.842a13.561,13.561,0,0,0-1.914-3.962c11.636,9.373,27.027,15.578,39.46,22.4,27.434,19.589,40.8,36,40.8,36A52.037,52.037,0,0,0,214,984.9c3.07-1.4,6.859-2.871,11.244-4.414-14.435,14.9-31.854,32.619-41.713,38.555-15.825,9.531-23,2.635-23,2.635S122.05,1005.664,95.692,994.6c5.837-15.194,10.215-28.4,11.555-32.86C110.435,951.122,110.261,945.282,107.609,934.842ZM319.374,562.634c-16.516.968-63.588,3.032-70.2,3.091s-9.935-2.393-12.45-6.5-.97-16.516-.97-16.516c-.021-2.477,14.38-56.3,27.447-73.768s13.841-23.256,27.9-21.724,41.485,20.292,50.665,30.951,15.057,21.348,11.877,35.422-14.567,34.826-18.656,39.818S335.889,561.664,319.374,562.634Zm37.6,48.416c8.3,4.059,34.224,40.185,34.224,40.185s1.745,10.724-9.807,12.477-88.343,6.554-88.343,6.554-6.6.882-6.659-5.726a50.638,50.638,0,0,1,1.543-12.406s22-35.717,32.663-44.071S348.676,606.99,356.973,611.049Zm-70.45-25.822c14.081,4.007,17.368,2.327,16.61,9.769s-9.748,19.086-12.191,23.239-28.5,47.341-49.083,55.781-44.5,13.609-44.5,13.609-89.118,12.344-94.914,10.742-14,5.078-15.712-1.515-.086-9.912-.086-9.912,112.383-91.862,131.333-97.809S272.444,581.218,286.523,585.227Zm-187.205,133c14.043-.124,136.169-16.887,136.169-16.887s7.422-1.715,15.791,10.6,14.266,25.487,14.375,37.878.244,28.088.244,28.088-7.368,7.5-26.413,2.707S109.44,742.092,109.44,742.092s-17.414-7.284-19.125-13.877S85.273,718.344,99.318,718.222Zm169.456,105.1c15.681-1.789,33.869-.295,41.348,4.6s9.121,4.051,8.342,9.017S295.628,871,295.628,871s-60.528,69.926-81.935,78.375-36.277,8.578-36.277,8.578-20.725-8.08-32.391-19.545-16.68-18.029-14.274-26.314S253.092,825.109,268.774,823.318Zm-79.144,256.4s6.968-8.337,15.851-.747,62.758,62.52,62.758,62.52,4.987,4.416.026,8.783a50.6,50.6,0,0,1-10.392,6.95s-41.4,6.733-54.7,4.132-19.183-20.534-21.542-29.463S189.63,1079.721,189.63,1079.721ZM330.518,893c-.732,10.749,1.934,32.206-14.531,38.957-12.572,5.158-32.888,14.7-42.829,19.312a111.163,111.163,0,0,0-20.207,4.714,25.251,25.251,0,0,1-14.466-6c1.631-2.492,76.971-79.158,76.971-79.158s6.52-9.969,12.355-4.238S331.25,882.258,330.518,893ZM426.1,769.071c-.776,5.789.116,13.216-2.319,18.2-6.517,10.8-26.254,47.895-39.457,49.662s-28.93-1.4-38.85-2.14S313.3,813.017,313.3,813.017s-17.391-4.8-25.026-27.871-6.3-59.43-5.55-67.7,2.248-26.457,33.606-30.862,77.6-6.462,85.893-3.229,16.514-.97,19.165,18.837S426.874,763.282,426.1,769.071Zm4.658-128.923c-16.45,8.405-24.805-2.263-24.805-2.263s-50.064-56.57-54.252-63.141-.972-16.516,1.444-23.973,17.11-27.411,33.617-29.209S428.2,536.9,444.029,551.631s21.717,27.076,19.326,37.009S430.757,640.148,430.757,640.148Zm115.76-83.629c14.826-5.085,17.341-.975,20.653-.179s3.426,14.015,1.852,23.117-21.255,25.8-41.806,37.543-67.589,17.938-67.589,17.938.737-9.919,9.66-29,18.841-18.342,37.72-32.549S531.69,561.607,546.517,556.519ZM445.261,408.693s22.282-2.674,33.021-2.767,5.82,4.08,12.53,15.589,21.114,52.69,22.889,66.72,1.759,12.377,1.833,20.637-28.6,36.6-34.366,38.3-10.724,1.746-17.378-3.153-47.4-35.938-52.455-46.633-1.854-23.117,1.385-30.582S445.261,408.693,445.261,408.693Zm-24.748,4.347c.057,6.608-4.876,9.129-5.674,12.442s-25.157,52.268-25.157,52.268a13.8,13.8,0,0,1-16.5,2.624c-9.956-4.872-27.383-13.806-30.717-17.084s-23.3-18.8-25.818-23.732-3.428-14.014-3.428-14.014,66.808-12.975,84.147-13.954S420.456,406.43,420.513,413.04ZM329.519,27.583c6.608-.057,7.492,6.545,5.072,13.174s-51.277,183.033-51.277,183.033-11.364,23.231-25.415,22.528-50.1-60.7-50.1-60.7-15.13-29.611-14.413-42.011,26.973-33.282,26.973-33.282L313.083,37.64S322.91,27.642,329.519,27.583ZM140.44,40.8c20.581-8.441,44.5-13.607,44.5-13.607s89.119-12.344,94.915-10.742,14-5.08,15.71,1.514.086,9.914.086,9.914-112.383,91.86-131.332,97.809-54.46,7.91-68.539,3.9-17.368-2.328-16.61-9.771,9.749-19.086,12.191-23.238S119.86,49.24,140.44,40.8ZM25.326,103.768C17.03,99.708-8.9,63.583-8.9,63.583s-1.746-10.724,9.8-12.477,88.343-6.554,88.343-6.554,6.6-.882,6.66,5.726a50.683,50.683,0,0,1-1.545,12.406S72.371,98.4,61.7,106.754,33.624,107.825,25.326,103.768ZM91.2,267.6c-14.058-1.53-41.487-20.292-50.666-30.953S25.474,215.3,28.654,201.225,43.222,166.4,47.31,161.409s-.9-8.255,15.615-9.225,63.59-3.034,70.2-3.091,9.935,2.393,12.448,6.5.97,16.516.97,16.516c.021,2.477-14.38,56.3-27.447,73.767S105.257,269.13,91.2,267.6Zm55.471,13.563c-9.992-9-13.3-8.975-11.724-18.075s11.987-46.37,16.032-56.319,14.639-26.566,16.268-29.058,7.4-4.2,9.886-3.392,8.34,9.017,8.34,9.017l49.433,78.88s13.277,6.493,6.755,16.465-27.162,11.8-32.945,11.854S156.663,290.162,146.669,281.163Zm33.165,101.756c4.1-4.167,21.285-22.492,21.285-22.492s22.082-25.8,65.851-27.839,70.213-1.437,89.315,9.961,36.609,29.423,36.609,29.423,3.4,10.711.143,16.522-20.56,10.92-20.56,10.92l-171.757,9.761s-11.566.1-19.891-7.261S175.738,387.086,179.834,382.919Zm-39.192,53.217c6.524-9.971,27.162-11.8,32.943-11.854s52.052.373,62.045,9.372,13.3,8.973,11.724,18.075-11.987,46.37-16.032,56.319-14.639,26.566-16.268,29.058-7.4,4.2-9.886,3.392-8.338-9.017-8.338-9.017L147.395,452.6S134.118,446.109,140.642,436.136ZM54.8,412.308a60.47,60.47,0,0,0-4.2-7.142c18.192.348,45.665-2.651,68.413-5.858-1.419,1.276-2.842,2.607-4.268,4.009-21.289,20.915-24.675,41.024-32,77.14C74.438,453.443,58.556,419.655,54.8,412.308Zm22.6,156.436c6.4-2.29,11.838-2.813,20.021-5.62,14.828-5.086,17.341-.977,20.653-.181s3.428,14.017,1.854,23.117-21.255,25.8-41.807,37.545a95.06,95.06,0,0,1-18.107,7.4C65.242,612.4,71.471,590.063,77.405,568.744ZM33.038,758.581C20.285,747.969,5.093,736.633-7.946,727.345c-.941-13.941-1.348-27.03-.07-34.418,3.146-18.2,13.052-19.115,13.052-19.115s12.9-6.442,28.731-14.331c-1.517,11.592-4.382,31.291-8.849,53.606C19.994,737.679,25.176,744.828,33.038,758.581Zm5.894-122.1c-15.349,3.342-28.394,5.06-28.394,5.06s.739-9.92,9.66-29c8.6-18.391,18.132-18.373,35.717-31.073C49.216,603.725,42.825,624.158,38.931,636.483Zm8.778,37.577c.531-1.452,3.286-11.04,7.267-25.134,15.534-7.72,29.89-14.824,34.787-17.163,12.342-5.889,35.386-16,46.864-26.019s5.438-39.7-2.134-55.335-29.763-2.22-29.763-2.22-12.3,2.8-22.743,4.081c9.374-33.713,17-61.243,17-61.243S110.35,467.8,124.4,468.5s50.1,60.7,50.1,60.7,15.129,29.612,14.411,42.011-26.973,33.282-26.973,33.282L69.217,677.175s-9.828,10-16.436,10.059S45.289,680.689,47.709,674.06ZM54.234,759.1c-1.717-7.422-1.781-14.855,10.617-14.139s169.016,54.706,169.016,54.706,9.914-.088,8.34,9.015-13.088,14.984-13.088,14.984l-73.1,48.555s-14.79,9.217-28.848,7.687-34.052-20.355-39.1-31.052S55.951,766.517,54.234,759.1Zm20.3,144.592c-1.8-1.7-3.643-4.567-6.222-12.673-1.366-4.286-2.039-29.177-3.213-53.821C75.6,864.46,85.9,891.819,89.4,906.676a38.8,38.8,0,0,0,5.711,12.975C86.167,911.837,75.605,904.7,74.531,903.691ZM49.272,1094.386s-18.7-11.21-26.055-18.472c12.572.3,26.062,2.056,28.855,3.848,5.06,3.249,8.338,6.968,8.985,15.205.073.939.182,2.459.306,4.391A44.39,44.39,0,0,0,49.272,1094.386Zm7.949-66.277c-6.561,8.841-7.336,10.078-10.026,13.028-15.982-4.584-18.973-10.018-30.814-16.908-13.547-7.886-12.084-12.476-13.649-15.5S11.089,996.964,19,992.2c7.72-4.65,32.183-.99,54.109,6.489C67.392,1010.952,61.218,1022.721,57.221,1028.108Zm13.071,19.234c6.825-9.478,14.1-24.9,20.4-40.165,20.142,12.16,41.846,31.454,41.846,31.454s-7.985,5.933-28.252,11.668C89.378,1054.517,82.22,1051.313,70.293,1047.342Zm9.445,57.59c.789-21.607,6.268-34.138,15.345-38.829s60.283-9.048,60.283-9.048c17.118,6.942,14.518,20.24,14.518,20.24s-10.026,74.874-12.258,82.34-11.854,11.54-19.074,14.593-31.924,4.995-44.084-6.314S78.951,1126.541,79.738,1104.933ZM221.114,1256.74c-1.463,4.59-11.856,11.54-11.856,11.54-1.859,1.637-51.99,25.962-73.745,27.507s-26.643,4.748-34.683-6.886-11.8-44.651-9.741-58.567,6.292-25.355,19.017-32.157,35.868-11.769,42.318-11.944,5.654-6.081,17.194,5.775,43.9,46.1,48.266,51.065S222.575,1252.152,221.114,1256.74Zm202.215,23.384c-3.869,5.609-7.44,6.551-7.44,6.551s-143-24.888-159.9-35.328-41.614-36.01-47.794-49.28-9.6-14.659-3.48-18.954,20.813-5.114,25.551-5.983,54.451-9.419,74.3.622,39.4,24.748,39.4,24.748,67.644,59.319,70.224,64.75S427.2,1274.517,423.329,1280.124Zm21.377-23.225c-3.869,5.607-4.165,10.27-13.447-.27S329.4,1164.7,329.4,1164.7s-6.152-4.489-2.311-18.879,9.94-27.465,19.24-35.655l21.081-18.563s10.493.667,19.33,18.2,55.951,123.552,55.951,123.552S448.573,1251.292,444.706,1256.9Zm92.708-77.231c-4.784,10.819-41.257,78.159-45.745,84.311s-10.069,11.066-17.639,1.222-69.212-163.614-69.212-163.614-6.551-7.44,1.362-12.2,19.895.093,19.895.093l84.552,23.518s16.647,5.155,24.688,16.787S542.2,1168.851,537.414,1179.668ZM567.874,1078c-1.037,16.323-2.721,24.411-10.56,28.011S411.483,1070.4,399.87,1059.715s-22.382-25.422-23.576-34.278-2.905-9.549,1.361-12.207,40.707-5.023,40.707-5.023,92.485.023,112.881,10.685,30.22,21.822,30.22,21.822S568.912,1061.675,567.874,1078Z" transform="translate(9.782 9.071)" fill="#46a8b8"/>
                    <path id="Path_1398" data-name="Path 1398" d="M29.931,863.911C12,845.033-1.188,830.184-9.782,816.637V851.1c7.088,6.9,14.754,13.96,22.183,20.581H38.088A112.45,112.45,0,0,1,29.931,863.911Z" transform="translate(9.782 527.31)" fill="#46a8b8"/>
                </g>
            </g>
            <g id="Layer_3" data-name="Layer 3" transform="translate(781.885 -9.189)">
                <g id="Group_229" data-name="Group 229" transform="translate(27.363 8.289)">
                    <path id="Path_1399" data-name="Path 1399" d="M617.337,756.691a47.38,47.38,0,0,0-17.075-3.922l-20.733,44.87,37.808-.33Z" transform="translate(-439.379 479.126)" fill="#032f33"/>
                    <path id="Path_1400" data-name="Path 1400" d="M579.529,413.221s15.22-.132,37.808-.33V372.273a47.424,47.424,0,0,0-17.075-3.923Z" transform="translate(-439.379 237.854)" fill="#032f33"/>
                    <path id="Path_1401" data-name="Path 1401" d="M538.647,605.545s13.91,11.253,31.962,31.408C586.854,655.092,623.264,723.047,643,755.9V724.884c-1.115-1.6-2.246-3.206-3.411-4.846-30.437-42.8-79.892-123.615-79.892-123.615L643,623.931v-6.013l-81.758-30.446,3.95-13.034S605.857,552.455,643,536.255V522.417c-1.683.734-3.132,1.346-4.308,1.818-18.622,7.474-97.246,29.284-97.246,29.284Z" transform="translate(-465.037 334.551)" fill="#032f33"/>
                    <path id="Path_1402" data-name="Path 1402" d="M644.083,51.191c.513.12,1.079.257,1.639.391V35.867c-20.528-5.781-46.272-13.438-57.24-24.815A49.9,49.9,0,0,0,555.037-4.1L534.3,40.775l47.122-.412C609.048,40.122,620.472,45.711,644.083,51.191Z" transform="translate(-467.763 4.096)" fill="#032f33"/>
                    <path id="Path_1403" data-name="Path 1403" d="M633.473,467.8s1.646,2.424,8.971,3.984c7.222,1.54,28.335-31.758,28.936-32.709V391.727c-6.361,13.892-13.444,26.426-19.611,31.229-13.719,10.681-26.975-18.454-57.41-61.253s-79.892-123.615-79.892-123.615L671.38,289.9V279.8l-44.506-9.375L516.013,229.137l3.95-13.034s54.989-29.729,95.477-45.522c17.977-7.01,37.841-17.72,55.94-27.336V127.488c-31.6,17.176-66.822,33.957-77.918,38.412-18.622,7.474-97.246,29.286-97.246,29.286l-2.795,52.024s13.91,11.253,31.962,31.408S586.4,380.464,603.692,407.125,633.473,467.8,633.473,467.8Z" transform="translate(-493.422 86.682)" fill="#032f33"/>
                </g>
                <g id="Group_230" data-name="Group 230">
                    <path id="Path_1404" data-name="Path 1404" d="M577.908,466.248c-9.365,43.957-44.171,152.325-44.171,152.325s-3,28.464-10.008,63.463,6.8,34.066,19.289,68.9,38.215,96.354,44.124,121.491,34.428,34.636,54.836,45.834c4.19,2.992,8.045,5.907,11.569,8.7V912.6a70.184,70.184,0,0,1-11.7-8.968c-11.473-11.275-16.4-17.731-14.038-25.878.684-2.353,11.021-10.49,25.734-20.908v-18.9l-.889.591s-14.546,9.064-28.371,7.56-33.489-20.02-38.454-30.539-31.583-80.976-33.272-88.273-1.751-14.61,10.441-13.9c6.242.361,49.656,14.452,90.545,28.121V724.665c-25.394-7.634-46.693-14.105-46.693-14.105s-17.126-7.163-18.807-13.648-4.959-9.707,8.853-9.828c5.783-.05,30.211-2.972,56.648-6.349v-18.47c-24,3.05-50.518,6.136-53.569,5.293-5.7-1.576-13.77,5-15.451-1.489s-.085-9.75-.085-9.75,35.121-28.708,69.1-54.806V579.1L567.3,646.718s-9.665,9.834-16.164,9.891-7.368-6.436-4.987-12.956,50.429-180.006,50.429-180.006,11.175-22.847,25-22.155c7.384.369,20.949,17.4,31.978,33.169V440.8l-9.365-14.945s-13.057-6.385-6.642-16.192c3.133-4.788,9.574-7.66,16.008-9.359V349.117c-12.15,6.367-26.68,13.732-41.475,28.27C588.709,400.34,587.275,422.29,577.908,466.248Z" transform="translate(-448.225 234.073)" fill="#46a8b8"/>
                    <path id="Path_1405" data-name="Path 1405" d="M571.395-8.193q-2.268,2.024-4.549,4.26c-23.363,22.953-24.8,44.9-34.164,88.86s-44.171,152.325-44.171,152.325-3,28.464-10.008,63.463,6.8,34.066,19.289,68.9,38.215,96.354,44.123,121.491,34.428,34.636,54.837,45.834c26.981,19.265,40.123,35.4,40.123,35.4a51.18,51.18,0,0,0,27.588-4.3,175.679,175.679,0,0,1,17.469-6.509V520.777c-7.04,6.019-13.285,10.549-17.775,12.321-21.053,8.309-35.676,8.436-35.676,8.436s-20.383-7.946-31.856-19.222-16.4-17.731-14.038-25.878c1.647-5.669,59.255-44.869,99.346-68.785V407.893a29.515,29.515,0,0,1-2.6,1.571l-71.9,47.753s-14.546,9.064-28.371,7.56-33.489-20.02-38.454-30.539-31.583-80.976-33.272-88.273-1.751-14.61,10.441-13.9c11.366.658,145.909,46.816,164.156,53.09V365.07c-30.844-8.644-120.3-35.831-120.3-35.831s-17.126-7.163-18.807-13.648-4.959-9.707,8.853-9.828c12.375-.109,110.068-13.353,130.259-16.107V266.042a321.053,321.053,0,0,1-33.835,9.631s-87.645,12.14-93.344,10.565-13.77,5-15.451-1.489-.085-9.75-.085-9.75,110.524-90.342,129.16-96.191a107.165,107.165,0,0,1,13.555-3.146V97.945c-.151.4-.3.781-.438,1.121-3.976,9.785-14.4,26.127-16,28.578s-7.277,4.126-9.722,3.335-8.2-8.867-8.2-8.867L598.956,44.536s-13.057-6.385-6.642-16.192,26.713-11.608,32.4-11.659c5.137-.044,42.742.291,57.219,6.877V.092L651.4,1.828s-11.376.1-19.562-7.142a17.752,17.752,0,0,1-3.361-3.875ZM500.918,262.332c2.38-6.522,50.429-180.006,50.429-180.006s11.175-22.847,25-22.155,49.27,59.695,49.27,59.695,14.88,29.122,14.173,41.316-26.527,32.732-26.527,32.732L522.07,265.4s-9.665,9.834-16.164,9.891S498.537,268.852,500.918,262.332Z" transform="translate(-476.61 9.189)" fill="#46a8b8"/>
                    <path id="Path_1406" data-name="Path 1406" d="M561.263,925.472c11.258-40.443,21.5-77.408,21.5-77.408s11.175-22.847,25-22.155c7.385.369,20.949,17.4,31.978,33.169v-33.86l-9.365-14.945s-13.057-6.385-6.642-16.192c3.133-4.787,9.574-7.658,16.008-9.357V733.535c-12.15,6.367-26.68,13.731-41.475,28.269-23.363,22.953-24.8,44.9-34.164,88.86-3.848,18.059-11.989,46.986-20.246,74.807Z" transform="translate(-434.411 475.345)" fill="#46a8b8"/>
                </g>
            </g>
            <g id="Layer_4" data-name="Layer 4" transform="translate(296.922 -8.616)">
                <g id="Group_231" data-name="Group 231" transform="translate(78.072 0.562)">
                    <path id="Path_1407" data-name="Path 1407" d="M586.728,244.708s-1.645-2.424-8.971-3.984-28.965,32.754-28.965,32.754-5.467,25.235-11,42.346-35.9,75.877-35.9,75.877l-.615,22.754s-19.364,15.607-41.221,24.735-25.137,5.908-25.137,5.908l-2.233-69.856L405,368.984s8.351,25.926,13.659,75.444,9,99.86,9.971,118.539-6.878,49.623-6.878,49.623L312.219,630.61l2.565,14.6,124.268-5.147L424.74,675.939l-16.934,14.774-25.135,5.907s-39.662,17.409-60.7,27.343-49.459,11.807-49.459,11.807l4.268,23.526s4.959,9.705,10.583,2.345S322.1,738.587,340.7,728.674s62.494-7.858,62.494-7.858l98.841,153.513,20.29-2.614L416.157,716.64s94.52,30.863,114.076,37.193,61.069,14.9,75.828,30.214a49.893,49.893,0,0,0,33.445,15.147l20.733-44.87-47.122.412c-27.622.241-39.047-5.347-62.657-10.829S451.905,716.329,430.718,709.2s-8.231-12.116-8.231-12.116l10.257-35.027,29.014-27.066s13.02,2.324,36.4-18.192,109.955-62.711,128.576-70.187,97.246-29.286,97.246-29.286l2.795-52.026s-13.91-11.253-31.962-31.408S633.8,332.049,616.509,305.386,586.728,244.708,586.728,244.708Zm113.509,251.7s-54.99,29.73-95.477,45.522S514.2,592.284,496.31,590.814s-40.728-11.831-46.529-24.782-15.988-63.235-16.11-77.047-1.816-21.923,1.413-24.388,84.168-38.109,84.168-38.109l74.075,15.6,110.861,41.283Zm5.5-21.986L540.318,419.8l-15.585-16.927a282.7,282.7,0,0,1,6.992-36.625c4.727-17.1,22.987-66.013,36.706-76.7s26.975,18.453,57.41,61.251S705.734,474.422,705.734,474.422Z" transform="translate(-197.819 164.875)" fill="#032f33"/>
                    <path id="Path_1408" data-name="Path 1408" d="M671.9,902.409l2.795-52.026s-13.91-11.253-31.962-31.408-61.013-101.844-78.308-128.506-29.781-60.678-29.781-60.678-1.646-2.424-8.971-3.984-28.965,32.754-28.965,32.754-5.467,25.235-11,42.346-35.9,75.877-35.9,75.877l-.615,22.754s-19.364,15.607-41.221,24.735-25.137,5.908-25.137,5.908l-2.233-69.856-27.681-6.258s8.351,25.927,13.659,75.444,9,99.86,9.971,118.539c.706,13.521-3.213,33.459-5.431,43.445h89.134c33.427-21.893,98.55-53.432,114.408-59.8C593.275,924.219,671.9,902.409,671.9,902.409ZM479.64,751.334c4.727-17.1,22.987-66.013,36.706-76.7s26.975,18.452,57.41,61.251S653.648,859.5,653.648,859.5L488.233,804.886l-15.585-16.927A282.7,282.7,0,0,1,479.64,751.334ZM444.225,975.9c-17.888-1.468-40.728-11.831-46.529-24.782s-15.988-63.235-16.11-77.047-1.816-21.923,1.413-24.388,84.168-38.109,84.168-38.109l74.075,15.6L652.1,868.456l-3.95,13.034s-54.99,29.73-95.477,45.521S462.112,977.366,444.225,975.9Z" transform="translate(-147.356 406.564)" fill="#032f33"/>
                    <path id="Path_1409" data-name="Path 1409" d="M655.259-8.492H638.952c12.263,19.535,20.892,33.633,20.892,33.633L557.979-8.492H541.25l6.187,1.3L658.3,34.093l-3.95,13.034s-54.989,29.73-95.477,45.522S468.308,143,450.42,141.533s-40.728-11.831-46.529-24.782S387.9,53.516,387.781,39.7s-1.816-21.923,1.413-24.388c1.839-1.4,28.926-13.589,51.882-23.807H410.2c-18.308,7.134-21.182,4.31-21.182,4.31l-.138-4.31h-16.52c.135,1.2.27,2.409.4,3.639,5.308,49.516,9,99.86,9.971,118.539s-6.878,49.623-6.878,49.623l-109.531,18.02,2.565,14.6,124.268-5.147L378.85,226.658l-16.934,14.774-25.135,5.907s-39.662,17.409-60.7,27.343-49.459,11.807-49.459,11.807l4.268,23.526s4.959,9.706,10.583,2.345,34.737-23.054,53.337-32.966,62.494-7.858,62.494-7.858l98.841,153.513,20.29-2.614L370.267,267.359s94.52,30.863,114.076,37.193,61.069,14.9,75.828,30.214a49.893,49.893,0,0,0,33.445,15.147l20.733-44.871-47.122.412c-27.622.241-39.047-5.347-62.657-10.829s-98.555-27.577-119.742-34.706S376.6,247.8,376.6,247.8l10.257-35.027,29.014-27.066s13.019,2.324,36.4-18.192,109.955-62.711,128.576-70.187,97.246-29.286,97.246-29.286l2.795-52.026A289.845,289.845,0,0,1,655.259-8.492Z" transform="translate(-226.621 8.492)" fill="#032f33"/>
                </g>
                <path id="Path_1410" data-name="Path 1410" d="M250.393,212.822c8.138,1.554.085,9.749.085,9.749S231.905,235.734,232.93,260.1s27.52,81.01,32.479,90.718,9.058,13.734,18.044,19.343,42.247-.369,44.685-.391,5.693.763,13.042,4.762,63.1,62.013,76.972,68.391c11.084,5.1,51.674,1.115,83.266-3.317a54.466,54.466,0,0,0-2.438,8.483c-3.122,14.652-5.311,43.109-6.068,49.615s-.762,5.7-5.609,8.988-10.554.9-24.353,2.65-33.838,32.8-33.838,32.8-31.345,39.275-31.218,53.9,7.082,66.564,3.988,84.466-12.837,18.8-12.837,18.8-71.189,35.56-83.327,41.353-34.8,15.741-46.09,25.59-5.347,39.047,2.1,54.42S291,822.846,291,822.846s25.948-5.915,34.087-4.36.085,9.75.085,9.75S306.6,841.4,307.624,865.763s27.52,81.01,32.479,90.718,9.058,13.734,18.044,19.343,42.247-.37,44.685-.391,5.693.763,13.042,4.762,63.1,62.013,76.972,68.391c3.608,1.659,10.36,2.35,18.9,2.383-9.541,7.1-12.536,15.214-14.385,23.891-3.122,14.652-5.311,43.109-6.068,49.615s-.762,5.7-5.609,8.988-10.554.9-24.353,2.65-33.838,32.8-33.838,32.8-31.345,39.275-31.218,53.9,7.082,66.564,3.988,84.466-12.837,18.8-12.837,18.8-71.189,35.561-83.327,41.353c-10.809,5.158-29.944,13.614-41.981,22.357h32.029a181.882,181.882,0,0,1,21.4-14.333c20.212-11.551,66.471-17.642,66.471-17.642s-.726,9.756-9.5,28.521c-.578,1.234-1.159,2.38-1.746,3.454H385.27c9.479-15.549,25.136-37.1,25.136-37.1,16.177-8.265,24.395,2.225,24.395,2.225s16.032,18.115,30.565,34.874H538.35c3-6.159,7.868-12.674,9.557-15.547,2.4-4.084,28.031-46.558,48.271-54.859s43.76-13.382,43.76-13.382,87.645-12.141,93.345-10.565,13.77-5,15.451,1.489.085,9.75.085,9.75-69.275,56.625-107.383,83.115h30.889c1.515-1.284,2.451-2.03,2.451-2.03l91.19-71.484s9.665-9.834,16.164-9.891,7.368,6.436,4.987,12.956c-.991,2.716-9.906,34.4-19.971,70.449h18.171c7.935-25.839,14.208-45.369,14.208-45.369s3-28.464,10.008-63.463-6.8-34.066-19.289-68.9-38.215-96.354-44.124-121.491-34.428-34.636-54.836-45.834c-25.894-18.488-39.034-34.084-40.051-35.311,4.421-4.276,8.34-8.166,11.8-11.066,13.713-11.5,36.418-16.569,59.78-39.524s24.8-44.9,34.164-88.861,44.171-152.325,44.171-152.325,3-28.464,10.008-63.463-6.8-34.066-19.289-68.9-38.215-96.354-44.123-121.491-34.428-34.636-54.836-45.834c-26.981-19.265-40.123-35.4-40.123-35.4a51.18,51.18,0,0,0-27.588,4.3c-9.634,4.382-26.368,9.536-46.912,15.2,3.714-3.605,7.057-6.86,10.056-9.374,13.713-11.5,36.418-16.569,59.78-39.524s24.8-44.9,34.164-88.86,44.171-152.325,44.171-152.325,3-28.464,10.008-63.463c6.13-30.616-3.665-33.738-14.577-57.353H703.6c2.178,6.11,3.675,10.547,4.035,12.1,1.688,7.3,1.751,14.61-10.441,13.9-5.921-.343-45.282-13.037-84.212-26.008H557.242c38.7,11.385,96.1,28.829,96.1,28.829s17.126,7.163,18.807,13.648,4.959,9.707-8.853,9.828S529.376,60.074,529.376,60.074s-7.3,1.688-15.529-10.428-14.03-25.066-14.138-37.252c-.063-7.245-.137-15.614-.186-21.231H480.758c3.757,21.332,2.772,46.422,2.166,53.066-.742,8.132-2.21,26.019-33.049,30.35s-76.32,6.354-84.472,3.175-16.242.954-18.85-18.524-5.4-60.079-4.637-65.773c.1-.741.169-1.509.223-2.295H323.218c.347,15.588,7.013,66.072,3.971,83.675-3.094,17.9-12.837,18.8-12.837,18.8s-71.189,35.56-83.327,41.353-34.8,15.741-46.09,25.59-5.347,39.047,2.1,54.42,29.27,2.183,29.27,2.183S242.254,211.267,250.393,212.822Zm72.679,135.054s-21.914,2.63-32.476,2.721-5.723-4.012-12.321-15.331-20.765-51.819-22.512-65.616-1.73-12.173-1.8-20.3,28.124-36,33.8-37.67,10.547-1.719,17.09,3.1,46.62,35.342,51.588,45.862,1.823,22.735-1.362,30.075S323.072,347.876,323.072,347.876ZM347.41,343.6c-.055-6.5,4.8-8.98,5.581-12.237s24.74-51.4,24.74-51.4a13.572,13.572,0,0,1,16.227-2.58c9.792,4.79,26.931,13.578,30.209,16.8s22.912,18.487,25.391,23.34,3.371,13.783,3.371,13.783-65.7,12.761-82.755,13.723S347.467,350.1,347.41,343.6Zm65.763-98.888c3.13-13.84,14.326-34.25,18.347-39.159s-.884-8.119,15.358-9.072,62.537-2.983,69.038-3.04,9.771,2.354,12.243,6.393.954,16.242.954,16.242c.021,2.437-14.142,55.374-26.993,72.548s-13.612,22.87-27.439,21.364-40.8-19.956-49.828-30.44S410.044,258.555,413.173,244.714Zm3.438,354.408c.763-5.694-.114-13,2.282-17.9,6.408-10.617,25.819-47.1,38.8-48.84s28.451,1.377,38.207,2.1S527.548,555.9,527.548,555.9s17.1,4.725,24.613,27.411,6.2,58.447,5.457,66.578-2.21,26.019-33.049,30.35-76.32,6.354-84.472,3.176-16.242.954-18.85-18.524S415.848,604.815,416.61,599.122ZM597.8,692.6c20.241-8.3,43.76-13.382,43.76-13.382s87.645-12.14,93.345-10.565,13.77-5,15.451,1.489.085,9.749.085,9.749-110.524,90.342-129.16,96.191-53.559,7.78-67.405,3.838-17.082-2.288-16.335-9.608,9.587-18.77,11.989-22.854S577.563,700.906,597.8,692.6ZM574.161,590.434s7.248-7.375,25.977-2.663,127.894,37.885,127.894,37.885,17.126,7.163,18.807,13.648,4.959,9.707-8.853,9.828-133.918,16.607-133.918,16.607-7.3,1.688-15.529-10.428-14.03-25.065-14.138-37.252S574.161,590.434,574.161,590.434Zm-52.59,211.712c16.242-.954,62.537-2.983,69.038-3.04s9.771,2.354,12.243,6.393.954,16.242.954,16.242c.021,2.437-14.142,55.374-26.993,72.548s-13.612,22.87-27.439,21.364-40.8-19.956-49.828-30.44-14.808-20.995-11.68-34.836,14.326-34.25,18.347-39.159S505.329,803.1,521.571,802.146Zm-36.978-47.615c-8.159-3.993-33.658-39.521-33.658-39.521s-1.717-10.547,9.644-12.271,86.881-6.447,86.881-6.447,6.493-.868,6.55,5.632a49.805,49.805,0,0,1-1.519,12.2s-21.631,35.126-32.123,43.342S492.752,758.522,484.593,754.531ZM412.03,725.913c16.177-8.265,24.395,2.225,24.395,2.225s49.236,55.634,53.354,62.1.955,16.242-1.419,23.576S471.533,840.77,455.3,842.537s-40.756-15.082-56.321-29.571-21.358-26.628-19.006-36.4S412.03,725.913,412.03,725.913ZM298.184,808.158c-14.582,5-17.054.96-20.311.177S274.5,794.551,276.05,785.6s20.9-25.37,41.116-36.923,66.471-17.642,66.471-17.642-.726,9.756-9.5,28.521-18.531,18.037-37.1,32.011S312.766,803.155,298.184,808.158ZM397.765,953.54s-21.914,2.63-32.476,2.721-5.723-4.012-12.321-15.331-20.765-51.819-22.512-65.616-1.73-12.173-1.8-20.3,28.124-36,33.8-37.67,10.547-1.719,17.09,3.1,46.62,35.342,51.588,45.862,1.823,22.735-1.362,30.075S397.765,953.54,397.765,953.54Zm24.338-4.274c-.055-6.5,4.8-8.98,5.581-12.237s24.74-51.4,24.74-51.4a13.572,13.572,0,0,1,16.227-2.58c9.792,4.79,26.931,13.578,30.209,16.8s22.912,18.487,25.391,23.34,3.371,13.783,3.371,13.783-65.7,12.761-82.755,13.722S422.16,955.765,422.1,949.266Zm86.883,154.744c.721-10.57-1.9-31.672,14.291-38.313,12.364-5.072,32.339-14.453,42.118-18.99,9.014-1.152,17.666-2.4,25.2-3.589a23.354,23.354,0,0,1,8.906,4.85c-1.6,2.451-75.7,77.849-75.7,77.849s-6.413,9.8-12.15,4.168S508.265,1114.578,508.986,1104.009Zm41.88,236.887s-21.631,35.126-32.123,43.342-27.616,1.055-35.775-2.936-33.658-39.521-33.658-39.521-1.717-10.547,9.644-12.271,86.881-6.447,86.881-6.447,6.493-.867,6.549,5.632A49.8,49.8,0,0,1,550.867,1340.9Zm5.127-64.233c-.742,8.132-2.21,26.019-33.049,30.35s-76.32,6.354-84.472,3.176-16.242.954-18.85-18.524-5.4-60.079-4.637-65.773-.114-13,2.282-17.9c6.408-10.617,25.819-47.1,38.8-48.84s28.451,1.377,38.207,2.1,31.644,21.413,31.644,21.413,17.1,4.725,24.613,27.411S556.734,1268.532,555.994,1276.663Zm180.369-.762c-13.81.12-133.918,16.607-133.918,16.607s-7.3,1.688-15.529-10.428-14.03-25.065-14.138-37.251-.241-27.624-.241-27.624,7.248-7.375,25.977-2.663,127.894,37.885,127.894,37.885,17.126,7.163,18.807,13.648S750.175,1275.781,736.363,1275.9Zm-27.388-159.013c13.827,1.5,33.488,20.02,38.454,30.539S779.012,1228.4,780.7,1235.7s1.751,14.61-10.441,13.9-166.222-53.8-166.222-53.8-9.75.086-8.2-8.866,12.871-14.737,12.871-14.737l71.9-47.753S695.15,1115.385,708.975,1116.889Zm-49.42-76.758s20.383,7.946,31.856,19.222,16.4,17.731,14.038,25.878-120.318,85.552-135.739,87.311-33.309.29-40.665-4.52-8.972-3.984-8.2-8.867,22.458-33.508,22.458-33.508,59.526-68.771,80.579-77.08S659.555,1040.131,659.555,1040.131Zm-.752-61.243c-4.027,4.1-20.933,22.119-20.933,22.119s-6.48,7.551-19.343,14.74c-9.212,3.613-22.448,7.673-38.148,12.056-2.354.264-4.772.465-7.271.583-43.046,2-69.051,1.415-87.837-9.8s-36-28.936-36-28.936-3.341-10.534-.142-16.249,20.22-10.739,20.22-10.739l168.917-9.6s11.376-.1,19.563,7.142S662.83,974.79,658.8,978.889Zm38.544-52.338c-6.416,9.806-26.713,11.608-32.4,11.659s-51.191-.366-61.018-9.217-13.076-8.825-11.53-17.775,11.789-45.6,15.767-55.388,14.4-26.127,16-28.578,7.277-4.126,9.722-3.335,8.2,8.867,8.2,8.867L690.7,910.359S703.762,916.744,697.347,926.551Zm91.395-233.988c-2.38,6.522-50.429,180.006-50.429,180.006s-11.175,22.847-25,22.155-49.27-59.695-49.27-59.695-14.88-29.122-14.173-41.316S676.4,760.981,676.4,760.981l91.19-71.484s9.665-9.834,16.164-9.891S791.123,686.042,788.742,692.562ZM710.6,490.118c13.827,1.5,33.489,20.02,38.454,30.539s31.583,80.976,33.272,88.273,1.751,14.61-10.441,13.9-166.222-53.8-166.222-53.8-9.749.086-8.2-8.866,12.871-14.737,12.871-14.737l71.9-47.753S696.774,488.614,710.6,490.118ZM625.5,421.8c21.053-8.309,35.676-8.436,35.676-8.436s20.383,7.946,31.856,19.222,16.4,17.731,14.038,25.878-120.318,85.551-135.74,87.311-33.309.29-40.665-4.52-8.971-3.984-8.2-8.867,22.458-33.508,22.458-33.508S604.45,430.105,625.5,421.8Zm-24.38-.6c-1.6,2.451-75.7,77.85-75.7,77.85s-6.413,9.8-12.15,4.168-3.386-15.409-2.664-25.977-1.9-31.672,14.291-38.313,45.466-20.69,47.75-21.543C590.469,410.727,601.123,421.2,601.123,421.2ZM584.11,373.225c-4.027,4.1-20.933,22.12-20.933,22.12s-8.023,9.354-23.951,17.152a105.385,105.385,0,0,0-17.266,6.52,106.975,106.975,0,0,1-23.545,3.706c-43.046,2-69.051,1.414-87.837-9.8s-36-28.936-36-28.936-3.342-10.534-.142-16.249S394.653,357,394.653,357l168.917-9.6s11.375-.1,19.563,7.142S588.136,369.126,584.11,373.225Zm38.544-52.338c-6.416,9.806-26.713,11.608-32.4,11.659s-51.191-.366-61.018-9.217-13.076-8.825-11.53-17.775,11.789-45.6,15.767-55.388,14.4-26.127,16-28.578,7.277-4.126,9.722-3.335,8.2,8.867,8.2,8.867L616.011,304.7S629.068,311.08,622.653,320.887ZM709.061,73.943c6.5-.057,7.368,6.436,4.987,12.956S663.619,266.9,663.619,266.9s-11.175,22.847-25,22.155-49.27-59.7-49.27-59.7-14.88-29.122-14.173-41.316,26.527-32.732,26.527-32.732L692.9,83.834S702.562,74,709.061,73.943Zm-185.952,13c20.241-8.3,43.76-13.382,43.76-13.382s87.645-12.14,93.345-10.565,13.77-5,15.451,1.489.085,9.75.085,9.75-110.524,90.342-129.161,96.191-53.559,7.78-67.4,3.838-17.082-2.288-16.335-9.608,9.587-18.77,11.989-22.854S502.87,95.242,523.109,86.941ZM385.885,97.076c11.359-1.725,86.881-6.447,86.881-6.447s6.493-.868,6.55,5.632a49.8,49.8,0,0,1-1.519,12.2s-21.631,35.126-32.123,43.342-27.616,1.055-35.775-2.936-33.658-39.52-33.658-39.52S374.525,98.8,385.885,97.076Zm-48.549,23.173c16.177-8.265,24.395,2.225,24.395,2.225s49.236,55.634,53.354,62.1.955,16.242-1.419,23.576-16.826,26.958-33.062,28.726-40.756-15.082-56.321-29.571-21.358-26.628-19.006-36.4S337.336,120.249,337.336,120.249ZM203.179,202.672c-3.257-.785-3.371-13.784-1.823-22.735s20.9-25.37,41.116-36.923,66.471-17.642,66.471-17.642-.726,9.756-9.5,28.521-18.531,18.037-37.1,32.011-24.273,11.587-38.855,16.59S206.436,203.455,203.179,202.672Z" transform="translate(-178.654 8.837)" fill="#46a8b8"/>
            </g>
        </g>
    </g>
</svg>
