<svg xmlns="http://www.w3.org/2000/svg" width="47.706" height="47.706" viewBox="0 0 47.706 47.706">
    <path id="fiberlean_twitter" d="M97.953,74.1a23.853,23.853,0,1,0,23.853,23.853A23.855,23.855,0,0,0,97.953,74.1Zm11.463,17.98c.016.25.016.511.016.767,0,7.816-5.952,16.82-16.83,16.82a16.769,16.769,0,0,1-9.083-2.652,12.589,12.589,0,0,0,1.427.074,11.863,11.863,0,0,0,7.342-2.524,5.914,5.914,0,0,1-5.526-4.1,6.466,6.466,0,0,0,2.667-.106,5.91,5.91,0,0,1-4.733-5.8v-.074a5.917,5.917,0,0,0,2.667.75,5.915,5.915,0,0,1-2.635-4.919,5.8,5.8,0,0,1,.8-2.982,16.788,16.788,0,0,0,12.193,6.182A5.932,5.932,0,0,1,107.818,88.1a11.672,11.672,0,0,0,3.754-1.421,5.887,5.887,0,0,1-2.6,3.253,11.717,11.717,0,0,0,3.407-.921,12.4,12.4,0,0,1-2.965,3.067Z" transform="translate(-74.1 -74.1)" fill="currentColor"/>
</svg>
