<svg xmlns="http://www.w3.org/2000/svg"><symbol id="icon-arrow-circle" viewBox="0 0 50 50"><rect data-name="Rectangle 248" width="50" height="50" rx="25" fill="currentColor"/><path data-name="Icon ionic-md-arrow-forward" d="M16 26.123h13.668l-6.3 6.3 1.631 1.575 9-9-9-9-1.576 1.577 6.243 6.3H16Z" fill="#fff"/></symbol><symbol id="icon-arrow" viewBox="0 0 20 20"><path d="M10 0 8.182 1.818 15.065 8.7H0v2.6h15.065l-6.883 6.882L10 20l10-10Z" fill="currentColor"/></symbol><symbol id="icon-blob" viewBox="0 0 1347.642 859.348"><path data-name="Path 1348" d="M0 0s188.1 853.047 990.858 859.314 0-859.314 0-859.314Z" fill="currentColor"/></symbol><symbol id="icon-cog-arrow" viewBox="0 0 104.164 104.839"><path d="M98.047 38.636h-4.634a1.269 1.269 0 0 1-1.2-.867 24.164 24.164 0 0 0-1.593-3.836 1.266 1.266 0 0 1 .215-1.5l3.247-3.247a6.306 6.306 0 0 0-.1-8.776L83.769 10.085a6.236 6.236 0 0 0-4.334-1.728 6.327 6.327 0 0 0-4.44 1.834l-.015.015-3.258 3.144a1.263 1.263 0 0 1-1.365.26q-2.023-.845-4.043-1.684a1.267 1.267 0 0 1-.779-1.169V6.151A6.154 6.154 0 0 0 59.388.004h-14.6a6.229 6.229 0 0 0-6.147 6.147v4.606a1.266 1.266 0 0 1-.893 1.209 25.722 25.722 0 0 0-3.963 1.606 1.253 1.253 0 0 1-.566.135 1.268 1.268 0 0 1-.895-.371l-3.144-3.144-.036-.038A5.834 5.834 0 0 0 24.79 8.31a6.161 6.161 0 0 0-4.495 1.876L9.972 20.51a6.151 6.151 0 0 0 .1 8.664l3.258 3.256a1.264 1.264 0 0 1 .272 1.382c-.547 1.313-1.112 2.669-1.671 4.123a1.267 1.267 0 0 1-1.182.81h-4.6a6.066 6.066 0 0 0-4.36 1.825 6.3 6.3 0 0 0-1.787 4.435v14.488a6.256 6.256 0 0 0 1.825 4.429 6.048 6.048 0 0 0 4.322 1.829h4.6a1.265 1.265 0 0 1 1.182.81c.547 1.42 1.106 2.76 1.644 4.056l.03.068a1.268 1.268 0 0 1-.291 1.4l-3.135 3.025a6.062 6.062 0 0 0 .008 8.761L20.406 94.09a6.329 6.329 0 0 0 8.768 0l5.391-5.391a2.939 2.939 0 0 0 0-4.049 2.943 2.943 0 0 0-4.051 0l-4.828 4.83a1.271 1.271 0 0 1-1.791 0l-9.209-9.211a1.265 1.265 0 0 1 0-1.792l4.828-4.828a2.85 2.85 0 0 0 .471-3.418 39.338 39.338 0 0 1-3.482-8.346 2.821 2.821 0 0 0-2.72-2.024H6.931a1.266 1.266 0 0 1-1.266-1.266V45.682a1.266 1.266 0 0 1 1.266-1.266h6.852a2.8 2.8 0 0 0 2.7-2.074l.006-.023a38.277 38.277 0 0 1 3.368-8.362l.013-.023a2.851 2.851 0 0 0-.471-3.418l-4.83-4.828a1.271 1.271 0 0 1 0-1.792l9.211-9.209a1.266 1.266 0 0 1 1.791 0l4.828 4.828a2.834 2.834 0 0 0 3.418.471 36.13 36.13 0 0 1 8.386-3.38l.023-.006a2.8 2.8 0 0 0 2.072-2.7V7.048a1.266 1.266 0 0 1 1.266-1.266H58.48a1.266 1.266 0 0 1 1.266 1.266V13.9a2.8 2.8 0 0 0 2.074 2.7.074.074 0 0 1 .021 0 38.233 38.233 0 0 1 8.362 3.368l.023.013a2.9 2.9 0 0 0 1.435.371 2.625 2.625 0 0 0 1.946-.8l.038-.04 4.828-4.828a1.266 1.266 0 0 1 1.792 0l9.211 9.209a1.268 1.268 0 0 1 0 1.792l-4.83 4.828a2.853 2.853 0 0 0-.471 3.42 37.566 37.566 0 0 1 3.49 8.373.159.159 0 0 1 .008.034 2.8 2.8 0 0 0 2.7 2.074h6.852a1.264 1.264 0 0 1 1.266 1.266v12.914a1.264 1.264 0 0 1-1.266 1.266H90.49a2.8 2.8 0 0 0-2.7 2.074.2.2 0 0 1-.008.034 37.677 37.677 0 0 1-3.486 8.369 2.848 2.848 0 0 0 .466 3.423l4.83 4.83a1.266 1.266 0 0 1 0 1.789l-9.211 9.211a1.272 1.272 0 0 1-.895.371h-.008a1.262 1.262 0 0 1-.9-.382l-4.712-4.824a2.789 2.789 0 0 0-1.979-.8 3.085 3.085 0 0 0-2.081.825 2.926 2.926 0 0 0 .036 4.056l5.364 5.478a6.171 6.171 0 0 0 4.277 1.726 6.258 6.258 0 0 0 4.383-1.834L94.09 83.983a6.321 6.321 0 0 0 1.876-4.495 5.584 5.584 0 0 0-1.84-4.237c-.013-.011-.023-.023-.036-.036l-3.256-3.256a1.265 1.265 0 0 1-.238-1.46 25.737 25.737 0 0 0 1.608-3.963 1.266 1.266 0 0 1 1.209-.893h4.606a6.048 6.048 0 0 0 4.322-1.829 6.256 6.256 0 0 0 1.825-4.429v-14.6a6.23 6.23 0 0 0-6.119-6.149Z" fill="currentColor"/><path d="M54.251 38.238a2.744 2.744 0 0 0-4.216-.116l-9.636 10.929a2.744 2.744 0 1 0 4.111 3.636l4.549-5.14h.017v54.484a2.809 2.809 0 0 0 5.617 0v-54.38L59 53.087a2.754 2.754 0 0 0 4.317-3.421Z" fill="currentColor"/></symbol><symbol id="icon-cogs" viewBox="0 0 125.574 116.298"><g fill="currentColor"><path data-name="Path 1359" d="M96.575 153.978a4.221 4.221 0 0 1-3.765-2.308l-2.47-4.872a20.64 20.64 0 0 1-.931 0l-2.475 4.875a4.22 4.22 0 0 1-5.366 1.981l-6.723-2.784a4.222 4.222 0 0 1-2.388-5.195l1.7-5.2a22.578 22.578 0 0 1-.654-.659l-5.2 1.7a4.23 4.23 0 0 1-5.203-2.386l-2.788-6.73a4.223 4.223 0 0 1 1.988-5.366l4.872-2.47a20.64 20.64 0 0 1 0-.931L62.3 121.16a4.23 4.23 0 0 1-1.981-5.371l2.784-6.723a4.232 4.232 0 0 1 5.195-2.388l5.195 1.7c.215-.222.435-.441.659-.657l-1.7-5.2a4.224 4.224 0 0 1 2.381-5.193l6.737-2.791a4.229 4.229 0 0 1 5.364 1.99l2.475 4.872c.311-.007.62-.007.929 0l2.475-4.875a4.226 4.226 0 0 1 5.357-1.988l6.734 2.788a4.234 4.234 0 0 1 2.388 5.195l-1.7 5.2c.224.215.441.435.657.659l5.2-1.7a4.229 4.229 0 0 1 5.193 2.381l2.786 6.732a4.227 4.227 0 0 1-1.976 5.366l-4.881 2.477c.007.311.007.622 0 .931l4.875 2.473a4.229 4.229 0 0 1 1.988 5.355l-2.791 6.737a4.228 4.228 0 0 1-5.195 2.39l-5.2-1.7c-.213.222-.435.439-.659.657l1.7 5.2a4.223 4.223 0 0 1-2.393 5.195l-6.725 2.786a4.128 4.128 0 0 1-1.6.32Zm-14.946-4.994Zm16.486 0Zm-2.214-.817Zm-12.06 0ZM78.607 146l3.751 1.553 2.251-4.438a4.221 4.221 0 0 1 4.063-2.292 16.825 16.825 0 0 0 2.377 0 4.228 4.228 0 0 1 4.079 2.278l2.26 4.456 3.75-1.557-1.549-4.74a4.215 4.215 0 0 1 1.263-4.5 16.548 16.548 0 0 0 1.679-1.67 4.225 4.225 0 0 1 4.509-1.26l4.726 1.544 1.555-3.754-4.44-2.253a4.215 4.215 0 0 1-2.29-4.081 16.6 16.6 0 0 0 0-2.361 4.215 4.215 0 0 1 2.292-4.081l4.445-2.253-1.553-3.754-4.74 1.549a4.23 4.23 0 0 1-4.5-1.265 17.3 17.3 0 0 0-1.67-1.681 4.214 4.214 0 0 1-1.258-4.5l1.544-4.73-3.751-1.553-2.253 4.44a4.226 4.226 0 0 1-4.063 2.292 16.824 16.824 0 0 0-2.377 0 4.208 4.208 0 0 1-4.081-2.294l-2.258-4.445-3.759 1.55 1.549 4.742a4.214 4.214 0 0 1-1.263 4.5 16.3 16.3 0 0 0-1.679 1.67 4.228 4.228 0 0 1-4.493 1.265l-4.742-1.551-1.553 3.754 4.442 2.253a4.215 4.215 0 0 1 2.29 4.081 16.6 16.6 0 0 0 0 2.361 4.211 4.211 0 0 1-2.292 4.081l-4.445 2.253 1.555 3.754 4.742-1.549a4.212 4.212 0 0 1 4.5 1.265 16.8 16.8 0 0 0 1.672 1.679 4.215 4.215 0 0 1 1.256 4.5l-1.544 4.726Zm-.5 1.528Zm24.519-2.146Zm-25.515 0Zm-2.125-4.127a.007.007 0 0 1 .002-.004Zm30.2-1.775a.011.011 0 0 1 .007 0h-.007Zm-30.611-.007Zm-.075-.055v.009-.009Zm40.262-7.071Zm-49.764 0Zm47.531-6.643Zm-45.3-3.2Zm46.717-4.415Zm-48.129-.014Zm8.688-9.273Zm15.416-6.402Zm-11.813-1.734Zm3.525-1.45a.008.008 0 0 0 0 .007Zm16.49-.007Z" transform="translate(-59.998 -94.221)"/><path data-name="Path 1360" d="M153.677 210.518a4.766 4.766 0 0 1-4.246-2.594l-3.914-7.716c-.961.046-1.926.048-2.882.007l-3.912 7.711a4.76 4.76 0 0 1-6.048 2.233l-9.633-3.989a4.767 4.767 0 0 1-2.695-5.847l2.69-8.223a31.886 31.886 0 0 1-2.034-2.043l-8.226 2.69a4.774 4.774 0 0 1-5.851-2.685l-3.994-9.646a4.762 4.762 0 0 1 2.237-6.041l7.716-3.916a31.844 31.844 0 0 1-.007-2.882l-7.711-3.909a4.766 4.766 0 0 1-2.239-6.039l3.994-9.639a4.766 4.766 0 0 1 5.858-2.692l8.217 2.685a30.64 30.64 0 0 1 2.043-2.034l-2.69-8.223a4.773 4.773 0 0 1 2.692-5.856l9.637-3.992a4.765 4.765 0 0 1 6.041 2.235l3.916 7.718a31.86 31.86 0 0 1 2.882-.007l3.909-7.711a4.767 4.767 0 0 1 6.039-2.237l9.639 3.994a4.76 4.76 0 0 1 2.692 5.854l-2.685 8.219c.7.638 1.382 1.322 2.034 2.043l8.221-2.69a4.757 4.757 0 0 1 5.856 2.7l3.989 9.633a4.763 4.763 0 0 1-2.242 6.041l-7.711 3.912c.046.972.048 1.937.007 2.882l7.709 3.912a4.761 4.761 0 0 1 2.237 6.041l-3.992 9.637a4.768 4.768 0 0 1-5.849 2.695l-8.224-2.69q-.971 1.06-2.043 2.034l2.688 8.223a4.756 4.756 0 0 1-2.7 5.854l-9.633 3.989a4.7 4.7 0 0 1-1.8.359Zm-27.324-9.418 7.572 3.136 3.765-7.421a4.761 4.761 0 0 1 4.6-2.58 25.147 25.147 0 0 0 3.571-.007 4.767 4.767 0 0 1 4.609 2.58l3.767 7.427 7.572-3.136-2.589-7.917a4.766 4.766 0 0 1 1.432-5.078 25.58 25.58 0 0 0 2.532-2.521 4.76 4.76 0 0 1 5.076-1.423l7.906 2.585 3.136-7.574-7.418-3.765a4.76 4.76 0 0 1-2.58-4.6 24.858 24.858 0 0 0-.009-3.573 4.75 4.75 0 0 1 2.583-4.6l7.425-3.767-3.136-7.572-7.917 2.589a4.769 4.769 0 0 1-5.08-1.432 25.073 25.073 0 0 0-2.521-2.53 4.772 4.772 0 0 1-1.425-5.078l2.583-7.905-7.574-3.136-3.763 7.418a4.763 4.763 0 0 1-4.6 2.58 25.188 25.188 0 0 0-3.573.009 4.745 4.745 0 0 1-4.6-2.58l-3.77-7.425-7.574 3.136 2.589 7.917a4.754 4.754 0 0 1-1.43 5.078 24.867 24.867 0 0 0-2.532 2.521 4.759 4.759 0 0 1-5.078 1.425l-7.905-2.583-3.136 7.572 7.423 3.763a4.764 4.764 0 0 1 2.58 4.6 25.074 25.074 0 0 0 .007 3.566 4.762 4.762 0 0 1-2.58 4.609l-7.427 3.77 3.136 7.574 7.919-2.589a4.754 4.754 0 0 1 5.078 1.43 24.85 24.85 0 0 0 2.519 2.532 4.76 4.76 0 0 1 1.427 5.081l-2.585 7.9Zm53.941-21.425Zm-5.071-12.876Zm5.071-8.443Zm-4.559-8.1Zm-33.864-12.391Z" transform="translate(-59.998 -94.221)"/><path data-name="Path 1361" d="M89.884 132.944a10.084 10.084 0 1 1 9.3-13.942 10.088 10.088 0 0 1-9.305 13.942Zm-.018-14.219a4.137 4.137 0 1 0 3.827 2.555 4.141 4.141 0 0 0-3.827-2.553Z" transform="translate(-59.998 -94.221)"/><path data-name="Path 1362" d="M144.1 184.726a15.708 15.708 0 1 1 14.489-21.717 15.709 15.709 0 0 1-14.491 21.72Zm-.021-25.476a9.765 9.765 0 1 0 9.015 6.032 9.781 9.781 0 0 0-9.015-6.03Z" transform="translate(-59.998 -94.221)"/></g></symbol><symbol id="icon-cycle" viewBox="0 0 101.303 101.303"><path d="M50.65 0a50.651 50.651 0 1 0 50.651 50.651A50.652 50.652 0 0 0 50.65 0ZM18.673 53.044a32.263 32.263 0 0 1 20.934-32.7 3.5 3.5 0 0 1 3.244-5.677l.143.026a3.43 3.43 0 0 1 .742.239l8.334 3.694a3.5 3.5 0 0 1 1.994 3.92l-.009.042a3.529 3.529 0 0 1-.353.928l-.009.015-1.343-.746 1.336.759-.011.02c-.028.05-.059.1-.09.143-.013.022-.028.042-.04.062l-.033.048-.053.074c-.018.024-.035.05-.053.072l-.057.07a2.347 2.347 0 0 1-.068.077l-.044.061-.085.079c-.037.039-.074.075-.112.112l-.088.079-6.654 6.167a3.492 3.492 0 0 1-5.859-2.709 3.83 3.83 0 0 1 .037-.384 25.284 25.284 0 0 0-14.834 25 3.5 3.5 0 0 1-3.209 3.745c-.1.007-.193.011-.287.011a3.493 3.493 0 0 1-3.473-3.223Zm54.31 20.9a32.24 32.24 0 0 1-44.414-.077 3.485 3.485 0 0 1-3.256 2.31h-.039a3.495 3.495 0 0 1-3.49-3.462l-.09-9.034-.022-.2.026-.1a3.572 3.572 0 0 1 .05-.419c.011-.064.024-.127.039-.189a3.515 3.515 0 0 1 .18-.562l.015-.037c.037-.085.079-.167.123-.25s.1-.187.162-.272a3.553 3.553 0 0 1 .366-.467l.086-.09.018-.018a3.439 3.439 0 0 1 .572-.456s.006 0 .007-.006l.051-.035c.048-.031.1-.062.145-.092l.1-.061.108-.044c.039-.017.079-.031.118-.046a2.94 2.94 0 0 1 .217-.081 3.435 3.435 0 0 1 .6-.145 2.16 2.16 0 0 1 .09-.013h.026a3.558 3.558 0 0 1 .8 0c.066 0 .132.011.2.02l.134.017.129.04.061.02.042.013c.048.015.1.029.143.048a3.365 3.365 0 0 1 .379.147l8.323 3.471a3.493 3.493 0 0 1 .081 6.41 25.259 25.259 0 0 0 33.116-1.4 3.492 3.492 0 1 1 4.8 5.07Zm13.349-14.729-7.1 5.778a3.644 3.644 0 0 1-.469.312l-.011.007-.1.053a3.5 3.5 0 0 1-1.307.377l-.035.007-.154.006h-.116a3.493 3.493 0 0 1-3.354-2.52l-2.507-8.821a3.494 3.494 0 0 1 2.395-4.317 3.521 3.521 0 0 1 2.479.217 25.221 25.221 0 0 0-16.642-23.488 3.522 3.522 0 0 1-1.977-1.8 3.488 3.488 0 0 1 3.084-4.973l.061-.029.463.059a3.329 3.329 0 0 1 .463.092h.045l.254.092a32.238 32.238 0 0 1 21.128 32.96 3.491 3.491 0 0 1 3.4 5.987Z" fill="currentColor"/></symbol><symbol id="icon-facebook" viewBox="0 0 47.512 47.51"><path d="M23.732.001A23.754 23.754 0 1 1 0 23.751 23.74 23.74 0 0 1 23.732.001Zm6.31 23.659.536-5.177h-4.656v-2.677a4.54 4.54 0 0 1 .049-.744 1.132 1.132 0 0 1 1.214-1.035c.73-.016 1.459-.005 2.189-.006h1.09V9.054c-1.946 0-3.87-.106-5.776.032a4.857 4.857 0 0 0-3.951 2.5 7.093 7.093 0 0 0-.916 3.629c-.01 1.066 0 2.132 0 3.266H16.97v5.2h2.859V38.29h6.111V23.661h4.107Z" fill="currentColor"/></symbol><symbol id="icon-graph" viewBox="0 0 112 107.774"><path d="M79.53.004a2.893 2.893 0 0 0-1.238.243L64.231 6.4a2.89 2.89 0 1 0 2.307 5.3l6.628-2.885c-24.452 55.688-70.7 62.382-70.7 62.382a2.9 2.9 0 0 0 .86 5.728s49.6-7.809 75.119-65.747l1.753 7.342a2.901 2.901 0 0 0 5.644-1.348L82.265 2.23A2.9 2.9 0 0 0 79.527.002Zm5.735 27.371a2.9 2.9 0 0 0-2.89 2.906v71.7h-4.231V53.455a2.9 2.9 0 0 0-2.885-2.906H61.683a2.9 2.9 0 0 0-2.885 2.906v48.523h-4.237V76.606a2.9 2.9 0 0 0-2.885-2.885H38.1a2.9 2.9 0 0 0-2.885 2.885v25.373h-4.242V88.557a2.9 2.9 0 0 0-2.885-2.885H14.516a2.9 2.9 0 0 0-2.885 2.885v13.421h-7.4a2.9 2.9 0 0 0 0 5.8h104.883a2.9 2.9 0 0 0 0-5.8h-7.4v-71.7a2.9 2.9 0 0 0-2.885-2.906H85.254Zm2.906 5.792h7.76v68.811h-7.758V33.167ZM64.59 56.341h7.76v45.64h-7.76ZM41.009 79.515h7.764v22.465h-7.76ZM17.428 91.466h7.76v10.514h-7.76Z" fill="currentColor" fill-rule="evenodd"/></symbol><symbol id="icon-hand-leaf" viewBox="0 0 148.334 118.741"><g fill="currentColor"><path data-name="Path 1354" d="M246.574 190.511c-6.3-5.776-21.049-3.032-36.7 6.831a3.334 3.334 0 0 0-.962 4.967 4.293 4.293 0 0 0 5.554.861c8.5-5.359 14.845-7.352 18.667-8.081 4.779-.91 7.148-.134 7.734.4a1.1 1.1 0 0 1 .454 1.05c-.141 1.669-2.409 6.862-20.378 19.006-20.9 14.123-31.192 17.706-36.145 18.224-7.09.74-13.288.058-22.1-2.432a228.71 228.71 0 0 1-8.724-2.64.135.135 0 0 1-.031-.011c-.08-.027-.159-.055-.242-.08l-.123-.041-.046-.016-.061-.019a57.64 57.64 0 0 1-.736-.244l-.1-.033c-6.618-2.067-14.462-2.251-21.72-1.966l-3.684-22.654a145.647 145.647 0 0 0 8.175-3.375c4.822-2.149 10.652-4.361 17.346-4.444 3.783-.052 7.491 1.582 11.792 3.468 4.371 1.916 9.321 4.09 15.112 4.611 5.214.469 17.781 2.064 21.821 6.711a3.254 3.254 0 0 1 .944 2.8 2.042 2.042 0 0 1-.9 1.6c-1.189.757-4.346 1.368-12.638-.022a503.771 503.771 0 0 1-5.4-.943c-8.736-1.56-16.283-2.906-26.79-2.294a3.727 3.727 0 0 0-3.718 3.788 3.86 3.86 0 0 0 4.236 3.325c9.459-.551 16.528.713 24.712 2.174 1.763.315 3.586.639 5.5.959a59.229 59.229 0 0 0 9.616.951c3.963 0 6.866-.7 9.11-2.13a8.987 8.987 0 0 0 4.16-6.354 9.812 9.812 0 0 0-2.535-8.224c-4.362-5.014-13.551-8.186-27.314-9.427-4.365-.392-8.267-2.105-12.4-3.917-4.782-2.1-9.729-4.271-15.412-4.2-8.344.1-15.495 2.829-20.791 5.192a136.807 136.807 0 0 1-6.973 2.9 9.85 9.85 0 0 0-8.653-3.106l-7.3.951a9.5 9.5 0 0 0-6.112 3.254 7.618 7.618 0 0 0-1.747 6.165l4.868 29.911a8.163 8.163 0 0 0 3.638 5.466 9.957 9.957 0 0 0 5.536 1.653 10.709 10.709 0 0 0 1.355-.088l7.3-.951a9.486 9.486 0 0 0 6.112-3.257 7.879 7.879 0 0 0 1.677-3.385c6.366-.238 13.085-.079 18.413 1.574l.769.255.04.014.2.066c.049.016.1.03.144.047a245.739 245.739 0 0 0 9.186 2.782 69.2 69.2 0 0 0 19.289 3.043 58.954 58.954 0 0 0 6.134-.329c8.757-.916 21.852-7.333 40.026-19.617 15.755-10.647 23.011-18.1 23.52-24.157a7.8 7.8 0 0 0-2.7-6.563Zm-123.958 42.471-7.3.951a1.421 1.421 0 0 1-.981-.222 1.163 1.163 0 0 1-.518-.779l-4.868-29.913a1.094 1.094 0 0 1 .248-.877 1.359 1.359 0 0 1 .871-.463l7.3-.951a1.5 1.5 0 0 1 .19-.011 1.286 1.286 0 0 1 1.306 1.012l4.868 29.913a1.21 1.21 0 0 1-1.116 1.34Z" transform="translate(-100.96 -122.44)"/><path data-name="Path 1355" d="M116.723 203.86a3.564 3.564 0 0 0-7.053 1.028l.1.669a3.563 3.563 0 0 0 3.523 3.048 3.321 3.321 0 0 0 .518-.038 3.568 3.568 0 0 0 3.013-4.041l-.1-.669Z" transform="translate(-100.96 -122.44)"/><path data-name="Path 1356" d="M151.434 148.792c.332.844.674 1.716 1.039 2.577 1.689 4 3.926 8.586 7.717 12.33a20.357 20.357 0 0 0 13.953 6.083c.332 0 .661-.011.987-.03a14.372 14.372 0 0 0 8.621-3.476 20.627 20.627 0 0 1 5.05 10.384 40.125 40.125 0 0 0-.052 5.11 3.56 3.56 0 0 0 3.276 3.3c.1.008.189.011.282.011a3.565 3.565 0 0 0 3.47-2.758 18.167 18.167 0 0 0 .189-5.683 49.9 49.9 0 0 1 1.261-7.917 44.544 44.544 0 0 1 3.4-9.389 14.219 14.219 0 0 0 6 1.321 15.288 15.288 0 0 0 2.379-.189 20.08 20.08 0 0 0 13.276-9.148c2.892-4.482 4.082-9.447 4.863-13.715.167-.918.315-1.845.455-2.741a31.134 31.134 0 0 1 1.776-7.443 3.564 3.564 0 0 0-3.248-4.981h-.293a48.225 48.225 0 0 0-20.842 4.553c-6.226 3.051-10.664 7.695-12.495 13.076a15.562 15.562 0 0 0 2.421 14.762 49.956 49.956 0 0 0-3.843 9.271 33.613 33.613 0 0 0-3.048-3.7 15.609 15.609 0 0 0-1.2-14.145c-2.952-4.855-8.293-8.427-15.031-10.058a48.258 48.258 0 0 0-21.621.137 3.565 3.565 0 0 0-2.094 5.568 31.245 31.245 0 0 1 3.347 6.881Zm47.809-6.42c1.639-4.822 6.269-7.689 8.882-8.972a39.122 39.122 0 0 1 13.12-3.594c-.277 1.327-.485 2.651-.691 3.956-.14.891-.274 1.735-.425 2.563-.655 3.577-1.626 7.7-3.841 11.133a13.064 13.064 0 0 1-8.394 5.971 7.4 7.4 0 0 1-3.44-.241 36.589 36.589 0 0 1 6.209-6.352 3.563 3.563 0 1 0-4.452-5.565 43.764 43.764 0 0 0-6.93 6.946 8.725 8.725 0 0 1-.038-5.847Zm-29.118.765c2.829.685 7.969 2.481 10.614 6.831a8.765 8.765 0 0 1 1.277 5.241 59.92 59.92 0 0 0-10.4-5.927 3.564 3.564 0 0 0-2.925 6.5 51.661 51.661 0 0 1 9.743 5.606 7.385 7.385 0 0 1-3.745 1.256 13.082 13.082 0 0 1-9.49-4.011c-2.906-2.87-4.745-6.683-6.16-10.033-.329-.779-.639-1.571-.97-2.412-.482-1.228-.973-2.475-1.53-3.712a39.193 39.193 0 0 1 13.589.663Z" transform="translate(-100.96 -122.44)"/></g></symbol><symbol id="icon-leaf-shield" viewBox="0 0 94.756 116.924"><path d="M92.567 19.01a6.885 6.885 0 0 0-4.715-1.861c-.174 0-.336 0-.493.019l-7.851.547a6.396 6.396 0 0 1-.5.016c-6.355 0-16.842-6.669-21.961-11.2l-4.929-4.649a6.912 6.912 0 0 0-9.484 0l-4.837 4.567a63.108 63.108 0 0 1-10.576 7.37c-4.567 2.521-8.643 3.907-11.476 3.907-.176 0-.338 0-.5-.016l-7.846-.545a6.414 6.414 0 0 0-.493-.019 6.916 6.916 0 0 0-6.914 6.918v43.468c0 11.22 4.738 21.427 12.674 27.3 5.953 4.41 22.059 15.1 26.854 18.272l4.043 2.671a6.9 6.9 0 0 0 7.612 0l4.081-2.7c2.065-1.365 20.365-13.468 26.821-18.246 7.933-5.878 12.672-16.083 12.672-27.3v-43.47a6.936 6.936 0 0 0-2.2-5.058Zm-3.911 48.528c0 9.294-3.813 17.664-10.2 22.4-6.326 4.684-24.5 16.7-26.553 18.059l-4.081 2.695a.793.793 0 0 1-.879 0L42.9 108.01c-4.762-3.15-20.755-13.766-26.589-18.087-6.388-4.729-10.2-13.1-10.2-22.4v-43.46a.822.822 0 0 1 .261-.6.792.792 0 0 1 .545-.214h.059l7.853.547c.3.021.6.031.926.031 3.961 0 8.814-1.569 14.427-4.668a68.713 68.713 0 0 0 11.713-8.178l.07-.063 4.87-4.6a.8.8 0 0 1 .552-.221.784.784 0 0 1 .55.218l4.962 4.68c.024.021.047.042.068.063 4 3.55 16.487 12.766 26.048 12.766.327 0 .63-.009.926-.031l7.858-.547h.056a.805.805 0 0 1 .8.81v43.468Z" fill="currentColor"/><path d="M78.212 31.935h-.244a41.336 41.336 0 0 0-17.878 3.907c-5.337 2.617-9.141 6.6-10.708 11.211a13.356 13.356 0 0 0 1.905 12.437 44.415 44.415 0 0 0-4.163 9.745 33.969 33.969 0 0 0-2.866-4.177 13.249 13.249 0 0 0-.909-12.378c-2.54-4.146-7.13-7.2-12.923-8.584a41.819 41.819 0 0 0-18.587.115 3.054 3.054 0 0 0-1.79 4.781 26.4 26.4 0 0 1 2.883 5.88c.284.716.578 1.459.888 2.187a32.058 32.058 0 0 0 6.644 10.536 17.546 17.546 0 0 0 11.988 5.189c.287 0 .571-.009.855-.026a12.394 12.394 0 0 0 7.1-2.718 27.485 27.485 0 0 1 4.816 11.913 35.108 35.108 0 0 0 .265 5.258 3.054 3.054 0 0 0 3.019 2.6h.075a3.055 3.055 0 0 0 2.965-2.746 25.639 25.639 0 0 0-.2-5.457 42.347 42.347 0 0 1 1.057-8.4 38.765 38.765 0 0 1 3.658-9.785 12.2 12.2 0 0 0 5.441 1.276 13.155 13.155 0 0 0 2.041-.162 17.206 17.206 0 0 0 11.38-7.844 32.275 32.275 0 0 0 4.17-11.758c.143-.78.265-1.569.385-2.333a26.747 26.747 0 0 1 1.527-6.4 3.052 3.052 0 0 0-2.786-4.266ZM32.924 66.661a11.313 11.313 0 0 1-8.187-3.43 26.015 26.015 0 0 1-5.3-8.563c-.282-.66-.547-1.334-.832-2.049-.413-1.045-.834-2.107-1.311-3.157a33.91 33.91 0 0 1 11.7.569c2.436.585 6.864 2.119 9.139 5.835a7.454 7.454 0 0 1 1.137 4.1 43.365 43.365 0 0 0-10.175-6.3 3.054 3.054 0 1 0-2.507 5.57 36.791 36.791 0 0 1 9.726 6.228 6.378 6.378 0 0 1-3.4 1.191Zm40.512-25.008c-.12.759-.233 1.475-.362 2.182a26.236 26.236 0 0 1-3.3 9.545 11.2 11.2 0 0 1-7.2 5.121 6.343 6.343 0 0 1-3.122-.263 38.934 38.934 0 0 1 8.652-8.011 3.054 3.054 0 0 0-3.451-5.039 44.966 44.966 0 0 0-9.517 8.706 7.494 7.494 0 0 1 .019-4.877c1.4-4.132 5.373-6.594 7.614-7.691a33.526 33.526 0 0 1 11.253-3.082c-.24 1.144-.418 2.286-.594 3.411Z" fill="currentColor"/></symbol><symbol id="icon-linkedin" viewBox="0 0 47.816 47.805"><path d="M23.63.002h.654c.113.019.227.047.341.055.682.05 1.365.086 2.046.146a19.122 19.122 0 0 1 2.822.486 23.864 23.864 0 0 1 18.3 22.139c.038.83 0 1.664-.027 2.5a20.218 20.218 0 0 1-.375 3.1 23.285 23.285 0 0 1-1.791 5.557 23.969 23.969 0 0 1-13.728 12.469 23.482 23.482 0 0 1-6.463 1.3 18.193 18.193 0 0 1-2.215.031c-.807-.049-1.614-.077-2.413-.2-.743-.118-1.49-.228-2.222-.4a23.248 23.248 0 0 1-6.243-2.408A23.924 23.924 0 0 1 .638 29.126a22.8 22.8 0 0 1-.431-2.62c-.061-.587-.074-1.179-.119-1.768a3.27 3.27 0 0 0-.093-.45v-.7c.032-.174.08-.347.094-.522.054-.65.085-1.3.15-1.952a21.377 21.377 0 0 1 .69-3.565A23.937 23.937 0 0 1 17.83.831a22.864 22.864 0 0 1 3.618-.662C22.066.106 22.69.094 23.31.054A3.133 3.133 0 0 0 23.628 0Zm15.623 37.883V25.669c0-.435-.02-.871-.05-1.3a8.386 8.386 0 0 0-.575-2.537 6.057 6.057 0 0 0-3.1-3.371 7.256 7.256 0 0 0-2.3-.637 8.086 8.086 0 0 0-2.39.049 6.775 6.775 0 0 0-4.356 2.733c-.048.066-.1.131-.178.237v-2.287c-.01-.176-.033-.2-.209-.206H20.58a.129.129 0 0 0-.142.146v19.126c0 .083.01.166.015.242.206.051 5.572.058 5.83.007.007-.105.021-.22.021-.333v-6.679c0-1.222-.005-2.444.012-3.667a4.973 4.973 0 0 1 .369-1.819 3.086 3.086 0 0 1 2.133-1.928 4.434 4.434 0 0 1 1.482-.115 2.68 2.68 0 0 1 2.061 1.076 3.585 3.585 0 0 1 .551 1.127 6.885 6.885 0 0 1 .273 2.027c.008 3.332 0 6.663 0 10 0 .106.01.213.016.333h6.051Zm-22.625.016c.006-.136.015-.234.015-.334V18.683a.3.3 0 0 0-.348-.341h-5.553c-.176.01-.195.029-.2.209v19.025c0 .323 0 .324.318.324h5.77ZM13.559 8.613a3.627 3.627 0 1 0 3.613 3.577 3.637 3.637 0 0 0-3.613-3.577Z" fill="currentColor"/></symbol><symbol id="icon-locales-arrow" viewBox="0 0 10 5.909"><g data-name="Arrow Right"><path data-name="Path 10" d="m9.091 0-.909.909L12.316 5 8.182 9.091l.909.909 5-5Z" fill="#365a3f" transform="rotate(90 9.091 .909)"/></g></symbol><symbol id="icon-money-bag" viewBox="0 0 101.592 119"><g fill="currentColor"><path data-name="Path 1357" d="m224.445 164.817-1.75-4.685-.014-.034A95.8 95.8 0 0 0 193.5 121a7.518 7.518 0 0 0-2.657-7.408l3.357-13.623a5.152 5.152 0 0 0-6.539-6.143l-7.852 2.508-.1.034a7.723 7.723 0 0 1-2.875.507c-3.244 0-6.942-1.564-10.222-2.952-1.455-.618-2.665-1.125-3.789-1.511l-.068-.031-.08-.019a5.173 5.173 0 0 0-6.693 6.365l4.7 15.027a7.613 7.613 0 0 0-2.3 3.546 7.72 7.72 0 0 0-.075 4.2 80.233 80.233 0 0 0-14.072 13.83 114.117 114.117 0 0 0-16.927 29.55 32.392 32.392 0 0 0 3.717 30.516 35.1 35.1 0 0 0 29 15.66h33.53a32.411 32.411 0 0 0 26.945-14.14 34.809 34.809 0 0 0 5.87-15.117 35.231 35.231 0 0 0-1.921-16.975Zm-38.491-43.446h-20.2a1.826 1.826 0 1 1 0-3.652h20.176a1.828 1.828 0 0 1 .027 3.654Zm30.477 73.064.2.14-.2-.145Zm-.854-.587a27.335 27.335 0 0 1-22.121 11.318h-33.417a29.207 29.207 0 0 1-24.117-13.06l-.027-.039a26.458 26.458 0 0 1-3.106-25.008 108.39 108.39 0 0 1 16-27.994 73.9 73.9 0 0 1 13.07-12.865 7.608 7.608 0 0 0 3.891 1.062h20.207a7.668 7.668 0 0 0 4.275-1.332 89.6 89.6 0 0 1 28.65 40.825l.014.039a29.492 29.492 0 0 1-3.316 27.055Zm-51.925-94.76.224.092c4.067 1.687 8.677 3.6 13.1 3.6a12.4 12.4 0 0 0 4.62-.83l6.536-1.96-2.918 11.839h-3.758l3.188-4.646a2.945 2.945 0 0 0-2.957-4.576 2.921 2.921 0 0 0-1.892 1.233l-4.357 6.343-2.836-5.95a2.942 2.942 0 0 0-3.922-1.385 2.946 2.946 0 0 0-1.4 3.925l2.406 5.042c-1.093 0-2.575.007-3.413.014l-4.026-13.314q.681.275 1.4.572Z" transform="translate(-125.086 -92.063)"/><path data-name="Path 1358" d="M175.871 161.764a6.919 6.919 0 0 1-.36-13.826l.183-.014h.154a6.931 6.931 0 0 1 6.92 6.922 3.308 3.308 0 0 0 6.616 0 13.539 13.539 0 0 0-10.228-13.108v-4.786a3.308 3.308 0 0 0-6.616.01v4.776a13.528 13.528 0 0 0 3.3 26.647 6.921 6.921 0 1 1-6.915 6.92 3.308 3.308 0 1 0-6.616 0 13.541 13.541 0 0 0 10.227 13.106v4.786a3.308 3.308 0 0 0 6.616-.01v-4.777a13.527 13.527 0 0 0-3.285-26.644Z" transform="translate(-125.086 -92.063)"/></g></symbol><symbol style="enable-background:new 0 0 711.9 742" id="icon-quad-circle" viewBox="0 0 711.9 742"><path class="st0" d="M711.4.7C134.1 156.9.6 741.5.6 741.5h710.7V.7z" fill="currentColor"/></symbol><symbol id="icon-ribbon" viewBox="0 0 1400 40"><defs><clipPath id="a"><path data-name="Rectangle 263" transform="translate(-15647 -837)" fill="#fff" stroke="#707070" d="M0 0h1400v40H0z"/></clipPath></defs><g transform="translate(15647 837)" clip-path="url(#a)"><g data-name="Group 232"><g data-name="Layer 1"><path data-name="Rectangle 262" fill="#215860" d="M0 0h1000.237v1400.765H0z" transform="rotate(90 -6406.608 -7839.626)"/></g><g data-name="Layer 2"><g data-name="Group 227" fill="#032f33"><path data-name="Path 1390" d="m268.491 341.555 107.952 157.683s-96.11-31.382-115.995-37.818-62.1-15.155-77.1-30.723a50.733 50.733 0 0 0-34.008-15.4l-21.082 45.625 47.914-.42c28.086-.244 39.7 5.438 63.71 11.011s100.212 28.041 121.755 35.29 8.369 12.32 8.369 12.32l-10.43 35.616-29.5 27.52s-13.239-2.363-37.017 18.5-111.8 63.766-130.738 71.368-98.882 29.775-98.882 29.775l-2.842 52.9s14.144 11.442 32.501 31.942 62.039 103.556 79.625 130.668 30.28 61.7 30.28 61.7 1.673 2.464 9.123 4.051 29.452-33.3 29.452-33.3 5.56-25.659 11.19-43.059 36.504-77.16 36.504-77.16l.625-23.137s19.689-15.869 41.915-25.152 25.56-6.008 25.56-6.008l2.271 71.031 28.147 6.364s-8.491-26.363-13.889-76.713-9.152-101.541-10.138-120.534 6.994-50.458 6.994-50.458l111.372-18.322-2.607-14.847-126.358 5.233 14.553-36.478 17.219-15.021 25.559-6.006s40.328-17.7 61.721-27.8 50.29-12.005 50.29-12.005l-4.339-23.921s-5.044-9.868-10.762-2.384-35.321 23.441-54.234 33.521-63.544 7.99-63.544 7.99l-100.5-156.095Zm-9.559 513.963c-4.806 17.391-23.374 67.124-37.325 77.985s-27.427-18.762-58.375-62.28-81.235-125.7-81.235-125.7l168.2 55.538 15.847 17.212a287.689 287.689 0 0 1-7.112 37.245Zm99.7-124.8c.122 14.045 1.846 22.29-1.437 24.8s-85.584 38.751-85.584 38.751l-75.32-15.868-112.722-41.975 4.017-13.254s55.914-30.23 97.082-46.286 92.086-51.2 110.275-49.706 41.412 12.03 47.31 25.2 16.257 64.296 16.383 78.341Z" transform="rotate(90 -6405.143 -7838.161)"/><path data-name="Path 1391" d="m316.997.462-2.718 8.97s-55.914 30.23-97.083 46.287-92.083 51.2-110.274 49.706-41.409-12.03-47.309-25.199S43.354 15.928 43.23 1.883q-.007-.759-.02-1.5L32.235 0c3.078 34.032 5.165 63.652 5.868 77.109.993 18.994-7 50.458-7 50.458l-29.462 4.847.026 25.036 47.029-1.947-14.548 36.478-17.219 15.023-15.216 3.576-.335 26.856c6.533-.024 10.863.177 10.863.177l100.5 156.095 20.632-2.658L25.422 233.362s96.108 31.382 115.993 37.818 62.1 15.155 77.1 30.722a50.734 50.734 0 0 0 34.006 15.4l21.081-45.626s-19.825.174-47.913.418-39.7-5.436-63.712-11.009-100.207-28.034-121.75-35.284-8.369-12.32-8.369-12.32l10.429-35.619 29.5-27.522s13.238 2.363 37.016-18.5 111.81-63.759 130.74-71.361 98.882-29.777 98.882-29.777L340.031.811Z" transform="rotate(90 -6405.143 -7838.161)"/><g data-name="Group 226"><path data-name="Path 1392" d="M30.431 121.189 0 122.449v19.022l33.039-5.435Z" transform="rotate(90 -6633.784 -8066.802)"/><path data-name="Path 1393" d="M0 297.935v42.864l7.291-37.482Z" transform="rotate(90 -6633.784 -8066.802)"/><path data-name="Path 1394" d="M85.595 537.083c-9.307 1.447-41.719-7.516-62.348-13.327-7.1-2-15.409-7.153-23.247-13.049v17.925c11.6 4.144 24.294 8.618 33.681 11.76 22.432 7.51 44.615 26.132 44.615 26.132l13.419-20.278s3.187-10.61-6.12-9.163Z" transform="rotate(90 -6633.784 -8066.802)"/><path data-name="Path 1395" d="M69.075 5.187s-5.042-9.868-10.76-2.384S22.994 26.244 4.082 36.322a37.722 37.722 0 0 1-4.08 1.843v13.57c8.348-3.768 16.613-7.547 23.124-10.62 21.388-10.103 50.288-12.003 50.288-12.003Z" transform="rotate(90 -6633.784 -8066.802)"/></g><path data-name="Path 1396" d="m204.592 1399.529-9.061-10.292c-18.563-21.081-21.866-33.585-33.358-55.387s-44.359-94.132-52.973-115.168 3.839-14.388 3.839-14.388l33.759-15.414 40.116 4.305s6.873 11.558 38.207 15.891 121.374 42.833 139.511 52.178 87.215 55.3 87.215 55.3l41.866-32.463s-.6-18.182 2.889-45.473 37.725-114.672 46.721-145.709 26.848-63.269 26.848-63.269.77-2.878-2.9-9.549-44.457-.483-44.457-.483-23.045 12.586-39.888 19.707-82.231 22.871-82.231 22.871l-17.906 14.665s-24.885-4.507-46.444-15.243-21.267-15.4-21.267-15.4l52.232-48.191-13.6-25.45s-14.38 23.671-48.927 60.694-70.809 73.355-84.524 86.533-42.735 27.724-42.735 27.724l-86.725-72.242-9.522 11.686 86.631 92.132-37.108 12.862-22.627-3.193-21.263-15.4s-39.771-18.915-61.41-28.484a123.38 123.38 0 0 1-23.278-14.117v19.779c10.926 3.743 22.769 8.273 32.117 11.875 20 7.712 47.62 42.829 47.62 42.829l-52.295 178.134 15.508 13.864 48.62-184.807s39.148 93.216 47.291 112.464c7.534 17.81 26.093 51.35 27.281 73.323Zm247.547-115.157s-59.446-22.507-98.524-43.135-98.976-36.143-109.742-50.873-18-39.19-11.9-52.268 37.991-54.363 48.529-63.645 15.65-15.982 19.694-15.138 85.3 39.371 85.3 39.371l37.281 67.342 42.006 112.715Zm62.47-154.073c-12.661 51.878-41.907 143.674-41.907 143.674l-68.049-163.537 2.648-23.246a287.535 287.535 0 0 1 32.815-18.988c16.3-7.744 66.056-26.241 83.4-22.8s3.753 33.022-8.91 84.897Z" transform="rotate(90 -6405.143 -7838.161)"/></g><g data-name="Group 228" fill="#46a8b8"><path data-name="Path 1397" d="M303.055 0c1 3.709.243 5.575-10.292 5.666-14.042.122-136.169 16.887-136.169 16.887s-7.422 1.716-15.791-10.6A110.9 110.9 0 0 1 133.737.109l-24.03.855a127.924 127.924 0 0 1-.345 5.482c-.755 8.268-2.248 26.457-33.606 30.861C51.163 40.757 17.414 42.766 0 41.911v59.837c15.147 17.259 37.634 43.083 40.382 47.395 4.19 6.574.972 16.516-1.444 23.973s-17.108 27.411-33.617 29.21A25.329 25.329 0 0 1 0 202.295v48.676c1.48-2.985 2.4-4.834 2.4-4.834a13.8 13.8 0 0 1 16.5-2.624c9.956 4.872 27.383 13.806 30.717 17.084s23.3 18.8 25.817 23.732 3.428 14.014 3.428 14.014S22.699 309.253 0 311.818v22.294c4.782-5.259 19.606-9.641 19.606-9.641l171.757-9.763s11.568-.1 19.891 7.262 5.088 14.828.993 18.994-21.285 22.492-21.285 22.492-22.08 25.8-65.851 27.839-70.211 1.437-89.315-9.963C19.113 371.38 3.644 356.371 0 352.732v21.633c9.273 8.848 18.926 17.94 27.032 25.017-11.958.519-24.743 2.713-26.231 2.726-.256 0-.524-.007-.8-.026v32.623c3.524-6.142 5.951-10.334 5.951-10.334s22.284-2.674 33.023-2.767 5.819 4.079 12.528 15.588 21.115 52.691 22.891 66.72 1.759 12.378 1.831 20.638-28.6 36.6-34.366 38.3-10.724 1.748-17.377-3.153c-3.1-2.285-13.625-10.257-24.483-19.2v22.58a168.722 168.722 0 0 1 4.722 4.227c15.825 14.735 21.716 27.077 19.325 37.009C22.487 610.788 9.124 630.687 0 643.771v160.708c3.473-6.524 5.856-12.505 5.82-16.594-.047-5.357-.994-15.643-2.041-27.453 28.521 25.3 44.923 42.818 50.38 62.646 5.9 21.446 6.071 46.573 6.071 46.573s-4.959 10.083-11.328 12.027-22.4-6.343-22.4-6.343l-26.5-22.66v23.1c14.766 9.889 30.012 20.4 36.049 25.57 13.2 11.293 20.238 12.251 15.707 17.063s-9.839 3.218-12.705 5.057c-1.839 1.178-23.632 9.194-39.05 14.8v18.413a51.263 51.263 0 0 1 8.924-4.845c7.5-3.146 63.705-19.44 63.705-19.44s17.936 13.493 25.75 20.856 1.377 6.971-1.742 19.924c-1.177 4.888-4.489 13.589-8.61 23.138-2.1-.9-3.792-1.621-4.948-2.127-12.529-5.479-35.256-16.288-50.339-18.417C21.688 974.206 8.801 986.686 0 999.742v32.785a45.42 45.42 0 0 0 10.088 5.018s17.3 12.705 24.061 20.637c-13.141 1.112-28.287.659-31.418-.962A28.916 28.916 0 0 1 0 1055.63v42.685c1.7-1.9 2.852-3.192 3.805-4.217 22.935 2.827 25.531 8.555 39.639 15.086 14.224 6.589 13.2 11.294 15.036 14.16s-7.225 12.49-14.658 17.972c-6.118 4.513-24.65 4.248-43.822.814v14.525c13.109 4.395 30.28 9.864 42.257 10.423 11.063.519 22.632-12.88 30.181-26.583.2 14.39-.277 28.591-2.547 33.721-4.785 10.817-16.27 16.527-24.034 18.962-4.78 1.5-28.4 6.235-45.857 9.657v19.724c.036-.032.057-.062.094-.094 4.961-4.367 10.1-2.287 13.124-3.849s55.987-15.173 55.987-15.173a13.8 13.8 0 0 1 12.777 10.762c2.83 10.716 7.476 29.742 7.178 34.406s1.027 29.918-1.055 35.053-8.356 11.761-8.356 11.761-53.523-42.033-65.608-54.508c-6.665-6.88-11.747-10.449-14.142-13.006v31.346c6.751-.819 21.221 8.451 21.221 8.451l119.762 123.507a34.676 34.676 0 0 1 4.8 7.773h21.921c-8.2-9.728-31.29-38.378-31.054-50.191.269-13.448-1.914-15.926 6-20.692s42.911-21.273 53.082-24.724 29.668-6.312 32.619-6.709 8.014 2.852 9.032 5.257-1.362 12.205-1.362 12.205l-26.04 84.853h23.788c.689-22.365 15.134-66.474 15.134-66.474s12.5-30.816 22.342-38.384 42.818-1.377 42.818-1.377l115.635 22.567s13.991.889 18.36 5.848-.047 9.948-6.646 12.455c-4.714 1.792-90.446 42.344-139.04 65.365h39.379c42.823-19.639 88.629-39.14 88.629-39.14s23.886-16.628 55.46-34.524 21.675-27.889 40.147-60.667 48.671-93.489 64.07-114.756 3.731-49.516-1.235-72.659c-3.136-33.565.529-54.4.529-54.4a52.038 52.038 0 0 0-21.668-18.354c-14.789-6.794-41.734-24.895-72.578-46.169s-45.129-17.5-58.474-10.155-36.684 24.6-42.19 28.342-4.886 3.2-10.643 1.665-7.717-7.513-18.238-16.963c-5.207-4.676-16.95-5.75-27.486-5.646 9.235-7.109 12.207-15.2 14.048-23.845 3.174-14.9 5.4-43.835 6.17-50.45s.775-5.791 5.7-9.139 10.731-.92 24.761-2.694 34.408-33.347 34.408-33.347 31.872-39.936 31.744-54.806-7.2-67.683-4.056-85.887 13.054-19.115 13.054-19.115 72.386-36.158 84.728-42.048 35.385-16.006 46.864-26.019 5.436-39.7-2.135-55.336-29.761-2.218-29.761-2.218-26.384 6.014-34.66 4.434-.086-9.914-.086-9.914 18.885-13.384 17.842-38.16-27.982-82.373-33.025-92.243-9.211-13.965-18.348-19.668-42.956.376-45.435.4-5.789-.776-13.262-4.842-64.164-63.056-78.266-69.542c-11.346-5.218-53.084-1.079-85.3 3.462a131.317 131.317 0 0 0 4.269-4.009c23.755-23.339 25.214-45.658 34.739-90.355s44.922-154.89 44.922-154.89 3.052-28.943 10.176-64.531A105.081 105.081 0 0 0 368.782.221Zm118.9 976.5c8.607-6.478 23.09-22.533 38.969-14.5s46.158 21.2 48.332 22.386c16.971 9.274 16.008 24.432 16.008 24.432-2.953.4-110.223-6.418-110.223-6.418s-11.807 1.592-11.289-6.571 9.596-12.858 18.203-19.331Zm-77.61-4c9.976 8.828 17.87 22.793 23.8 30.78s4.585 38.58 4.585 38.58 7.746 16.3-4.7 37.162-40.821 43.65-47.566 48.49-21.478 15.609-45.326-5.223-55.658-54.461-58.639-62.844-11.538-11.856 1.7-26.819 42.608-44.122 47.493-47.323c3.555-2.328 7.188-5.885 10.967-8.2 4.574-1.242 9.313-2.508 14.18-3.792 17.122-3.213 45.443-7.954 53.506-.815Zm-226.954-28.587a13.561 13.561 0 0 0-1.914-3.962c11.636 9.373 27.027 15.578 39.46 22.4 27.434 19.589 40.8 36 40.8 36a52.037 52.037 0 0 0 28.045-4.38c3.07-1.4 6.859-2.871 11.244-4.414-14.435 14.9-31.854 32.619-41.713 38.555-15.825 9.531-23 2.635-23 2.635s-38.481-16.012-64.839-27.076c5.837-15.194 10.215-28.4 11.555-32.86 3.188-10.618 3.014-16.458.362-26.898Zm211.765-372.208c-16.516.968-63.588 3.032-70.2 3.091s-9.935-2.393-12.45-6.5-.97-16.516-.97-16.516c-.021-2.477 14.38-56.3 27.447-73.768s13.841-23.256 27.9-21.724 41.485 20.292 50.665 30.951 15.057 21.348 11.877 35.422-14.567 34.826-18.656 39.818.902 8.256-15.613 9.226Zm37.6 48.416c8.3 4.059 34.224 40.185 34.224 40.185s1.745 10.724-9.807 12.477-88.343 6.554-88.343 6.554-6.6.882-6.659-5.726a50.638 50.638 0 0 1 1.543-12.406s22-35.717 32.663-44.071 28.081-1.073 36.378 2.986Zm-70.45-25.822c14.081 4.007 17.368 2.327 16.61 9.769s-9.748 19.086-12.191 23.239-28.5 47.341-49.083 55.781-44.5 13.609-44.5 13.609-89.118 12.344-94.914 10.742-14 5.078-15.712-1.515-.086-9.912-.086-9.912 112.383-91.862 131.333-97.809 54.463-7.914 68.542-3.905Zm-187.205 133c14.043-.124 136.169-16.887 136.169-16.887s7.422-1.715 15.791 10.6 14.266 25.487 14.375 37.878.244 28.088.244 28.088-7.368 7.5-26.413 2.707-130.045-38.522-130.045-38.522-17.414-7.284-19.125-13.877-5.042-9.871 9.003-9.993Zm169.456 105.1c15.681-1.789 33.869-.295 41.348 4.6s9.121 4.051 8.342 9.017-22.837 34.055-22.837 34.055-60.528 69.926-81.935 78.375-36.277 8.578-36.277 8.578-20.725-8.08-32.391-19.545-16.68-18.029-14.274-26.314 122.341-86.985 138.023-88.776Zm-79.144 256.4s6.968-8.337 15.851-.747 62.758 62.52 62.758 62.52 4.987 4.416.026 8.783a50.6 50.6 0 0 1-10.392 6.95s-41.4 6.733-54.7 4.132-19.183-20.534-21.542-29.463 7.998-52.182 7.998-52.182ZM340.3 902.071c-.732 10.749 1.934 32.206-14.531 38.957-12.572 5.158-32.888 14.7-42.829 19.312a111.163 111.163 0 0 0-20.207 4.714 25.251 25.251 0 0 1-14.466-6c1.631-2.492 76.971-79.158 76.971-79.158s6.52-9.969 12.355-4.238 3.439 15.671 2.707 26.413Zm95.582-123.929c-.776 5.789.116 13.216-2.319 18.2-6.517 10.8-26.254 47.895-39.457 49.662s-28.93-1.4-38.85-2.14-32.174-21.776-32.174-21.776-17.391-4.8-25.026-27.871-6.3-59.43-5.55-67.7 2.248-26.457 33.606-30.862 77.6-6.462 85.893-3.229 16.514-.97 19.165 18.837 5.486 61.09 4.712 66.879Zm4.658-128.923c-16.45 8.405-24.805-2.263-24.805-2.263s-50.064-56.57-54.252-63.141-.972-16.516 1.444-23.973 17.11-27.411 33.617-29.209 41.438 15.338 57.267 30.069 21.717 27.076 19.326 37.009-32.598 51.508-32.598 51.508ZM556.3 565.59c14.826-5.085 17.341-.975 20.653-.179s3.426 14.015 1.852 23.117-21.255 25.8-41.806 37.543-67.589 17.938-67.589 17.938.737-9.919 9.66-29 18.841-18.342 37.72-32.549 24.682-11.782 39.509-16.87ZM455.043 417.764s22.282-2.674 33.021-2.767 5.82 4.08 12.53 15.589 21.114 52.69 22.889 66.72 1.759 12.377 1.833 20.637-28.6 36.6-34.366 38.3-10.724 1.746-17.378-3.153-47.4-35.938-52.455-46.633-1.854-23.117 1.385-30.582 32.541-58.111 32.541-58.111Zm-24.748 4.347c.057 6.608-4.876 9.129-5.674 12.442s-25.157 52.268-25.157 52.268a13.8 13.8 0 0 1-16.5 2.624c-9.956-4.872-27.383-13.806-30.717-17.084s-23.3-18.8-25.818-23.732-3.428-14.014-3.428-14.014 66.808-12.975 84.147-13.954 23.09-5.16 23.147 1.45ZM339.301 36.654c6.608-.057 7.492 6.545 5.072 13.174s-51.277 183.033-51.277 183.033-11.364 23.231-25.415 22.528-50.1-60.7-50.1-60.7-15.13-29.611-14.413-42.011 26.973-33.282 26.973-33.282l92.724-72.685s9.827-9.998 16.436-10.057ZM150.222 49.871c20.581-8.441 44.5-13.607 44.5-13.607s89.119-12.344 94.915-10.742 14-5.08 15.71 1.514.086 9.914.086 9.914-112.383 91.86-131.332 97.809-54.46 7.91-68.539 3.9-17.368-2.328-16.61-9.771 9.749-19.086 12.191-23.238 28.499-47.339 49.079-55.779ZM35.108 112.839C26.812 108.779.882 72.654.882 72.654s-1.746-10.724 9.8-12.477 88.343-6.554 88.343-6.554 6.6-.882 6.66 5.726a50.683 50.683 0 0 1-1.545 12.406s-21.987 35.716-32.658 44.07-28.076 1.071-36.374-2.986Zm65.874 163.832c-14.058-1.53-41.487-20.292-50.666-30.953s-15.06-21.347-11.88-35.422 14.568-34.825 18.656-39.816-.9-8.255 15.615-9.225 63.59-3.034 70.2-3.091 9.935 2.393 12.448 6.5.97 16.516.97 16.516c.021 2.477-14.38 56.3-27.447 73.767s-13.839 23.254-27.896 21.724Zm55.471 13.563c-9.992-9-13.3-8.975-11.724-18.075s11.987-46.37 16.032-56.319 14.639-26.566 16.268-29.058 7.4-4.2 9.886-3.392 8.34 9.017 8.34 9.017l49.433 78.88s13.277 6.493 6.755 16.465-27.162 11.8-32.945 11.854-52.053-.373-62.047-9.372Zm33.165 101.756c4.1-4.167 21.285-22.492 21.285-22.492s22.082-25.8 65.851-27.839 70.213-1.437 89.315 9.961 36.609 29.423 36.609 29.423 3.4 10.711.143 16.522-20.56 10.92-20.56 10.92l-171.757 9.761s-11.566.1-19.891-7.261-5.093-14.828-.997-18.995Zm-39.192 53.217c6.524-9.971 27.162-11.8 32.943-11.854s52.052.373 62.045 9.372 13.3 8.973 11.724 18.075-11.987 46.37-16.032 56.319-14.639 26.566-16.268 29.058-7.4 4.2-9.886 3.392-8.338-9.017-8.338-9.017l-49.437-78.881s-13.277-6.491-6.753-16.464Zm-85.844-23.828a60.47 60.47 0 0 0-4.2-7.142c18.192.348 45.665-2.651 68.413-5.858a131.3 131.3 0 0 0-4.268 4.009c-21.289 20.915-24.675 41.024-32 77.14-8.307-27.014-24.189-60.802-27.945-68.149Zm22.6 156.436c6.4-2.29 11.838-2.813 20.021-5.62 14.828-5.086 17.341-.977 20.653-.181s3.428 14.017 1.854 23.117-21.255 25.8-41.807 37.545a95.06 95.06 0 0 1-18.107 7.4 27737.935 27737.935 0 0 0 17.391-62.261ZM42.82 767.652c-12.753-10.612-27.945-21.948-40.984-31.236-.941-13.941-1.348-27.03-.07-34.418 3.146-18.2 13.052-19.115 13.052-19.115s12.9-6.442 28.731-14.331c-1.517 11.592-4.382 31.291-8.849 53.606-4.924 24.592.258 31.741 8.12 45.494Zm5.894-122.1c-15.349 3.342-28.394 5.06-28.394 5.06s.739-9.92 9.66-29c8.6-18.391 18.132-18.373 35.717-31.073a4348.275 4348.275 0 0 1-16.984 55.015Zm8.778 37.577c.531-1.452 3.286-11.04 7.267-25.134 15.534-7.72 29.89-14.824 34.787-17.163 12.342-5.889 35.386-16 46.864-26.019s5.438-39.7-2.134-55.335-29.763-2.22-29.763-2.22-12.3 2.8-22.743 4.081c9.374-33.713 17-61.243 17-61.243s11.362-23.225 25.412-22.525 50.1 60.7 50.1 60.7 15.129 29.612 14.411 42.011-26.973 33.282-26.973 33.282l-92.721 72.682s-9.828 10-16.436 10.059-7.492-6.545-5.072-13.174Zm6.524 85.042c-1.717-7.422-1.781-14.855 10.617-14.139s169.016 54.706 169.016 54.706 9.914-.088 8.34 9.015-13.088 14.984-13.088 14.984l-73.1 48.555s-14.79 9.217-28.848 7.687-34.052-20.355-39.1-31.052-32.12-82.339-33.837-89.756Zm20.3 144.592c-1.8-1.7-3.643-4.567-6.222-12.673-1.366-4.286-2.039-29.177-3.213-53.821 10.501 27.262 20.801 54.621 24.301 69.478a38.8 38.8 0 0 0 5.711 12.975c-8.944-7.814-19.506-14.951-20.58-15.96Zm-25.262 190.694s-18.7-11.21-26.055-18.472c12.572.3 26.062 2.056 28.855 3.848 5.06 3.249 8.338 6.968 8.985 15.205.073.939.182 2.459.306 4.391a44.39 44.39 0 0 0-12.091-4.972Zm7.949-66.277c-6.561 8.841-7.336 10.078-10.026 13.028-15.982-4.584-18.973-10.018-30.814-16.908-13.547-7.886-12.084-12.476-13.649-15.5s8.357-11.765 16.268-16.529c7.72-4.65 32.183-.99 54.109 6.489-5.717 12.263-11.891 24.032-15.888 29.419Zm13.071 19.234c6.825-9.478 14.1-24.9 20.4-40.165 20.142 12.16 41.846 31.454 41.846 31.454s-7.985 5.933-28.252 11.668c-14.908 4.217-22.066 1.013-33.993-2.958Zm9.445 57.59c.789-21.607 6.268-34.138 15.345-38.829s60.283-9.048 60.283-9.048c17.118 6.942 14.518 20.24 14.518 20.24s-10.026 74.874-12.258 82.34-11.854 11.54-19.074 14.593-31.924 4.995-44.084-6.314-15.516-41.374-14.729-62.982Zm141.377 151.807c-1.463 4.59-11.856 11.54-11.856 11.54-1.859 1.637-51.99 25.962-73.745 27.507s-26.643 4.748-34.683-6.886-11.8-44.651-9.741-58.567 6.292-25.355 19.017-32.157 35.868-11.769 42.318-11.944 5.654-6.081 17.194 5.775 43.9 46.1 48.266 51.065 4.691 9.079 3.23 13.667Zm202.215 23.384c-3.869 5.609-7.44 6.551-7.44 6.551s-143-24.888-159.9-35.328-41.614-36.01-47.794-49.28-9.6-14.659-3.48-18.954 20.813-5.114 25.551-5.983 54.451-9.419 74.3.622 39.4 24.748 39.4 24.748 67.644 59.319 70.224 64.75 13.01 7.267 9.139 12.874Zm21.377-23.225c-3.869 5.607-4.165 10.27-13.447-.27s-101.859-91.929-101.859-91.929-6.152-4.489-2.311-18.879 9.94-27.465 19.24-35.655l21.081-18.563s10.493.667 19.33 18.2 55.951 123.552 55.951 123.552 5.882 17.937 2.015 23.545Zm92.708-77.231c-4.784 10.819-41.257 78.159-45.745 84.311s-10.069 11.066-17.639 1.222-69.212-163.614-69.212-163.614-6.551-7.44 1.362-12.2 19.895.093 19.895.093l84.552 23.518s16.647 5.155 24.688 16.787 6.885 39.066 2.099 49.883Zm30.46-101.668c-1.037 16.323-2.721 24.411-10.56 28.011s-145.831-35.611-157.444-46.296-22.382-25.422-23.576-34.278-2.905-9.549 1.361-12.207 40.707-5.023 40.707-5.023 92.485.023 112.881 10.685 30.22 21.822 30.22 21.822 7.449 20.961 6.411 37.286Z" transform="rotate(90 -6405.055 -7838.073)"/><path data-name="Path 1398" d="M39.713 1391.221C21.782 1372.343 8.594 1357.494 0 1343.947v34.463c7.088 6.9 14.754 13.96 22.183 20.581H47.87a112.45 112.45 0 0 1-8.157-7.77Z" transform="rotate(90 -6405.055 -7838.073)"/></g></g><g data-name="Layer 3"><g data-name="Group 229" fill="#032f33"><path data-name="Path 1399" d="M177.958 1235.817a47.38 47.38 0 0 0-17.075-3.922l-20.733 44.87 37.808-.33Z" transform="rotate(90 -6818.618 -7432.606)"/><path data-name="Path 1400" d="m140.15 651.075 37.808-.33v-40.618a47.424 47.424 0 0 0-17.075-3.923Z" transform="rotate(90 -6818.618 -7432.606)"/><path data-name="Path 1401" d="M73.61 940.096s13.91 11.253 31.962 31.408c16.245 18.139 52.655 86.094 72.391 118.947v-31.016a655.284 655.284 0 0 0-3.411-4.846c-30.437-42.8-79.892-123.615-79.892-123.615l83.303 27.508v-6.013l-81.758-30.446 3.95-13.034s40.665-21.983 77.808-38.183v-13.838a163.288 163.288 0 0 1-4.308 1.818c-18.622 7.474-97.246 29.284-97.246 29.284Z" transform="rotate(90 -6818.618 -7432.606)"/><path data-name="Path 1402" d="M176.32 55.287c.513.12 1.079.257 1.639.391V39.963c-20.528-5.781-46.272-13.438-57.24-24.815A49.9 49.9 0 0 0 87.274-.004L66.537 44.871l47.122-.412c27.626-.241 39.05 5.348 62.661 10.828Z" transform="rotate(90 -6818.618 -7432.606)"/><path data-name="Path 1403" d="M140.051 554.482s1.646 2.424 8.971 3.984c7.222 1.54 28.335-31.758 28.936-32.709v-47.348c-6.361 13.892-13.444 26.426-19.611 31.229-13.719 10.681-26.975-18.454-57.41-61.253S21.045 324.77 21.045 324.77l156.913 51.812v-10.1l-44.506-9.375-110.861-41.288 3.95-13.034s54.989-29.729 95.477-45.522c17.977-7.01 37.841-17.72 55.94-27.336V214.17c-31.6 17.176-66.822 33.957-77.918 38.412-18.622 7.474-97.246 29.286-97.246 29.286l-2.795 52.024s13.91 11.253 31.962 31.408 61.017 101.846 78.309 128.507 29.781 60.675 29.781 60.675Z" transform="rotate(90 -6818.618 -7432.606)"/></g><g data-name="Group 230" fill="#46a8b8"><path data-name="Path 1404" d="M129.683 700.321c-9.365 43.957-44.171 152.325-44.171 152.325s-3 28.464-10.008 63.463 6.8 34.066 19.289 68.9 38.215 96.354 44.124 121.491 34.428 34.636 54.836 45.834a289.238 289.238 0 0 1 11.569 8.7v-14.361a70.184 70.184 0 0 1-11.7-8.968c-11.473-11.275-16.4-17.731-14.038-25.878.684-2.353 11.021-10.49 25.734-20.908v-18.9l-.889.591s-14.546 9.064-28.371 7.56-33.489-20.02-38.454-30.539-31.583-80.976-33.272-88.273-1.751-14.61 10.441-13.9c6.242.361 49.656 14.452 90.545 28.121v-16.841c-25.394-7.634-46.693-14.105-46.693-14.105s-17.126-7.163-18.807-13.648-4.959-9.707 8.853-9.828c5.783-.05 30.211-2.972 56.648-6.349v-18.47c-24 3.05-50.518 6.136-53.569 5.293-5.7-1.576-13.77 5-15.451-1.489s-.085-9.75-.085-9.75 35.121-28.708 69.1-54.806v-22.413l-86.239 67.618s-9.665 9.834-16.164 9.891-7.368-6.436-4.987-12.956 50.429-180.006 50.429-180.006 11.175-22.847 25-22.155c7.384.369 20.949 17.4 31.978 33.169v-33.861l-9.365-14.945s-13.057-6.385-6.642-16.192c3.133-4.788 9.574-7.66 16.008-9.359V583.19c-12.15 6.367-26.68 13.732-41.475 28.27-23.373 22.953-24.807 44.903-34.174 88.861Z" transform="rotate(90 -6800.792 -7442.143)"/><path data-name="Path 1405" d="M94.785.996q-2.268 2.024-4.549 4.26c-23.363 22.953-24.8 44.9-34.164 88.86S11.901 246.441 11.901 246.441s-3 28.464-10.008 63.463 6.8 34.066 19.289 68.9 38.215 96.354 44.123 121.491 34.428 34.636 54.837 45.834c26.981 19.265 40.123 35.4 40.123 35.4a51.18 51.18 0 0 0 27.588-4.3 175.679 175.679 0 0 1 17.469-6.509v-40.754c-7.04 6.019-13.285 10.549-17.775 12.321-21.053 8.309-35.676 8.436-35.676 8.436s-20.383-7.946-31.856-19.222-16.4-17.731-14.038-25.878c1.647-5.669 59.255-44.869 99.346-68.785v-19.756a29.515 29.515 0 0 1-2.6 1.571l-71.9 47.753s-14.546 9.064-28.371 7.56-33.489-20.02-38.454-30.539-31.583-80.976-33.272-88.273-1.751-14.61 10.441-13.9c11.366.658 145.909 46.816 164.156 53.09v-20.085c-30.844-8.644-120.3-35.831-120.3-35.831s-17.126-7.163-18.807-13.648-4.959-9.707 8.853-9.828c12.375-.109 110.068-13.353 130.259-16.107v-23.614a321.053 321.053 0 0 1-33.835 9.631s-87.645 12.14-93.344 10.565-13.77 5-15.451-1.489-.085-9.75-.085-9.75 110.524-90.342 129.16-96.191a107.165 107.165 0 0 1 13.555-3.146v-77.717c-.151.4-.3.781-.438 1.121-3.976 9.785-14.4 26.127-16 28.578s-7.277 4.126-9.722 3.335-8.2-8.867-8.2-8.867l-48.622-77.576s-13.057-6.385-6.642-16.192 26.713-11.608 32.4-11.659c5.137-.044 42.742.291 57.219 6.877V9.281l-30.533 1.736s-11.376.1-19.562-7.142A17.752 17.752 0 0 1 151.867 0ZM24.308 271.521c2.38-6.522 50.429-180.006 50.429-180.006s11.175-22.847 25-22.155 49.27 59.695 49.27 59.695 14.88 29.122 14.173 41.316-26.527 32.732-26.527 32.732L45.46 274.589s-9.665 9.834-16.164 9.891-7.369-6.439-4.988-12.959Z" transform="rotate(90 -6800.792 -7442.143)"/><path data-name="Path 1406" d="M126.852 1400.817c11.258-40.443 21.5-77.408 21.5-77.408s11.175-22.847 25-22.155c7.385.369 20.949 17.4 31.978 33.169v-33.86l-9.365-14.945s-13.057-6.385-6.642-16.192c3.133-4.787 9.574-7.658 16.008-9.357v-51.189c-12.15 6.367-26.68 13.731-41.475 28.269-23.363 22.953-24.8 44.9-34.164 88.86-3.848 18.059-11.989 46.986-20.246 74.807Z" transform="rotate(90 -6800.792 -7442.143)"/></g></g><g data-name="Layer 4"><g data-name="Group 231" fill="#032f33"><path data-name="Path 1407" d="M388.909 409.583s-1.645-2.424-8.971-3.984-28.965 32.754-28.965 32.754-5.467 25.235-11 42.346-35.9 75.877-35.9 75.877l-.615 22.754s-19.364 15.607-41.221 24.735-25.137 5.908-25.137 5.908l-2.233-69.856-27.686-6.258s8.351 25.926 13.659 75.444 9 99.86 9.971 118.539-6.878 49.623-6.878 49.623L114.4 795.485l2.565 14.6 124.268-5.147-14.312 35.876-16.934 14.774-25.135 5.907s-39.662 17.409-60.7 27.343-49.459 11.807-49.459 11.807l4.268 23.526s4.959 9.705 10.583 2.345 34.737-23.054 53.337-32.967 62.494-7.858 62.494-7.858l98.841 153.513 20.29-2.614-106.168-155.075s94.52 30.863 114.076 37.193 61.069 14.9 75.828 30.214a49.893 49.893 0 0 0 33.445 15.147l20.733-44.87-47.122.412c-27.622.241-39.047-5.347-62.657-10.829s-98.555-27.578-119.742-34.707-8.231-12.116-8.231-12.116l10.257-35.027 29.014-27.066s13.02 2.324 36.4-18.192 109.955-62.711 128.576-70.187 97.246-29.286 97.246-29.286l2.795-52.026s-13.91-11.253-31.962-31.408-61.013-101.843-78.304-128.506-29.781-60.678-29.781-60.678Zm113.509 251.7s-54.99 29.73-95.477 45.522-90.56 50.354-108.45 48.884-40.728-11.831-46.529-24.782-15.988-63.235-16.11-77.047-1.816-21.923 1.413-24.388 84.168-38.109 84.168-38.109l74.075 15.6 110.861 41.283Zm5.5-21.986-165.419-54.622-15.585-16.927a282.7 282.7 0 0 1 6.992-36.625c4.727-17.1 22.987-66.013 36.706-76.7s26.975 18.453 57.41 61.251 79.893 123.623 79.893 123.623Z" transform="rotate(90 -6597.914 -7646.156)"/><path data-name="Path 1408" d="m524.544 1308.973 2.795-52.026s-13.91-11.253-31.962-31.408-61.013-101.844-78.308-128.506-29.781-60.678-29.781-60.678-1.646-2.424-8.971-3.984-28.965 32.754-28.965 32.754-5.467 25.235-11 42.346-35.9 75.877-35.9 75.877l-.615 22.754s-19.364 15.607-41.221 24.735-25.137 5.908-25.137 5.908l-2.233-69.856-27.681-6.258s8.351 25.927 13.659 75.444 9 99.86 9.971 118.539c.706 13.521-3.213 33.459-5.431 43.445h89.134c33.427-21.893 98.55-53.432 114.408-59.8 18.613-7.476 97.238-29.286 97.238-29.286Zm-192.26-151.075c4.727-17.1 22.987-66.013 36.706-76.7s26.975 18.452 57.41 61.251 79.892 123.615 79.892 123.615l-165.415-54.614-15.585-16.927a282.7 282.7 0 0 1 6.992-36.625Zm-35.415 224.566c-17.888-1.468-40.728-11.831-46.529-24.782s-15.988-63.235-16.11-77.047-1.816-21.923 1.413-24.388 84.168-38.109 84.168-38.109l74.075 15.6 110.858 41.282-3.95 13.034s-54.99 29.73-95.477 45.521-90.561 50.355-108.448 48.889Z" transform="rotate(90 -6597.914 -7646.156)"/><path data-name="Path 1409" d="M428.638 0h-16.307c12.263 19.535 20.892 33.633 20.892 33.633L331.358 0h-16.729l6.187 1.3 110.863 41.285-3.95 13.034s-54.989 29.73-95.477 45.522-90.565 50.351-108.453 48.884-40.728-11.831-46.529-24.782-15.991-63.235-16.11-77.051-1.816-21.923 1.413-24.388c1.839-1.4 28.926-13.589 51.882-23.807h-30.876c-18.308 7.134-21.182 4.31-21.182 4.31l-.138-4.31h-16.52c.135 1.2.27 2.409.4 3.639 5.308 49.516 9 99.86 9.971 118.539s-6.878 49.623-6.878 49.623l-109.531 18.02 2.565 14.6 124.268-5.147-14.305 35.879-16.934 14.774-25.135 5.907s-39.662 17.409-60.7 27.343S.001 294.981.001 294.981l4.268 23.526s4.959 9.706 10.583 2.345 34.737-23.054 53.337-32.966 62.494-7.858 62.494-7.858l98.841 153.513 20.29-2.614-106.168-155.076s94.52 30.863 114.076 37.193 61.069 14.9 75.828 30.214a49.893 49.893 0 0 0 33.445 15.147l20.733-44.871-47.122.412c-27.622.241-39.047-5.347-62.657-10.829s-98.555-27.577-119.742-34.706-8.228-12.119-8.228-12.119l10.257-35.027 29.014-27.066s13.019 2.324 36.4-18.192 109.955-62.711 128.576-70.187 97.246-29.286 97.246-29.286l2.795-52.026A289.845 289.845 0 0 1 428.638 0Z" transform="rotate(90 -6597.914 -7646.156)"/></g><path data-name="Path 1410" d="M71.739 221.659c8.138 1.554.085 9.749.085 9.749s-18.573 13.163-17.548 37.529 27.52 81.01 32.479 90.718 9.058 13.734 18.044 19.343 42.247-.369 44.685-.391 5.693.763 13.042 4.762 63.1 62.013 76.972 68.391c11.084 5.1 51.674 1.115 83.266-3.317a54.466 54.466 0 0 0-2.438 8.483c-3.122 14.652-5.311 43.109-6.068 49.615s-.762 5.7-5.609 8.988-10.554.9-24.353 2.65-33.838 32.8-33.838 32.8-31.345 39.275-31.218 53.9 7.082 66.564 3.988 84.466-12.837 18.8-12.837 18.8-71.189 35.56-83.327 41.353-34.8 15.741-46.09 25.59-5.347 39.047 2.1 54.42 29.272 2.175 29.272 2.175 25.948-5.915 34.087-4.36.085 9.75.085 9.75-18.572 13.164-17.548 37.527 27.52 81.01 32.479 90.718 9.058 13.734 18.044 19.343 42.247-.37 44.685-.391 5.693.763 13.042 4.762 63.1 62.013 76.972 68.391c3.608 1.659 10.36 2.35 18.9 2.383-9.541 7.1-12.536 15.214-14.385 23.891-3.122 14.652-5.311 43.109-6.068 49.615s-.762 5.7-5.609 8.988-10.554.9-24.353 2.65-33.838 32.8-33.838 32.8-31.345 39.275-31.218 53.9 7.082 66.564 3.988 84.466-12.837 18.8-12.837 18.8-71.189 35.561-83.327 41.353c-10.809 5.158-29.944 13.614-41.981 22.357h32.029a181.882 181.882 0 0 1 21.4-14.333c20.212-11.551 66.471-17.642 66.471-17.642s-.726 9.756-9.5 28.521a62.215 62.215 0 0 1-1.746 3.454h14.498c9.479-15.549 25.136-37.1 25.136-37.1 16.177-8.265 24.395 2.225 24.395 2.225s16.032 18.115 30.565 34.874h72.984c3-6.159 7.868-12.674 9.557-15.547 2.4-4.084 28.031-46.558 48.271-54.859s43.76-13.382 43.76-13.382 87.645-12.141 93.345-10.565 13.77-5 15.451 1.489.085 9.75.085 9.75-69.275 56.625-107.383 83.115h30.889a117.149 117.149 0 0 1 2.451-2.03l91.19-71.484s9.665-9.834 16.164-9.891 7.368 6.436 4.987 12.956c-.991 2.716-9.906 34.4-19.971 70.449h18.171c7.935-25.839 14.208-45.369 14.208-45.369s3-28.464 10.008-63.463-6.8-34.066-19.289-68.9-38.215-96.354-44.124-121.491-34.428-34.636-54.836-45.834c-25.894-18.488-39.034-34.084-40.051-35.311 4.421-4.276 8.34-8.166 11.8-11.066 13.713-11.5 36.418-16.569 59.78-39.524s24.8-44.9 34.164-88.861 44.171-152.325 44.171-152.325 3-28.464 10.008-63.463-6.8-34.066-19.289-68.9-38.215-96.354-44.123-121.491-34.428-34.636-54.836-45.834c-26.981-19.265-40.123-35.4-40.123-35.4a51.18 51.18 0 0 0-27.588 4.3c-9.634 4.382-26.368 9.536-46.912 15.2 3.714-3.605 7.057-6.86 10.056-9.374 13.713-11.5 36.418-16.569 59.78-39.524s24.8-44.9 34.164-88.86 44.171-152.325 44.171-152.325 3-28.464 10.008-63.463c6.13-30.616-3.665-33.738-14.577-57.353h-18.287c2.178 6.11 3.675 10.547 4.035 12.1 1.688 7.3 1.751 14.61-10.441 13.9-5.921-.343-45.282-13.037-84.212-26.008h-55.74c38.7 11.385 96.1 28.829 96.1 28.829s17.126 7.163 18.807 13.648 4.959 9.707-8.853 9.828-133.92 16.619-133.92 16.619-7.3 1.688-15.529-10.428-14.03-25.066-14.138-37.252L320.869 0h-18.765c3.757 21.332 2.772 46.422 2.166 53.066-.742 8.132-2.21 26.019-33.049 30.35s-76.32 6.354-84.472 3.175-16.242.954-18.85-18.524-5.4-60.079-4.637-65.773c.1-.741.169-1.509.223-2.295h-18.921c.347 15.588 7.013 66.072 3.971 83.675-3.094 17.9-12.837 18.8-12.837 18.8s-71.189 35.56-83.327 41.353-34.8 15.741-46.09 25.59-5.347 39.047 2.1 54.42 29.27 2.183 29.27 2.183 25.949-5.916 34.088-4.361Zm72.679 135.054s-21.914 2.63-32.476 2.721-5.723-4.012-12.321-15.331-20.765-51.819-22.512-65.616-1.73-12.173-1.8-20.3 28.124-36 33.8-37.67 10.547-1.719 17.09 3.1 46.62 35.342 51.588 45.862 1.823 22.735-1.362 30.075-32.007 57.159-32.007 57.159Zm24.338-4.276c-.055-6.5 4.8-8.98 5.581-12.237s24.74-51.4 24.74-51.4a13.572 13.572 0 0 1 16.227-2.58c9.792 4.79 26.931 13.578 30.209 16.8s22.912 18.487 25.391 23.34 3.371 13.783 3.371 13.783-65.7 12.761-82.755 13.723-22.707 5.071-22.764-1.429Zm65.763-98.888c3.13-13.84 14.326-34.25 18.347-39.159s-.884-8.119 15.358-9.072 62.537-2.983 69.038-3.04 9.771 2.354 12.243 6.393.954 16.242.954 16.242c.021 2.437-14.142 55.374-26.993 72.548s-13.612 22.87-27.439 21.364-40.8-19.956-49.828-30.44-14.809-20.993-11.68-34.834Zm3.438 354.408c.763-5.694-.114-13 2.282-17.9 6.408-10.617 25.819-47.1 38.8-48.84s28.451 1.377 38.207 2.1 31.648 21.42 31.648 21.42 17.1 4.725 24.613 27.411 6.2 58.447 5.457 66.578-2.21 26.019-33.049 30.35-76.32 6.354-84.472 3.176-16.242.954-18.85-18.524-5.399-60.076-4.637-65.769Zm181.189 93.48c20.241-8.3 43.76-13.382 43.76-13.382s87.645-12.14 93.345-10.565 13.77-5 15.451 1.489.085 9.749.085 9.749-110.524 90.342-129.16 96.191-53.559 7.78-67.405 3.838-17.082-2.288-16.335-9.608 9.587-18.77 11.989-22.854 28.033-46.552 48.27-54.858Zm-23.639-102.166s7.248-7.375 25.977-2.663 127.894 37.885 127.894 37.885 17.126 7.163 18.807 13.648 4.959 9.707-8.853 9.828-133.918 16.607-133.918 16.607-7.3 1.688-15.529-10.428-14.03-25.065-14.138-37.252-.24-27.625-.24-27.625Zm-52.59 211.712c16.242-.954 62.537-2.983 69.038-3.04s9.771 2.354 12.243 6.393.954 16.242.954 16.242c.021 2.437-14.142 55.374-26.993 72.548s-13.612 22.87-27.439 21.364-40.8-19.956-49.828-30.44-14.808-20.995-11.68-34.836 14.326-34.25 18.347-39.159-.884-8.118 15.358-9.072Zm-36.978-47.615c-8.159-3.993-33.658-39.521-33.658-39.521s-1.717-10.547 9.644-12.271 86.881-6.447 86.881-6.447 6.493-.868 6.55 5.632a49.805 49.805 0 0 1-1.519 12.2s-21.631 35.126-32.123 43.342-27.616 1.056-35.775-2.935Zm-72.563-28.618c16.177-8.265 24.395 2.225 24.395 2.225s49.236 55.634 53.354 62.1.955 16.242-1.419 23.576-16.827 26.956-33.06 28.723-40.756-15.082-56.321-29.571-21.358-26.628-19.006-36.4 32.057-50.653 32.057-50.653ZM119.53 816.995c-14.582 5-17.054.96-20.311.177s-3.373-13.784-1.823-22.735 20.9-25.37 41.116-36.923 66.471-17.642 66.471-17.642-.726 9.756-9.5 28.521-18.531 18.037-37.1 32.011-24.271 11.588-38.853 16.591Zm99.581 145.382s-21.914 2.63-32.476 2.721-5.723-4.012-12.321-15.331-20.765-51.819-22.512-65.616-1.73-12.173-1.8-20.3 28.124-36 33.8-37.67 10.547-1.719 17.09 3.1 46.62 35.342 51.588 45.862 1.823 22.735-1.362 30.075-32.007 57.159-32.007 57.159Zm24.338-4.274c-.055-6.5 4.8-8.98 5.581-12.237s24.74-51.4 24.74-51.4a13.572 13.572 0 0 1 16.227-2.58c9.792 4.79 26.931 13.578 30.209 16.8s22.912 18.487 25.391 23.34 3.371 13.783 3.371 13.783-65.7 12.761-82.755 13.722-22.707 5.071-22.767-1.428Zm86.883 154.744c.721-10.57-1.9-31.672 14.291-38.313 12.364-5.072 32.339-14.453 42.118-18.99a878.838 878.838 0 0 0 25.2-3.589 23.354 23.354 0 0 1 8.906 4.85c-1.6 2.451-75.7 77.849-75.7 77.849s-6.413 9.8-12.15 4.168-3.386-15.407-2.665-25.976Zm41.88 236.887s-21.631 35.126-32.123 43.342-27.616 1.055-35.775-2.936-33.658-39.521-33.658-39.521-1.717-10.547 9.644-12.271 86.881-6.447 86.881-6.447 6.493-.867 6.549 5.632a49.8 49.8 0 0 1-1.517 12.204Zm5.127-64.233c-.742 8.132-2.21 26.019-33.049 30.35s-76.32 6.354-84.472 3.176-16.242.954-18.85-18.524-5.4-60.079-4.637-65.773-.114-13 2.282-17.9c6.408-10.617 25.819-47.1 38.8-48.84s28.451 1.377 38.207 2.1 31.644 21.413 31.644 21.413 17.1 4.725 24.613 27.411 6.203 58.455 5.463 66.586Zm180.369-.762c-13.81.12-133.918 16.607-133.918 16.607s-7.3 1.688-15.529-10.428-14.03-25.065-14.138-37.251-.241-27.624-.241-27.624 7.248-7.375 25.977-2.663 127.894 37.885 127.894 37.885 17.126 7.163 18.807 13.648 4.961 9.705-8.851 9.824Zm-27.388-159.013c13.827 1.5 33.488 20.02 38.454 30.539s31.584 80.972 33.272 88.272 1.751 14.61-10.441 13.9-166.222-53.8-166.222-53.8-9.75.086-8.2-8.866 12.871-14.737 12.871-14.737l71.9-47.753s14.542-9.059 28.367-7.555Zm-49.42-76.758s20.383 7.946 31.856 19.222 16.4 17.731 14.038 25.878-120.318 85.552-135.739 87.311-33.309.29-40.665-4.52-8.972-3.984-8.2-8.867 22.458-33.508 22.458-33.508 59.526-68.771 80.579-77.08 35.674-8.436 35.674-8.436Zm-.752-61.243c-4.027 4.1-20.933 22.119-20.933 22.119s-6.48 7.551-19.343 14.74c-9.212 3.613-22.448 7.673-38.148 12.056-2.354.264-4.772.465-7.271.583-43.046 2-69.051 1.415-87.837-9.8s-36-28.936-36-28.936-3.341-10.534-.142-16.249 20.22-10.739 20.22-10.739l168.917-9.6s11.376-.1 19.563 7.142 5.002 14.586.972 18.685Zm38.544-52.338c-6.416 9.806-26.713 11.608-32.4 11.659s-51.191-.366-61.018-9.217-13.076-8.825-11.53-17.775 11.789-45.6 15.767-55.388 14.4-26.127 16-28.578 7.277-4.126 9.722-3.335 8.2 8.867 8.2 8.867l48.613 77.576s13.062 6.385 6.647 16.192Zm91.395-233.988c-2.38 6.522-50.429 180.006-50.429 180.006s-11.175 22.847-25 22.155-49.27-59.695-49.27-59.695-14.88-29.122-14.173-41.316 26.531-32.731 26.531-32.731l91.19-71.484s9.665-9.834 16.164-9.891 7.369 6.436 4.988 12.956Zm-78.141-202.444c13.827 1.5 33.489 20.02 38.454 30.539s31.583 80.976 33.272 88.273 1.751 14.61-10.441 13.9-166.222-53.8-166.222-53.8-9.749.086-8.2-8.866 12.871-14.737 12.871-14.737l71.9-47.753s14.54-9.06 28.366-7.556Zm-85.1-68.318c21.053-8.309 35.676-8.436 35.676-8.436s20.383 7.946 31.856 19.222 16.4 17.731 14.038 25.878-120.318 85.551-135.74 87.311-33.309.29-40.665-4.52-8.971-3.984-8.2-8.867 22.458-33.508 22.458-33.508 59.527-68.775 80.577-77.08Zm-24.38-.6c-1.6 2.451-75.7 77.85-75.7 77.85s-6.413 9.8-12.15 4.168-3.386-15.409-2.664-25.977-1.9-31.672 14.291-38.313 45.466-20.69 47.75-21.543c17.822-6.658 28.476 3.815 28.476 3.815Zm-17.01-47.975c-4.027 4.1-20.933 22.12-20.933 22.12s-8.023 9.354-23.951 17.152a105.385 105.385 0 0 0-17.266 6.52 106.975 106.975 0 0 1-23.545 3.706c-43.046 2-69.051 1.414-87.837-9.8s-36-28.936-36-28.936-3.342-10.534-.142-16.249 20.217-10.738 20.217-10.738l168.917-9.6s11.375-.1 19.563 7.142 5.003 14.584.977 18.683ZM444 329.724c-6.416 9.806-26.713 11.608-32.4 11.659s-51.191-.366-61.018-9.217-13.076-8.825-11.53-17.775 11.789-45.6 15.767-55.388 14.4-26.127 16-28.578 7.277-4.126 9.722-3.335 8.2 8.867 8.2 8.867l48.616 77.58s13.057 6.38 6.642 16.187ZM530.407 82.78c6.5-.057 7.368 6.436 4.987 12.956s-50.429 180.001-50.429 180.001-11.175 22.847-25 22.155-49.27-59.7-49.27-59.7-14.88-29.122-14.173-41.316 26.527-32.732 26.527-32.732l91.197-71.473s9.662-9.834 16.161-9.891Zm-185.952 13c20.241-8.3 43.76-13.382 43.76-13.382s87.645-12.14 93.345-10.565 13.77-5 15.451 1.489.085 9.75.085 9.75-110.524 90.342-129.161 96.191-53.559 7.78-67.4 3.838-17.082-2.288-16.335-9.608 9.587-18.77 11.989-22.854 28.027-46.56 48.266-54.861Zm-137.224 10.133c11.359-1.725 86.881-6.447 86.881-6.447s6.493-.868 6.55 5.632a49.8 49.8 0 0 1-1.519 12.2s-21.631 35.126-32.123 43.342-27.616 1.055-35.775-2.936-33.658-39.52-33.658-39.52-1.716-10.547 9.644-12.271Zm-48.549 23.173c16.177-8.265 24.395 2.225 24.395 2.225s49.236 55.634 53.354 62.1.955 16.242-1.419 23.576-16.826 26.958-33.062 28.726-40.756-15.082-56.321-29.571-21.358-26.628-19.006-36.4 32.059-50.656 32.059-50.656ZM24.525 211.509c-3.257-.785-3.371-13.784-1.823-22.735s20.9-25.37 41.116-36.923 66.471-17.642 66.471-17.642-.726 9.756-9.5 28.521-18.531 18.037-37.1 32.011-24.273 11.587-38.855 16.59-17.052.961-20.309.178Z" fill="#46a8b8" transform="rotate(90 -6558.597 -7684.911)"/></g></g></g></symbol><symbol id="icon-semi-circle" viewBox="0 0 1575.696 2089.566"><path d="M796.807 0s777.939 177.572 778.89 1009.1S-.003 2089.568-.003 2089.568Z" fill="currentColor"/></symbol><symbol id="icon-twitter" viewBox="0 0 47.706 47.706"><path d="M23.853 0a23.853 23.853 0 1 0 23.853 23.853A23.855 23.855 0 0 0 23.853 0Zm11.463 17.98c.016.25.016.511.016.767 0 7.816-5.952 16.82-16.83 16.82a16.769 16.769 0 0 1-9.083-2.652 12.589 12.589 0 0 0 1.427.074 11.863 11.863 0 0 0 7.342-2.524 5.914 5.914 0 0 1-5.526-4.1 6.466 6.466 0 0 0 2.667-.106 5.91 5.91 0 0 1-4.733-5.8v-.074a5.917 5.917 0 0 0 2.667.75 5.915 5.915 0 0 1-2.635-4.919 5.8 5.8 0 0 1 .8-2.982 16.788 16.788 0 0 0 12.193 6.182A5.932 5.932 0 0 1 33.718 14a11.672 11.672 0 0 0 3.754-1.421 5.887 5.887 0 0 1-2.6 3.253 11.717 11.717 0 0 0 3.407-.921 12.4 12.4 0 0 1-2.965 3.067Z" fill="currentColor"/></symbol></svg>