<svg xmlns="http://www.w3.org/2000/svg" width="1400" height="40" viewBox="0 0 1400 40"><defs><clipPath id="a"><path data-name="Rectangle 263" transform="translate(-15647 -837)" fill="#fff" stroke="#707070" d="M0 0h1400v40H0z"/></clipPath></defs><g transform="translate(15647 837)" clip-path="url(#a)"><g data-name="Group 232"><g data-name="Layer 1"><path data-name="Rectangle 262" fill="#215860" d="M-14246.235-1433.018v1000.237H-15647v-1000.237z"/></g><g data-name="Layer 2"><g data-name="Group 227" fill="#032f33"><path data-name="Path 1390" d="m-14584.86-1164.527-157.683 107.952s31.382-96.11 37.818-115.995 15.155-62.1 30.723-77.1a50.733 50.733 0 0 0 15.4-34.008l-45.625-21.082.42 47.914c.244 28.086-5.438 39.7-11.011 63.71s-28.041 100.212-35.29 121.755-12.32 8.369-12.32 8.369l-35.616-10.43-27.52-29.5s2.363-13.239-18.5-37.017-63.766-111.8-71.368-130.738-29.775-98.882-29.775-98.882l-52.9-2.842s-11.442 14.144-31.942 32.501-103.556 62.039-130.668 79.625-61.7 30.28-61.7 30.28-2.464 1.673-4.051 9.123 33.3 29.452 33.3 29.452 25.659 5.56 43.059 11.19 77.16 36.504 77.16 36.504l23.137.625s15.869 19.689 25.152 41.915 6.008 25.56 6.008 25.56l-71.031 2.271-6.364 28.147s26.363-8.491 76.713-13.889 101.541-9.152 120.534-10.138 50.458 6.994 50.458 6.994l18.322 111.372 14.847-2.607-5.233-126.358 36.478 14.553 15.021 17.219 6.006 25.559s17.7 40.328 27.8 61.721 12.005 50.29 12.005 50.29l23.921-4.339s9.868-5.044 2.384-10.762-23.441-35.321-33.521-54.234-7.99-63.544-7.99-63.544l156.095-100.5Zm-513.963-9.559c-17.391-4.806-67.124-23.374-77.985-37.325s18.762-27.427 62.28-58.375 125.7-81.235 125.7-81.235l-55.538 168.2-17.212 15.847a287.689 287.689 0 0 1-37.245-7.112Zm124.8 99.7c-14.045.122-22.29 1.846-24.8-1.437s-38.751-85.584-38.751-85.584l15.868-75.32 41.975-112.722 13.254 4.017s30.23 55.914 46.286 97.082 51.2 92.086 49.706 110.275-12.03 41.412-25.2 47.31-64.296 16.257-78.341 16.383Z"/><path data-name="Path 1391" d="m-14243.767-1116.021-8.97-2.718s-30.23-55.914-46.287-97.083-51.2-92.083-49.706-110.274 12.03-41.409 25.199-47.309 64.298-16.259 78.343-16.383q.759-.007 1.5-.02l.383-10.975c-34.032 3.078-63.652 5.165-77.109 5.868-18.994.993-50.458-7-50.458-7l-4.847-29.462-25.036.026 1.947 47.029-36.478-14.548-15.023-17.219-3.576-15.216-26.856-.335c.024 6.533-.177 10.863-.177 10.863l-156.095 100.5 2.658 20.632 157.688-107.951s-31.382 96.108-37.818 115.993-15.155 62.1-30.722 77.1a50.734 50.734 0 0 0-15.4 34.006l45.626 21.081s-.174-19.825-.418-47.913 5.436-39.7 11.009-63.712 28.034-100.207 35.284-121.75 12.32-8.369 12.32-8.369l35.619 10.429 27.522 29.5s-2.363 13.238 18.5 37.016 63.759 111.81 71.361 130.74 29.777 98.882 29.777 98.882l29.891 1.606Z"/><g data-name="Group 226"><path data-name="Path 1392" d="m-14821.776-1402.587-1.26-30.431h-19.022l5.435 33.039Z"/><path data-name="Path 1393" d="M-14998.522-1433.018h-42.864l37.482 7.291Z"/><path data-name="Path 1394" d="M-15237.67-1347.423c-1.447-9.307 7.516-41.719 13.327-62.348 2-7.1 7.153-15.409 13.049-23.247h-17.925c-4.144 11.6-8.618 24.294-11.76 33.681-7.51 22.432-26.132 44.615-26.132 44.615l20.278 13.419s10.61 3.187 9.163-6.12Z"/><path data-name="Path 1395" d="M-14705.774-1363.943s9.868-5.042 2.384-10.76-23.441-35.321-33.519-54.233a37.722 37.722 0 0 1-1.843-4.08h-13.57c3.768 8.348 7.547 16.613 10.62 23.124 10.103 21.388 12.003 50.288 12.003 50.288Z"/></g><path data-name="Path 1396" d="m-15642.834-1228.426 10.292-9.061c21.081-18.563 33.585-21.866 55.387-33.358s94.132-44.359 115.168-52.973 14.388 3.839 14.388 3.839l15.414 33.759-4.305 40.116s-11.558 6.873-15.891 38.207-42.833 121.374-52.178 139.511-55.3 87.215-55.3 87.215l32.463 41.866s18.182-.6 45.473 2.889 114.672 37.725 145.709 46.721 63.269 26.848 63.269 26.848 2.878.77 9.549-2.9.483-44.457.483-44.457-12.586-23.045-19.707-39.888-22.871-82.231-22.871-82.231l-14.665-17.906s4.507-24.885 15.243-46.444 15.4-21.267 15.4-21.267l48.191 52.232 25.45-13.6s-23.671-14.38-60.694-48.927-73.355-70.809-86.533-84.524-27.724-42.735-27.724-42.735l72.242-86.725-11.686-9.522-92.132 86.631-12.862-37.108 3.193-22.627 15.4-21.263s18.915-39.771 28.484-61.41a123.38 123.38 0 0 1 14.117-23.278h-19.779c-3.743 10.926-8.273 22.769-11.875 32.117-7.712 20-42.829 47.62-42.829 47.62l-178.134-52.295-13.864 15.508 184.807 48.62s-93.216 39.148-112.464 47.291c-17.81 7.534-51.35 26.093-73.323 27.281Zm115.157 247.547s22.507-59.446 43.135-98.524 36.143-98.976 50.873-109.742 39.19-18 52.268-11.9 54.363 37.991 63.645 48.529 15.982 15.65 15.138 19.694-39.371 85.3-39.371 85.3l-67.342 37.281-112.715 42.006Zm154.073 62.47c-51.878-12.661-143.674-41.907-143.674-41.907l163.537-68.049 23.246 2.648a287.535 287.535 0 0 1 18.988 32.815c7.744 16.3 26.241 66.056 22.8 83.4s-33.022 3.753-84.897-8.91Z"/></g><g data-name="Group 228" fill="#46a8b8"><path data-name="Path 1397" d="M-14243.128-1129.963c-3.709 1-5.575.243-5.666-10.292-.122-14.042-16.887-136.169-16.887-136.169s-1.716-7.422 10.6-15.791a110.9 110.9 0 0 1 11.844-7.066l-.855-24.03a127.924 127.924 0 0 1-5.482-.345c-8.268-.755-26.457-2.248-30.861-33.606-3.45-24.593-5.459-58.342-4.604-75.756h-59.837c-17.259 15.147-43.083 37.634-47.395 40.382-6.574 4.19-16.516.972-23.973-1.444s-27.411-17.108-29.21-33.617a25.329 25.329 0 0 1 .031-5.321h-48.676c2.985 1.48 4.834 2.4 4.834 2.4a13.8 13.8 0 0 1 2.624 16.5c-4.872 9.956-13.806 27.383-17.084 30.717s-18.8 23.3-23.732 25.817-14.014 3.428-14.014 3.428-10.91-56.163-13.475-78.862h-22.294c5.259 4.782 9.641 19.606 9.641 19.606l9.763 171.757s.1 11.568-7.262 19.891-14.828 5.088-18.994.993-22.492-21.285-22.492-21.285-25.8-22.08-27.839-65.851-1.437-70.211 9.963-89.315c9.952-16.683 24.961-32.152 28.6-35.796h-21.633c-8.848 9.273-17.94 18.926-25.017 27.032-.519-11.958-2.713-24.743-2.726-26.231 0-.256.007-.524.026-.8h-32.623c6.142 3.524 10.334 5.951 10.334 5.951s2.674 22.284 2.767 33.023-4.079 5.819-15.588 12.528-52.691 21.115-66.72 22.891-12.378 1.759-20.638 1.831-36.6-28.6-38.3-34.366-1.748-10.724 3.153-17.377c2.285-3.1 10.257-13.625 19.2-24.483h-22.58a168.722 168.722 0 0 1-4.227 4.722c-14.735 15.825-27.077 21.716-37.009 19.325-6.475-1.559-26.374-14.922-39.458-24.046h-160.708c6.524 3.473 12.505 5.856 16.594 5.82 5.357-.047 15.643-.994 27.453-2.041-25.3 28.521-42.818 44.923-62.646 50.38-21.446 5.9-46.573 6.071-46.573 6.071s-10.083-4.959-12.027-11.328 6.343-22.4 6.343-22.4l22.66-26.5h-23.1c-9.889 14.766-20.4 30.012-25.57 36.049-11.293 13.2-12.251 20.238-17.063 15.707s-3.218-9.839-5.057-12.705c-1.178-1.839-9.194-23.632-14.8-39.05h-18.413a51.263 51.263 0 0 1 4.845 8.924c3.146 7.5 19.44 63.705 19.44 63.705s-13.493 17.936-20.856 25.75-6.971 1.377-19.924-1.742c-4.888-1.177-13.589-4.489-23.138-8.61.9-2.1 1.621-3.792 2.127-4.948 5.479-12.529 16.288-35.256 18.417-50.339 1.561-11.055-10.919-23.942-23.975-32.743h-32.785a45.42 45.42 0 0 0-5.018 10.088s-12.705 17.3-20.637 24.061c-1.112-13.141-.659-28.287.962-31.418a28.916 28.916 0 0 1 1.59-2.731h-42.685c1.9 1.7 3.192 2.852 4.217 3.805-2.827 22.935-8.555 25.531-15.086 39.639-6.589 14.224-11.294 13.2-14.16 15.036s-12.49-7.225-17.972-14.658c-4.513-6.118-4.248-24.65-.814-43.822h-14.525c-4.395 13.109-9.864 30.28-10.423 42.257-.519 11.063 12.88 22.632 26.583 30.181-14.39.2-28.591-.277-33.721-2.547-10.817-4.785-16.527-16.27-18.962-24.034-1.5-4.78-6.235-28.4-9.657-45.857h-19.724c.032.036.062.057.094.094 4.367 4.961 2.287 10.1 3.849 13.124s15.173 55.987 15.173 55.987a13.8 13.8 0 0 1-10.762 12.777c-10.716 2.83-29.742 7.476-34.406 7.178s-29.918 1.027-35.053-1.055-11.761-8.356-11.761-8.356 42.033-53.523 54.508-65.608c6.88-6.665 10.449-11.747 13.006-14.142h-31.346c.819 6.751-8.451 21.221-8.451 21.221l-123.507 119.762a34.676 34.676 0 0 1-7.773 4.8v21.921c9.728-8.2 38.378-31.29 50.191-31.054 13.448.269 15.926-1.914 20.692 6s21.273 42.911 24.724 53.082 6.312 29.668 6.709 32.619-2.852 8.014-5.257 9.032-12.205-1.362-12.205-1.362l-84.853-26.04v23.788c22.365.689 66.474 15.134 66.474 15.134s30.816 12.5 38.384 22.342 1.377 42.818 1.377 42.818l-22.567 115.635s-.889 13.991-5.848 18.36-9.948-.047-12.455-6.646c-1.792-4.714-42.344-90.446-65.365-139.04v39.379c19.639 42.823 39.14 88.629 39.14 88.629s16.628 23.886 34.524 55.46 27.889 21.675 60.667 40.147 93.489 48.671 114.756 64.07 49.516 3.731 72.659-1.235c33.565-3.136 54.4.529 54.4.529a52.038 52.038 0 0 0 18.354-21.668c6.794-14.789 24.895-41.734 46.169-72.578s17.5-45.129 10.155-58.474-24.6-36.684-28.342-42.19-3.2-4.886-1.665-10.643 7.513-7.717 16.963-18.238c4.676-5.207 5.75-16.95 5.646-27.486 7.109 9.235 15.2 12.207 23.845 14.048 14.9 3.174 43.835 5.4 50.45 6.17s5.791.775 9.139 5.7.92 10.731 2.694 24.761 33.347 34.408 33.347 34.408 39.936 31.872 54.806 31.744 67.683-7.2 85.887-4.056 19.115 13.054 19.115 13.054 36.158 72.386 42.048 84.728 16.006 35.385 26.019 46.864 39.7 5.436 55.336-2.135 2.218-29.761 2.218-29.761-6.014-26.384-4.434-34.66 9.914-.086 9.914-.086 13.384 18.885 38.16 17.842 82.373-27.982 92.243-33.025 13.965-9.211 19.668-18.348-.376-42.956-.4-45.435.776-5.789 4.842-13.262 63.056-64.164 69.542-78.266c5.218-11.346 1.079-53.084-3.462-85.3a131.317 131.317 0 0 0 4.009 4.269c23.339 23.755 45.658 25.214 90.355 34.739s154.89 44.922 154.89 44.922 28.943 3.052 64.531 10.176a105.081 105.081 0 0 0 10.578 1.618Zm-976.5 118.9c6.478 8.607 22.533 23.09 14.5 38.969s-21.2 46.158-22.386 48.332c-9.274 16.971-24.432 16.008-24.432 16.008-.4-2.953 6.418-110.223 6.418-110.223s-1.592-11.807 6.571-11.289 12.858 9.596 19.331 18.203Zm4-77.61c-8.828 9.976-22.793 17.87-30.78 23.8s-38.58 4.585-38.58 4.585-16.3 7.746-37.162-4.7-43.65-40.821-48.49-47.566-15.609-21.478 5.223-45.326 54.461-55.658 62.844-58.639 11.856-11.538 26.819 1.7 44.122 42.608 47.323 47.493c2.328 3.555 5.885 7.188 8.2 10.967 1.242 4.574 2.508 9.313 3.792 14.18 3.213 17.122 7.954 45.443.815 53.506Zm28.587-226.954a13.561 13.561 0 0 0 3.962-1.914c-9.373 11.636-15.578 27.027-22.4 39.46-19.589 27.434-36 40.8-36 40.8a52.037 52.037 0 0 0 4.38 28.045c1.4 3.07 2.871 6.859 4.414 11.244-14.9-14.435-32.619-31.854-38.555-41.713-9.531-15.825-2.635-23-2.635-23s16.012-38.481 27.076-64.839c15.194 5.837 28.4 10.215 32.86 11.555 10.618 3.188 16.458 3.014 26.898.362Zm372.208 211.765c-.968-16.516-3.032-63.588-3.091-70.2s2.393-9.935 6.5-12.45 16.516-.97 16.516-.97c2.477-.021 56.3 14.38 73.768 27.447s23.256 13.841 21.724 27.9-20.292 41.485-30.951 50.665-21.348 15.057-35.422 11.877-34.826-14.567-39.818-18.656-8.256.902-9.226-15.613Zm-48.416 37.6c-4.059 8.3-40.185 34.224-40.185 34.224s-10.724 1.745-12.477-9.807-6.554-88.343-6.554-88.343-.882-6.6 5.726-6.659a50.638 50.638 0 0 1 12.406 1.543s35.717 22 44.071 32.663 1.073 28.081-2.986 36.378Zm25.822-70.45c-4.007 14.081-2.327 17.368-9.769 16.61s-19.086-9.748-23.239-12.191-47.341-28.5-55.781-49.083-13.609-44.5-13.609-44.5-12.344-89.118-10.742-94.914-5.078-14 1.515-15.712 9.912-.086 9.912-.086 91.862 112.383 97.809 131.333 7.914 54.463 3.905 68.542Zm-133-187.205c.124 14.043 16.887 136.169 16.887 136.169s1.715 7.422-10.6 15.791-25.487 14.266-37.878 14.375-28.088.244-28.088.244-7.5-7.368-2.707-26.413 38.522-130.045 38.522-130.045 7.284-17.414 13.877-19.125 9.871-5.042 9.993 9.003Zm-105.1 169.456c1.789 15.681.295 33.869-4.6 41.348s-4.051 9.121-9.017 8.342-34.055-22.837-34.055-22.837-69.926-60.528-78.375-81.935-8.578-36.277-8.578-36.277 8.08-20.725 19.545-32.391 18.029-16.68 26.314-14.274 86.985 122.341 88.776 138.023Zm-256.4-79.144s8.337 6.968.747 15.851-62.52 62.758-62.52 62.758-4.416 4.987-8.783.026a50.6 50.6 0 0 1-6.95-10.392s-6.733-41.4-4.132-54.7 20.534-19.183 29.463-21.542 52.182 7.998 52.182 7.998Zm186.728 140.887c-10.749-.732-32.206 1.934-38.957-14.531-5.158-12.572-14.7-32.888-19.312-42.829a111.163 111.163 0 0 0-4.714-20.207 25.251 25.251 0 0 1 6-14.466c2.492 1.631 79.158 76.971 79.158 76.971s9.969 6.52 4.238 12.355-15.671 3.439-26.413 2.707Zm123.929 95.582c-5.789-.776-13.216.116-18.2-2.319-10.8-6.517-47.895-26.254-49.662-39.457s1.4-28.93 2.14-38.85 21.776-32.174 21.776-32.174 4.8-17.391 27.871-25.026 59.43-6.3 67.7-5.55 26.457 2.248 30.862 33.606 6.462 77.6 3.229 85.893.97 16.514-18.837 19.165-61.09 5.486-66.879 4.712Zm128.923 4.658c-8.405-16.45 2.263-24.805 2.263-24.805s56.57-50.064 63.141-54.252 16.516-.972 23.973 1.444 27.411 17.11 29.209 33.617-15.338 41.438-30.069 57.267-27.076 21.717-37.009 19.326-51.508-32.598-51.508-32.598Zm83.629 115.76c5.085 14.826.975 17.341.179 20.653s-14.015 3.426-23.117 1.852-25.8-21.255-37.543-41.806-17.938-67.589-17.938-67.589 9.919.737 29 9.66 18.342 18.841 32.549 37.72 11.782 24.682 16.87 39.509Zm147.826-101.257s2.674 22.282 2.767 33.021-4.08 5.82-15.589 12.53-52.69 21.114-66.72 22.889-12.377 1.759-20.637 1.833-36.6-28.6-38.3-34.366-1.746-10.724 3.153-17.378 35.938-47.4 46.633-52.455 23.117-1.854 30.582 1.385 58.111 32.541 58.111 32.541Zm-4.347-24.748c-6.608.057-9.129-4.876-12.442-5.674s-52.268-25.157-52.268-25.157a13.8 13.8 0 0 1-2.624-16.5c4.872-9.956 13.806-27.383 17.084-30.717s18.8-23.3 23.732-25.818 14.014-3.428 14.014-3.428 12.975 66.808 13.954 84.147 5.16 23.09-1.45 23.147Zm385.457-90.994c.057 6.608-6.545 7.492-13.174 5.072s-183.033-51.277-183.033-51.277-23.231-11.364-22.528-25.415 60.7-50.1 60.7-50.1 29.611-15.13 42.011-14.413 33.282 26.973 33.282 26.973l72.685 92.724s9.998 9.827 10.057 16.436Zm-13.217-189.079c8.441 20.581 13.607 44.5 13.607 44.5s12.344 89.119 10.742 94.915 5.08 14-1.514 15.71-9.914.086-9.914.086-91.86-112.383-97.809-131.332-7.91-54.46-3.9-68.539 2.328-17.368 9.771-16.61 19.086 9.749 23.238 12.191 47.339 28.499 55.779 49.079Zm-62.968-115.114c4.06-8.296 40.185-34.226 40.185-34.226s10.724-1.746 12.477 9.8 6.554 88.343 6.554 88.343.882 6.6-5.726 6.66a50.683 50.683 0 0 1-12.406-1.545s-35.716-21.987-44.07-32.658-1.071-28.076 2.986-36.374Zm-163.832 65.874c1.53-14.058 20.292-41.487 30.953-50.666s21.347-15.06 35.422-11.88 34.825 14.568 39.816 18.656 8.255-.9 9.225 15.615 3.034 63.59 3.091 70.2-2.393 9.935-6.5 12.448-16.516.97-16.516.97c-2.477.021-56.3-14.38-73.767-27.447s-23.254-13.839-21.724-27.896Zm-13.563 55.471c9-9.992 8.975-13.3 18.075-11.724s46.37 11.987 56.319 16.032 26.566 14.639 29.058 16.268 4.2 7.4 3.392 9.886-9.017 8.34-9.017 8.34l-78.88 49.433s-6.493 13.277-16.465 6.755-11.8-27.162-11.854-32.945.373-52.053 9.372-62.047Zm-101.756 33.165c4.167 4.1 22.492 21.285 22.492 21.285s25.8 22.082 27.839 65.851 1.437 70.213-9.961 89.315-29.423 36.609-29.423 36.609-10.711 3.4-16.522.143-10.92-20.56-10.92-20.56l-9.761-171.757s-.1-11.566 7.261-19.891 14.828-5.093 18.995-.997Zm-53.217-39.192c9.971 6.524 11.8 27.162 11.854 32.943s-.373 52.052-9.372 62.045-8.973 13.3-18.075 11.724-46.37-11.987-56.319-16.032-26.566-14.639-29.058-16.268-4.2-7.4-3.392-9.886 9.017-8.338 9.017-8.338l78.881-49.437s6.491-13.277 16.464-6.753Zm23.828-85.844a60.47 60.47 0 0 0 7.142-4.2c-.348 18.192 2.651 45.665 5.858 68.413a131.3 131.3 0 0 0-4.009-4.268c-20.915-21.289-41.024-24.675-77.14-32 27.014-8.307 60.802-24.189 68.149-27.945Zm-156.436 22.6c2.29 6.4 2.813 11.838 5.62 20.021 5.086 14.828.977 17.341.181 20.653s-14.017 3.428-23.117 1.854-25.8-21.255-37.545-41.807a95.06 95.06 0 0 1-7.4-18.107 27737.935 27737.935 0 0 0 62.261 17.391Zm-189.837-44.362c10.612-12.753 21.948-27.945 31.236-40.984 13.941-.941 27.03-1.348 34.418-.07 18.2 3.146 19.115 13.052 19.115 13.052s6.442 12.9 14.331 28.731c-11.592-1.517-31.291-4.382-53.606-8.849-24.592-4.924-31.741.258-45.494 8.12Zm122.1 5.894c-3.342-15.349-5.06-28.394-5.06-28.394s9.92.739 29 9.66c18.391 8.6 18.373 18.132 31.073 35.717a4348.275 4348.275 0 0 1-55.015-16.984Zm-37.577 8.778c1.452.531 11.04 3.286 25.134 7.267 7.72 15.534 14.824 29.89 17.163 34.787 5.889 12.342 16 35.386 26.019 46.864s39.7 5.438 55.335-2.134 2.22-29.763 2.22-29.763-2.8-12.3-4.081-22.743c33.713 9.374 61.243 17 61.243 17s23.225 11.362 22.525 25.412-60.7 50.1-60.7 50.1-29.612 15.129-42.011 14.411-33.282-26.973-33.282-26.973l-72.682-92.721s-10-9.828-10.059-16.436 6.545-7.492 13.174-5.072Zm-85.042 6.524c7.422-1.717 14.855-1.781 14.139 10.617s-54.706 169.016-54.706 169.016.088 9.914-9.015 8.34-14.984-13.088-14.984-13.088l-48.555-73.1s-9.217-14.79-7.687-28.848 20.355-34.052 31.052-39.1 82.339-32.12 89.756-33.837Zm-144.592 20.3c1.7-1.8 4.567-3.643 12.673-6.222 4.286-1.366 29.177-2.039 53.821-3.213-27.262 10.501-54.621 20.801-69.478 24.301a38.8 38.8 0 0 0-12.975 5.711c7.814-8.944 14.951-19.506 15.96-20.58Zm-190.694-25.262s11.21-18.7 18.472-26.055c-.3 12.572-2.056 26.062-3.848 28.855-3.249 5.06-6.968 8.338-15.205 8.985-.939.073-2.459.182-4.391.306a44.39 44.39 0 0 0 4.972-12.091Zm66.277 7.949c-8.841-6.561-10.078-7.336-13.028-10.026 4.584-15.982 10.018-18.973 16.908-30.814 7.886-13.547 12.476-12.084 15.5-13.649s11.765 8.357 16.529 16.268c4.65 7.72.99 32.183-6.489 54.109-12.263-5.717-24.032-11.891-29.419-15.888Zm-19.234 13.071c9.478 6.825 24.9 14.1 40.165 20.4-12.16 20.142-31.454 41.846-31.454 41.846s-5.933-7.985-11.668-28.252c-4.217-14.908-1.013-22.066 2.958-33.993Zm-57.59 9.445c21.607.789 34.138 6.268 38.829 15.345s9.048 60.283 9.048 60.283c-6.942 17.118-20.24 14.518-20.24 14.518s-74.874-10.026-82.34-12.258-11.54-11.854-14.593-19.074-4.995-31.924 6.314-44.084 41.374-15.516 62.982-14.729Zm-151.807 141.377c-4.59-1.463-11.54-11.856-11.54-11.856-1.637-1.859-25.962-51.99-27.507-73.745s-4.748-26.643 6.886-34.683 44.651-11.8 58.567-9.741 25.355 6.292 32.157 19.017 11.769 35.868 11.944 42.318 6.081 5.654-5.775 17.194-46.1 43.9-51.065 48.266-9.079 4.691-13.667 3.23Zm-23.384 202.215c-5.609-3.869-6.551-7.44-6.551-7.44s24.888-143 35.328-159.9 36.01-41.614 49.28-47.794 14.659-9.6 18.954-3.48 5.114 20.813 5.983 25.551 9.419 54.451-.622 74.3-24.748 39.4-24.748 39.4-59.319 67.644-64.75 70.224-7.267 13.01-12.874 9.139Zm23.225 21.377c-5.607-3.869-10.27-4.165.27-13.447s91.929-101.859 91.929-101.859 4.489-6.152 18.879-2.311 27.465 9.94 35.655 19.24l18.563 21.081s-.667 10.493-18.2 19.33-123.552 55.951-123.552 55.951-17.937 5.882-23.545 2.015Zm77.231 92.708c-10.819-4.784-78.159-41.257-84.311-45.745s-11.066-10.069-1.222-17.639 163.614-69.212 163.614-69.212 7.44-6.551 12.2 1.362-.093 19.895-.093 19.895l-23.518 84.552s-5.155 16.647-16.787 24.688-39.066 6.885-49.883 2.099Zm101.668 30.46c-16.323-1.037-24.411-2.721-28.011-10.56s35.611-145.831 46.296-157.444 25.422-22.382 34.278-23.576 9.549-2.905 12.207 1.361 5.023 40.707 5.023 40.707-.023 92.485-10.685 112.881-21.822 30.22-21.822 30.22-20.961 7.449-37.286 6.411Z"/><path data-name="Path 1398" d="M-15634.349-1393.305c18.878-17.931 33.727-31.119 47.274-39.713h-34.463c-6.9 7.088-13.96 14.754-20.581 22.183v25.687a112.45 112.45 0 0 1 7.77-8.157Z"/></g></g><g data-name="Layer 3"><g data-name="Group 229" fill="#032f33"><path data-name="Path 1399" d="M-15487.042-436.03a47.38 47.38 0 0 0 3.922-17.075l-44.87-20.733.33 37.808Z"/><path data-name="Path 1400" d="m-14902.3-473.838.33 37.808h40.618a47.424 47.424 0 0 0 3.923-17.075Z"/><path data-name="Path 1401" d="M-15191.321-540.378s-11.253 13.91-31.408 31.962c-18.139 16.245-86.094 52.655-118.947 72.391h31.016c1.6-1.115 3.206-2.246 4.846-3.411 42.8-30.437 123.615-79.892 123.615-79.892l-27.508 83.303h6.013l30.446-81.758 13.034 3.95s21.983 40.665 38.183 77.808h13.838a163.288 163.288 0 0 1-1.818-4.308c-7.474-18.622-29.284-97.246-29.284-97.246Z"/><path data-name="Path 1402" d="M-14306.512-437.668c-.12.513-.257 1.079-.391 1.639h15.715c5.781-20.528 13.438-46.272 24.815-57.24a49.9 49.9 0 0 0 15.152-33.445l-44.875-20.737.412 47.122c.241 27.626-5.348 39.05-10.828 62.661Z"/><path data-name="Path 1403" d="M-14805.707-473.937s-2.424 1.646-3.984 8.971c-1.54 7.222 31.758 28.335 32.709 28.936h47.348c-13.892-6.361-26.426-13.444-31.229-19.611-10.681-13.719 18.454-26.975 61.253-57.41s123.615-79.892 123.615-79.892l-51.812 156.913h10.1l9.375-44.506 41.288-110.861 13.034 3.95s29.729 54.989 45.522 95.477c7.01 17.977 17.72 37.841 27.336 55.94h15.757c-17.176-31.6-33.957-66.822-38.412-77.918-7.474-18.622-29.286-97.246-29.286-97.246l-52.024-2.795s-11.253 13.91-31.408 31.962-101.846 61.017-128.507 78.309-60.675 29.781-60.675 29.781Z"/></g><g data-name="Group 230" fill="#46a8b8"><path data-name="Path 1404" d="M-14943.257-511.668c-43.957-9.365-152.325-44.171-152.325-44.171s-28.464-3-63.463-10.008-34.066 6.8-68.9 19.289-96.354 38.215-121.491 44.124-34.636 34.428-45.834 54.836a289.238 289.238 0 0 1-8.7 11.569h14.361a70.184 70.184 0 0 1 8.968-11.7c11.275-11.473 17.731-16.4 25.878-14.038 2.353.684 10.49 11.021 20.908 25.734h18.9l-.591-.889s-9.064-14.546-7.56-28.371 20.02-33.489 30.539-38.454 80.976-31.583 88.273-33.272 14.61-1.751 13.9 10.441c-.361 6.242-14.452 49.656-28.121 90.545h16.841c7.634-25.394 14.105-46.693 14.105-46.693s7.163-17.126 13.648-18.807 9.707-4.959 9.828 8.853c.05 5.783 2.972 30.211 6.349 56.648h18.47c-3.05-24-6.136-50.518-5.293-53.569 1.576-5.7-5-13.77 1.489-15.451s9.75-.085 9.75-.085 28.708 35.121 54.806 69.1h22.413l-67.618-86.239s-9.834-9.665-9.891-16.164 6.436-7.368 12.956-4.987 180.006 50.429 180.006 50.429 22.847 11.175 22.155 25c-.369 7.384-17.4 20.949-33.169 31.978h33.861l14.945-9.365s6.385-13.057 16.192-6.642c4.788 3.133 7.66 9.574 9.359 16.008h51.187c-6.367-12.15-13.732-26.68-28.27-41.475-22.953-23.373-44.903-24.807-88.861-34.174Z"/><path data-name="Path 1405" d="M-14243.932-546.566q-2.024-2.268-4.26-4.549c-22.953-23.363-44.9-24.8-88.86-34.164s-152.325-44.171-152.325-44.171-28.464-3-63.463-10.008-34.066 6.8-68.9 19.289-96.354 38.215-121.491 44.123-34.636 34.428-45.834 54.837c-19.265 26.981-35.4 40.123-35.4 40.123a51.18 51.18 0 0 0 4.3 27.588 175.679 175.679 0 0 1 6.509 17.469h40.754c-6.019-7.04-10.549-13.285-12.321-17.775-8.309-21.053-8.436-35.676-8.436-35.676s7.946-20.383 19.222-31.856 17.731-16.4 25.878-14.038c5.669 1.647 44.869 59.255 68.785 99.346h19.756a29.515 29.515 0 0 1-1.571-2.6l-47.753-71.9s-9.064-14.546-7.56-28.371 20.02-33.489 30.539-38.454 80.976-31.583 88.273-33.272 14.61-1.751 13.9 10.441c-.658 11.366-46.816 145.909-53.09 164.156h20.085c8.644-30.844 35.831-120.3 35.831-120.3s7.163-17.126 13.648-18.807 9.707-4.959 9.828 8.853c.109 12.375 13.353 110.068 16.107 130.259h23.614a321.053 321.053 0 0 1-9.631-33.835s-12.14-87.645-10.565-93.344-5-13.77 1.489-15.451 9.75-.085 9.75-.085 90.342 110.524 96.191 129.16a107.165 107.165 0 0 1 3.146 13.555h77.717c-.4-.151-.781-.3-1.121-.438-9.785-3.976-26.127-14.4-28.578-16s-4.126-7.277-3.335-9.722 8.867-8.2 8.867-8.2l77.576-48.622s6.385-13.057 16.192-6.642 11.608 26.713 11.659 32.4c.044 5.137-.291 42.742-6.877 57.219h23.47l-1.736-30.533s-.1-11.376 7.142-19.562a17.752 17.752 0 0 1 3.875-3.361Zm-270.525-70.477c6.522 2.38 180.006 50.429 180.006 50.429s22.847 11.175 22.155 25-59.695 49.27-59.695 49.27-29.122 14.88-41.316 14.173-32.732-26.527-32.732-26.527l-71.486-91.193s-9.834-9.665-9.891-16.164 6.439-7.369 12.959-4.988Z"/><path data-name="Path 1406" d="M-15643.753-514.499c40.443 11.258 77.408 21.5 77.408 21.5s22.847 11.175 22.155 25c-.369 7.385-17.4 20.949-33.169 31.978h33.86l14.945-9.365s6.385-13.057 16.192-6.642c4.787 3.133 7.658 9.574 9.357 16.008h51.189c-6.367-12.15-13.731-26.68-28.269-41.475-22.953-23.363-44.9-24.8-88.86-34.164-18.059-3.848-46.986-11.989-74.807-20.246Z"/></g></g><g data-name="Layer 4"><g data-name="Group 231" fill="#032f33"><path data-name="Path 1407" d="M-14653.654-659.333s2.424-1.645 3.984-8.971-32.754-28.965-32.754-28.965-25.235-5.467-42.346-11-75.877-35.9-75.877-35.9l-22.754-.615s-15.607-19.364-24.735-41.221-5.908-25.137-5.908-25.137l69.856-2.233 6.258-27.686s-25.926 8.351-75.444 13.659-99.86 9-118.539 9.971-49.623-6.878-49.623-6.878l-18.02-109.533-14.6 2.565 5.147 124.268-35.876-14.312-14.774-16.934-5.907-25.135s-17.409-39.662-27.343-60.7-11.807-49.459-11.807-49.459l-23.526 4.268s-9.705 4.959-2.345 10.583 23.054 34.737 32.967 53.337 7.858 62.494 7.858 62.494l-153.513 98.841 2.614 20.29 155.075-106.168s-30.863 94.52-37.193 114.076-14.9 61.069-30.214 75.828a49.893 49.893 0 0 0-15.147 33.445l44.87 20.733-.412-47.122c-.241-27.622 5.347-39.047 10.829-62.657s27.578-98.555 34.707-119.742 12.116-8.231 12.116-8.231l35.027 10.257 27.066 29.014s-2.324 13.02 18.192 36.4 62.711 109.955 70.187 128.576 29.286 97.246 29.286 97.246l52.026 2.795s11.253-13.91 31.408-31.962 101.843-61.013 128.506-78.304 60.678-29.781 60.678-29.781Zm-251.7 113.509s-29.73-54.99-45.522-95.477-50.354-90.56-48.884-108.45 11.831-40.728 24.782-46.529 63.235-15.988 77.047-16.11 21.923-1.816 24.388 1.413 38.109 84.168 38.109 84.168l-15.6 74.075-41.283 110.861Zm21.986 5.5 54.622-165.419 16.927-15.585a282.7 282.7 0 0 1 36.625 6.992c17.1 4.727 66.013 22.987 76.7 36.706s-18.453 26.975-61.251 57.41-123.623 79.893-123.623 79.893Z"/><path data-name="Path 1408" d="m-15553.044-523.698 52.026 2.795s11.253-13.91 31.408-31.962 101.844-61.013 128.506-78.308 60.678-29.781 60.678-29.781 2.424-1.646 3.984-8.971-32.754-28.965-32.754-28.965-25.235-5.467-42.346-11-75.877-35.9-75.877-35.9l-22.754-.615s-15.607-19.364-24.735-41.221-5.908-25.137-5.908-25.137l69.856-2.233 6.258-27.681s-25.927 8.351-75.444 13.659-99.86 9-118.539 9.971c-13.521.706-33.459-3.213-43.445-5.431v89.134c21.893 33.427 53.432 98.55 59.8 114.408 7.476 18.613 29.286 97.238 29.286 97.238Zm151.075-192.26c17.1 4.727 66.013 22.987 76.7 36.706s-18.452 26.975-61.251 57.41-123.615 79.892-123.615 79.892l54.614-165.415 16.927-15.585a282.7 282.7 0 0 1 36.625 6.992Zm-224.566-35.415c1.468-17.888 11.831-40.728 24.782-46.529s63.235-15.988 77.047-16.11 21.923-1.816 24.388 1.413 38.109 84.168 38.109 84.168l-15.6 74.075-41.282 110.858-13.034-3.95s-29.73-54.99-45.521-95.477-50.355-90.561-48.889-108.448Z"/><path data-name="Path 1409" d="M-14244.071-619.604v-16.307c-19.535 12.263-33.633 20.892-33.633 20.892l33.633-101.865v-16.729l-1.3 6.187-41.285 110.863-13.034-3.95s-29.73-54.989-45.522-95.477-50.351-90.565-48.884-108.453 11.831-40.728 24.782-46.529 63.235-15.991 77.051-16.11 21.923-1.816 24.388 1.413c1.4 1.839 13.589 28.926 23.807 51.882v-30.876c-7.134-18.308-4.31-21.182-4.31-21.182l4.31-.138v-16.52c-1.2.135-2.409.27-3.639.4-49.516 5.308-99.86 9-118.539 9.971s-49.623-6.878-49.623-6.878l-18.02-109.531-14.6 2.565 5.147 124.268-35.879-14.305-14.774-16.934-5.907-25.135s-17.409-39.662-27.343-60.7-11.807-49.459-11.807-49.459l-23.526 4.268s-9.706 4.959-2.345 10.583 23.054 34.737 32.966 53.337 7.858 62.494 7.858 62.494l-153.513 98.841 2.614 20.29 155.076-106.168s-30.863 94.52-37.193 114.076-14.9 61.069-30.214 75.828a49.893 49.893 0 0 0-15.147 33.445l44.871 20.733-.412-47.122c-.241-27.622 5.347-39.047 10.829-62.657s27.577-98.555 34.706-119.742 12.119-8.228 12.119-8.228l35.027 10.257 27.066 29.014s-2.324 13.019 18.192 36.4 62.711 109.955 70.187 128.576 29.286 97.246 29.286 97.246l52.026 2.795a289.845 289.845 0 0 1 24.508-25.629Z"/></g><path data-name="Path 1410" d="M-14465.168-1054.575c-1.554 8.138-9.749.085-9.749.085s-13.163-18.573-37.529-17.548-81.01 27.52-90.718 32.479-13.734 9.058-19.343 18.044.369 42.247.391 44.685-.763 5.693-4.762 13.042-62.013 63.1-68.391 76.972c-5.1 11.084-1.115 51.674 3.317 83.266a54.466 54.466 0 0 0-8.483-2.438c-14.652-3.122-43.109-5.311-49.615-6.068s-5.7-.762-8.988-5.609-.9-10.554-2.65-24.353-32.8-33.838-32.8-33.838-39.275-31.345-53.9-31.218-66.564 7.082-84.466 3.988-18.8-12.837-18.8-12.837-35.56-71.189-41.353-83.327-15.741-34.8-25.59-46.09-39.047-5.347-54.42 2.1-2.175 29.272-2.175 29.272 5.915 25.948 4.36 34.087-9.75.085-9.75.085-13.164-18.572-37.527-17.548-81.01 27.52-90.718 32.479-13.734 9.058-19.343 18.044.37 42.247.391 44.685-.763 5.693-4.762 13.042-62.013 63.1-68.391 76.972c-1.659 3.608-2.35 10.36-2.383 18.9-7.1-9.541-15.214-12.536-23.891-14.385-14.652-3.122-43.109-5.311-49.615-6.068s-5.7-.762-8.988-5.609-.9-10.554-2.65-24.353-32.8-33.838-32.8-33.838-39.275-31.345-53.9-31.218-66.564 7.082-84.466 3.988-18.8-12.837-18.8-12.837-35.561-71.189-41.353-83.327c-5.158-10.809-13.614-29.944-22.357-41.981v32.029a181.882 181.882 0 0 1 14.333 21.4c11.551 20.212 17.642 66.471 17.642 66.471s-9.756-.726-28.521-9.5a62.215 62.215 0 0 1-3.454-1.746v14.498c15.549 9.479 37.1 25.136 37.1 25.136 8.265 16.177-2.225 24.395-2.225 24.395s-18.115 16.032-34.874 30.565v72.984c6.159 3 12.674 7.868 15.547 9.557 4.084 2.4 46.558 28.031 54.859 48.271s13.382 43.76 13.382 43.76 12.141 87.645 10.565 93.345 5 13.77-1.489 15.451-9.75.085-9.75.085-56.625-69.275-83.115-107.383v30.889a117.149 117.149 0 0 1 2.03 2.451l71.484 91.19s9.834 9.665 9.891 16.164-6.436 7.368-12.956 4.987c-2.716-.991-34.4-9.906-70.449-19.971v18.171c25.839 7.935 45.369 14.208 45.369 14.208s28.464 3 63.463 10.008 34.066-6.8 68.9-19.289 96.354-38.215 121.491-44.124 34.636-34.428 45.834-54.836c18.488-25.894 34.084-39.034 35.311-40.051 4.276 4.421 8.166 8.34 11.066 11.8 11.5 13.713 16.569 36.418 39.524 59.78s44.9 24.8 88.861 34.164 152.325 44.171 152.325 44.171 28.464 3 63.463 10.008 34.066-6.8 68.9-19.289 96.354-38.215 121.491-44.123 34.636-34.428 45.834-54.836c19.265-26.981 35.4-40.123 35.4-40.123a51.18 51.18 0 0 0-4.3-27.588c-4.382-9.634-9.536-26.368-15.2-46.912 3.605 3.714 6.86 7.057 9.374 10.056 11.5 13.713 16.569 36.418 39.524 59.78s44.9 24.8 88.86 34.164 152.325 44.171 152.325 44.171 28.464 3 63.463 10.008c30.616 6.13 33.738-3.665 57.353-14.577v-18.287c-6.11 2.178-10.547 3.675-12.1 4.035-7.3 1.688-14.61 1.751-13.9-10.441.343-5.921 13.037-45.282 26.008-84.212v-55.74c-11.385 38.7-28.829 96.1-28.829 96.1s-7.163 17.126-13.648 18.807-9.707 4.959-9.828-8.853-16.619-133.92-16.619-133.92-1.688-7.3 10.428-15.529 25.066-14.03 37.252-14.138l21.231-.186v-18.765c-21.332 3.757-46.422 2.772-53.066 2.166-8.132-.742-26.019-2.21-30.35-33.049s-6.354-76.32-3.175-84.472-.954-16.242 18.524-18.85 60.079-5.4 65.773-4.637c.741.1 1.509.169 2.295.223v-18.921c-15.588.347-66.072 7.013-83.675 3.971-17.9-3.094-18.8-12.837-18.8-12.837s-35.56-71.189-41.353-83.327-15.741-34.8-25.59-46.09-39.047-5.347-54.42 2.1-2.183 29.27-2.183 29.27 5.916 25.949 4.361 34.088Zm-135.054 72.679s-2.63-21.914-2.721-32.476 4.012-5.723 15.331-12.321 51.819-20.765 65.616-22.512 12.173-1.73 20.3-1.8 36 28.124 37.67 33.8 1.719 10.547-3.1 17.09-35.342 46.62-45.862 51.588-22.735 1.823-30.075-1.362-57.159-32.007-57.159-32.007Zm4.276 24.338c6.5-.055 8.98 4.8 12.237 5.581s51.4 24.74 51.4 24.74a13.572 13.572 0 0 1 2.58 16.227c-4.79 9.792-13.578 26.931-16.8 30.209s-18.487 22.912-23.34 25.391-13.783 3.371-13.783 3.371-12.761-65.7-13.723-82.755-5.071-22.707 1.429-22.764Zm98.888 65.763c13.84 3.13 34.25 14.326 39.159 18.347s8.119-.884 9.072 15.358 2.983 62.537 3.04 69.038-2.354 9.771-6.393 12.243-16.242.954-16.242.954c-2.437.021-55.374-14.142-72.548-26.993s-22.87-13.612-21.364-27.439 19.956-40.8 30.44-49.828 20.993-14.809 34.834-11.68Zm-354.408 3.438c5.694.763 13-.114 17.9 2.282 10.617 6.408 47.1 25.819 48.84 38.8s-1.377 28.451-2.1 38.207-21.42 31.648-21.42 31.648-4.725 17.1-27.411 24.613-58.447 6.2-66.578 5.457-26.019-2.21-30.35-33.049-6.354-76.32-3.176-84.472-.954-16.242 18.524-18.85 60.076-5.399 65.769-4.637Zm-93.48 181.189c8.3 20.241 13.382 43.76 13.382 43.76s12.14 87.645 10.565 93.345 5 13.77-1.489 15.451-9.749.085-9.749.085-90.342-110.524-96.191-129.16-7.78-53.559-3.838-67.405 2.288-17.082 9.608-16.335 18.77 9.587 22.854 11.989 46.552 28.033 54.858 48.27Zm102.166-23.639s7.375 7.248 2.663 25.977-37.885 127.894-37.885 127.894-7.163 17.126-13.648 18.807-9.707 4.959-9.828-8.853-16.607-133.918-16.607-133.918-1.688-7.3 10.428-15.529 25.065-14.03 37.252-14.138 27.625-.24 27.625-.24Zm-211.712-52.59c.954 16.242 2.983 62.537 3.04 69.038s-2.354 9.771-6.393 12.243-16.242.954-16.242.954c-2.437.021-55.374-14.142-72.548-26.993s-22.87-13.612-21.364-27.439 19.956-40.8 30.44-49.828 20.995-14.808 34.836-11.68 34.25 14.326 39.159 18.347 8.118-.884 9.072 15.358Zm47.615-36.978c3.993-8.159 39.521-33.658 39.521-33.658s10.547-1.717 12.271 9.644 6.447 86.881 6.447 86.881.868 6.493-5.632 6.55a49.805 49.805 0 0 1-12.2-1.519s-35.126-21.631-43.342-32.123-1.056-27.616 2.935-35.775Zm28.618-72.563c8.265 16.177-2.225 24.395-2.225 24.395s-55.634 49.236-62.1 53.354-16.242.955-23.576-1.419-26.956-16.827-28.723-33.06 15.082-40.756 29.571-56.321 26.628-21.358 36.4-19.006 50.653 32.057 50.653 32.057Zm-82.245-113.846c-5-14.582-.96-17.054-.177-20.311s13.784-3.373 22.735-1.823 25.37 20.9 36.923 41.116 17.642 66.471 17.642 66.471-9.756-.726-28.521-9.5-18.037-18.531-32.011-37.1-11.588-24.271-16.591-38.853Zm-145.382 99.581s-2.63-21.914-2.721-32.476 4.012-5.723 15.331-12.321 51.819-20.765 65.616-22.512 12.173-1.73 20.3-1.8 36 28.124 37.67 33.8 1.719 10.547-3.1 17.09-35.342 46.62-45.862 51.588-22.735 1.823-30.075-1.362-57.159-32.007-57.159-32.007Zm4.274 24.338c6.5-.055 8.98 4.8 12.237 5.581s51.4 24.74 51.4 24.74a13.572 13.572 0 0 1 2.58 16.227c-4.79 9.792-13.578 26.931-16.8 30.209s-18.487 22.912-23.34 25.391-13.783 3.371-13.783 3.371-12.761-65.7-13.722-82.755-5.071-22.707 1.428-22.767Zm-154.744 86.883c10.57.721 31.672-1.9 38.313 14.291 5.072 12.364 14.453 32.339 18.99 42.118a878.838 878.838 0 0 0 3.589 25.2 23.354 23.354 0 0 1-4.85 8.906c-2.451-1.6-77.849-75.7-77.849-75.7s-9.8-6.413-4.168-12.15 15.407-3.386 25.976-2.665Zm-236.887 41.88s-35.126-21.631-43.342-32.123-1.055-27.616 2.936-35.775 39.521-33.658 39.521-33.658 10.547-1.717 12.271 9.644 6.447 86.881 6.447 86.881.867 6.493-5.632 6.549a49.8 49.8 0 0 1-12.204-1.517Zm64.233 5.127c-8.132-.742-26.019-2.21-30.35-33.049s-6.354-76.32-3.176-84.472-.954-16.242 18.524-18.85 60.079-5.4 65.773-4.637 13-.114 17.9 2.282c10.617 6.408 47.1 25.819 48.84 38.8s-1.377 28.451-2.1 38.207-21.413 31.644-21.413 31.644-4.725 17.1-27.411 24.613-58.455 6.203-66.586 5.463Zm.762 180.369c-.12-13.81-16.607-133.918-16.607-133.918s-1.688-7.3 10.428-15.529 25.065-14.03 37.251-14.138 27.624-.241 27.624-.241 7.375 7.248 2.663 25.977-37.885 127.894-37.885 127.894-7.163 17.126-13.648 18.807-9.705 4.961-9.824-8.851Zm159.013-27.388c-1.5 13.827-20.02 33.488-30.539 38.454s-80.972 31.584-88.272 33.272-14.61 1.751-13.9-10.441 53.8-166.222 53.8-166.222-.086-9.75 8.866-8.2 14.737 12.871 14.737 12.871l47.753 71.9s9.059 14.542 7.555 28.367Zm76.758-49.42s-7.946 20.383-19.222 31.856-17.731 16.4-25.878 14.038-85.552-120.318-87.311-135.739-.29-33.309 4.52-40.665 3.984-8.972 8.867-8.2 33.508 22.458 33.508 22.458 68.771 59.526 77.08 80.579 8.436 35.674 8.436 35.674Zm61.243-.752c-4.1-4.027-22.119-20.933-22.119-20.933s-7.551-6.48-14.74-19.343c-3.613-9.212-7.673-22.448-12.056-38.148a112.887 112.887 0 0 1-.583-7.271c-2-43.046-1.415-69.051 9.8-87.837s28.936-36 28.936-36 10.534-3.341 16.249-.142 10.739 20.22 10.739 20.22l9.6 168.917s.1 11.376-7.142 19.563-14.586 5.002-18.685.972Zm52.338 38.544c-9.806-6.416-11.608-26.713-11.659-32.4s.366-51.191 9.217-61.018 8.825-13.076 17.775-11.53 45.6 11.789 55.388 15.767 26.127 14.4 28.578 16 4.126 7.277 3.335 9.722-8.867 8.2-8.867 8.2l-77.576 48.613s-6.385 13.062-16.192 6.647Zm233.988 91.395c-6.522-2.38-180.006-50.429-180.006-50.429s-22.847-11.175-22.155-25 59.695-49.27 59.695-49.27 29.122-14.88 41.316-14.173 32.731 26.531 32.731 26.531l71.484 91.19s9.834 9.665 9.891 16.164-6.436 7.369-12.956 4.988Zm202.444-78.141c-1.5 13.827-20.02 33.489-30.539 38.454s-80.976 31.583-88.273 33.272-14.61 1.751-13.9-10.441 53.8-166.222 53.8-166.222-.086-9.749 8.866-8.2 14.737 12.871 14.737 12.871l47.753 71.9s9.06 14.54 7.556 28.366Zm68.318-85.1c8.309 21.053 8.436 35.676 8.436 35.676s-7.946 20.383-19.222 31.856-17.731 16.4-25.878 14.038-85.551-120.318-87.311-135.74-.29-33.309 4.52-40.665 3.984-8.971 8.867-8.2 33.508 22.458 33.508 22.458 68.775 59.527 77.08 80.577Zm.6-24.38c-2.451-1.6-77.85-75.7-77.85-75.7s-9.8-6.413-4.168-12.15 15.409-3.386 25.977-2.664 31.672-1.9 38.313 14.291 20.69 45.466 21.543 47.75c6.658 17.822-3.815 28.476-3.815 28.476Zm47.975-17.01c-4.1-4.027-22.12-20.933-22.12-20.933s-9.354-8.023-17.152-23.951a105.385 105.385 0 0 0-6.52-17.266 106.975 106.975 0 0 1-3.706-23.545c-2-43.046-1.414-69.051 9.8-87.837s28.936-36 28.936-36 10.534-3.342 16.249-.142 10.738 20.217 10.738 20.217l9.6 168.917s.1 11.375-7.142 19.563-14.584 5.003-18.683.977Zm52.338 38.544c-9.806-6.416-11.608-26.713-11.659-32.4s.366-51.191 9.217-61.018 8.825-13.076 17.775-11.53 45.6 11.789 55.388 15.767 26.127 14.4 28.578 16 4.126 7.277 3.335 9.722-8.867 8.2-8.867 8.2l-77.58 48.616s-6.38 13.057-16.187 6.642Zm246.944 86.407c.057 6.5-6.436 7.368-12.956 4.987s-180.001-50.429-180.001-50.429-22.847-11.175-22.155-25 59.7-49.27 59.7-49.27 29.122-14.88 41.316-14.173 32.732 26.527 32.732 26.527l71.473 91.197s9.834 9.662 9.891 16.161Zm-13-185.952c8.3 20.241 13.382 43.76 13.382 43.76s12.14 87.645 10.565 93.345 5 13.77-1.489 15.451-9.75.085-9.75.085-90.342-110.524-96.191-129.161-7.78-53.559-3.838-67.4 2.288-17.082 9.608-16.335 18.77 9.587 22.854 11.989 46.56 28.027 54.861 48.266Zm-10.133-137.224c1.725 11.359 6.447 86.881 6.447 86.881s.868 6.493-5.632 6.55a49.8 49.8 0 0 1-12.2-1.519s-35.126-21.631-43.342-32.123-1.055-27.616 2.936-35.775 39.52-33.658 39.52-33.658 10.547-1.716 12.271 9.644Zm-23.173-48.549c8.265 16.177-2.225 24.395-2.225 24.395s-55.634 49.236-62.1 53.354-16.242.955-23.576-1.419-26.958-16.826-28.726-33.062 15.082-40.756 29.571-56.321 26.628-21.358 36.4-19.006 50.656 32.059 50.656 32.059Zm-82.423-134.157c.785-3.257 13.784-3.371 22.735-1.823s25.37 20.9 36.923 41.116 17.642 66.471 17.642 66.471-9.756-.726-28.521-9.5-18.037-18.531-32.011-37.1-11.587-24.273-16.59-38.855-.961-17.052-.178-20.309Z" fill="#46a8b8"/></g></g></g></svg>